<?xml version="1.0" encoding="UTF-8" standalone="no"?>
<svg
   xmlns:dc="http://purl.org/dc/elements/1.1/"
   xmlns:cc="http://creativecommons.org/ns#"
   xmlns:rdf="http://www.w3.org/1999/02/22-rdf-syntax-ns#"
   xmlns:svg="http://www.w3.org/2000/svg"
   xmlns="http://www.w3.org/2000/svg"
   xmlns:sodipodi="http://sodipodi.sourceforge.net/DTD/sodipodi-0.dtd"
   xmlns:inkscape="http://www.inkscape.org/namespaces/inkscape"
   viewBox="0 0 28 28"
   height="28"
   width="28"
   xml:space="preserve"
   id="svg2"
   version="1.1"
   sodipodi:docname="dver_furnitura.svg"
   inkscape:version="0.92.4 (5da689c313, 2019-01-14)"><sodipodi:namedview
     pagecolor="#ffffff"
     bordercolor="#666666"
     borderopacity="1"
     objecttolerance="10"
     gridtolerance="10"
     guidetolerance="10"
     inkscape:pageopacity="0"
     inkscape:pageshadow="2"
     inkscape:window-width="716"
     inkscape:window-height="480"
     id="namedview16"
     showgrid="false"
     inkscape:zoom="8.4285714"
     inkscape:cx="14"
     inkscape:cy="14"
     inkscape:window-x="0"
     inkscape:window-y="0"
     inkscape:window-maximized="0"
     inkscape:current-layer="svg2" /><metadata
     id="metadata8"><rdf:RDF><cc:Work
         rdf:about=""><dc:format>image/svg+xml</dc:format><dc:type
           rdf:resource="http://purl.org/dc/dcmitype/StillImage" /></cc:Work></rdf:RDF></metadata><defs
     id="defs6"><clipPath
       id="clipPath18"
       clipPathUnits="userSpaceOnUse"><path
         id="path16"
         d="M 0,21 H 21 V 0 H 0 Z" /></clipPath></defs><g
     transform="matrix(1.3333333,0,0,-1.3333333,0,28)"
     id="g10"
     style="stroke:#000000;stroke-opacity:1"><g
       id="g12"
       style="stroke:#000000;stroke-opacity:1"><g
         clip-path="url(#clipPath18)"
         id="g14"
         style="stroke:#000000;stroke-opacity:1"><g
           transform="translate(10.5392,16.1273)"
           id="g20"
           style="stroke:#000000;stroke-opacity:1"><path
             id="path22"
             style="fill:none;stroke:#000000;stroke-width:1;stroke-linecap:round;stroke-linejoin:round;stroke-miterlimit:22.9260006;stroke-dasharray:none;stroke-opacity:1"
             d="m 0,0 v 3.2 c 0,0.648 -0.525,1.173 -1.172,1.173 h -7.695 c -0.647,0 -1.172,-0.525 -1.172,-1.173 v -17.655 c 0,-0.648 0.525,-1.172 1.172,-1.172 h 7.695 c 0.647,0 1.172,0.524 1.172,1.172 v 10.706"
             inkscape:connector-curvature="0" /></g><g
           transform="translate(5.7116,12.2435)"
           id="g24"
           style="stroke:#000000;stroke-opacity:1"><path
             id="path26"
             style="fill:none;stroke:#000000;stroke-width:1;stroke-linecap:round;stroke-linejoin:round;stroke-miterlimit:22.9260006;stroke-dasharray:none;stroke-opacity:1"
             d="M 0,0 14.789,0.413 V 3.551 L 0,3.964 C -1.116,3.995 -2.038,3.099 -2.038,1.982 -2.038,0.865 -1.116,-0.031 0,0 Z"
             inkscape:connector-curvature="0" /></g><g
           transform="translate(7.3132,8.2699)"
           id="g28"
           style="stroke:#000000;stroke-opacity:1"><path
             id="path30"
             style="fill:none;stroke:#000000;stroke-width:1;stroke-linecap:round;stroke-linejoin:round;stroke-miterlimit:22.9260006;stroke-dasharray:none;stroke-opacity:1"
             d="M 0,0 C 0,1.107 -1.005,1.981 -2.153,1.758 -2.858,1.621 -3.423,1.05 -3.555,0.344 -3.694,-0.401 -3.37,-1.083 -2.823,-1.468 v -2.017 c 0,-0.569 0.461,-1.03 1.03,-1.03 0.568,0 1.029,0.461 1.029,1.03 v 2.017 C -0.303,-1.143 0,-0.607 0,0 Z"
             inkscape:connector-curvature="0" /></g></g></g></g></svg>