<?xml version="1.0" encoding="UTF-8" standalone="no"?>
<svg
   xmlns:dc="http://purl.org/dc/elements/1.1/"
   xmlns:cc="http://creativecommons.org/ns#"
   xmlns:rdf="http://www.w3.org/1999/02/22-rdf-syntax-ns#"
   xmlns:svg="http://www.w3.org/2000/svg"
   xmlns="http://www.w3.org/2000/svg"
   xmlns:sodipodi="http://sodipodi.sourceforge.net/DTD/sodipodi-0.dtd"
   xmlns:inkscape="http://www.inkscape.org/namespaces/inkscape"
   viewBox="0 0 18.233467 28"
   height="28"
   width="18.233467"
   xml:space="preserve"
   id="svg2"
   version="1.1"
   sodipodi:docname="dveri.svg"
   inkscape:version="0.92.4 (5da689c313, 2019-01-14)"><sodipodi:namedview
     pagecolor="#ffffff"
     bordercolor="#666666"
     borderopacity="1"
     objecttolerance="10"
     gridtolerance="10"
     guidetolerance="10"
     inkscape:pageopacity="0"
     inkscape:pageshadow="2"
     inkscape:window-width="716"
     inkscape:window-height="480"
     id="namedview16"
     showgrid="false"
     inkscape:zoom="8.4285714"
     inkscape:cx="9.1167336"
     inkscape:cy="14"
     inkscape:window-x="0"
     inkscape:window-y="0"
     inkscape:window-maximized="0"
     inkscape:current-layer="svg2" /><metadata
     id="metadata8"><rdf:RDF><cc:Work
         rdf:about=""><dc:format>image/svg+xml</dc:format><dc:type
           rdf:resource="http://purl.org/dc/dcmitype/StillImage" /></cc:Work></rdf:RDF></metadata><defs
     id="defs6"><clipPath
       id="clipPath18"
       clipPathUnits="userSpaceOnUse"><path
         id="path16"
         d="M 0,21 H 13.675 V 0 H 0 Z" /></clipPath></defs><g
     transform="matrix(1.3333333,0,0,-1.3333333,0,28)"
     id="g10"
     style="stroke:#000000;stroke-opacity:1"><g
       id="g12"
       style="stroke:#000000;stroke-opacity:1"><g
         clip-path="url(#clipPath18)"
         id="g14"
         style="stroke:#000000;stroke-opacity:1"><g
           transform="translate(0.7779,20.0839)"
           id="g20"
           style="stroke:#000000;stroke-opacity:1"><path
             id="path22"
             style="fill:none;stroke:#000000;stroke-width:1;stroke-linecap:round;stroke-linejoin:round;stroke-miterlimit:22.9260006;stroke-dasharray:none;stroke-opacity:1"
             d="m 0,0 c 0,0.229 0.187,0.416 0.416,0.416 h 11.565 c 0.229,0 0.416,-0.187 0.416,-0.416 v -16.469 c 0,-0.228 -0.187,-0.416 -0.416,-0.416 h -4.21"
             inkscape:connector-curvature="0" /></g><g
           transform="translate(0.7691,20.3026)"
           id="g24"
           style="stroke:#000000;stroke-opacity:1"><path
             id="path26"
             style="fill:none;stroke:#000000;stroke-width:1;stroke-linecap:round;stroke-linejoin:round;stroke-miterlimit:22.9260006;stroke-dasharray:none;stroke-opacity:1"
             d="m 0,0 7.465,-2.488 c 0.148,-0.05 0.268,-0.224 0.268,-0.389 v -16.704 c 0,-0.164 -0.12,-0.258 -0.268,-0.208 L 0,-17.301 c -0.148,0.049 -0.27,0.224 -0.27,0.388 V -0.209 C -0.27,-0.045 -0.148,0.049 0,0 Z"
             inkscape:connector-curvature="0" /></g><g
           transform="translate(6.1617,10.0223)"
           id="g28"
           style="stroke:#000000;stroke-opacity:1"><path
             id="path30"
             style="fill:none;stroke:#000000;stroke-width:1;stroke-linecap:round;stroke-linejoin:round;stroke-miterlimit:22.9260006;stroke-dasharray:none;stroke-opacity:1"
             d="m 0,0 c 0.272,0 0.493,-0.221 0.493,-0.493 0,-0.273 -0.221,-0.493 -0.493,-0.493 -0.272,0 -0.493,0.22 -0.493,0.493 C -0.493,-0.221 -0.272,0 0,0 Z"
             inkscape:connector-curvature="0" /></g></g></g></g></svg>