<?xml version="1.0" encoding="UTF-8" standalone="no"?>
<svg
   xmlns:dc="http://purl.org/dc/elements/1.1/"
   xmlns:cc="http://creativecommons.org/ns#"
   xmlns:rdf="http://www.w3.org/1999/02/22-rdf-syntax-ns#"
   xmlns:svg="http://www.w3.org/2000/svg"
   xmlns="http://www.w3.org/2000/svg"
   xmlns:sodipodi="http://sodipodi.sourceforge.net/DTD/sodipodi-0.dtd"
   xmlns:inkscape="http://www.inkscape.org/namespaces/inkscape"
   viewBox="0 0 27.410267 28"
   height="28"
   width="27.410267"
   xml:space="preserve"
   id="svg2"
   version="1.1"
   sodipodi:docname="elektrika.svg"
   inkscape:version="0.92.4 (5da689c313, 2019-01-14)"><sodipodi:namedview
     pagecolor="#ffffff"
     bordercolor="#666666"
     borderopacity="1"
     objecttolerance="10"
     gridtolerance="10"
     guidetolerance="10"
     inkscape:pageopacity="0"
     inkscape:pageshadow="2"
     inkscape:window-width="716"
     inkscape:window-height="480"
     id="namedview16"
     showgrid="false"
     inkscape:zoom="8.4285714"
     inkscape:cx="13.705133"
     inkscape:cy="14"
     inkscape:window-x="0"
     inkscape:window-y="0"
     inkscape:window-maximized="0"
     inkscape:current-layer="svg2" /><metadata
     id="metadata8"><rdf:RDF><cc:Work
         rdf:about=""><dc:format>image/svg+xml</dc:format><dc:type
           rdf:resource="http://purl.org/dc/dcmitype/StillImage" /></cc:Work></rdf:RDF></metadata><defs
     id="defs6"><clipPath
       id="clipPath18"
       clipPathUnits="userSpaceOnUse"><path
         id="path16"
         d="M 0,21 H 20.558 V 0 H 0 Z" /></clipPath></defs><g
     transform="matrix(1.3333333,0,0,-1.3333333,0,28)"
     id="g10"
     style="stroke:#000000;stroke-opacity:1"><g
       id="g12"
       style="stroke:#000000;stroke-opacity:1"><g
         clip-path="url(#clipPath18)"
         id="g14"
         style="stroke:#000000;stroke-opacity:1"><g
           transform="translate(20.0578,14.0473)"
           id="g20"
           style="stroke:#000000;stroke-opacity:1"><path
             id="path22"
             style="fill:none;stroke:#000000;stroke-width:1;stroke-linecap:round;stroke-linejoin:round;stroke-miterlimit:22.9260006;stroke-dasharray:none;stroke-opacity:1"
             d="M 0,0 H -3.072 M 0,3.615 h -3.072"
             inkscape:connector-curvature="0" /></g><g
           transform="translate(16.0778,19.5385)"
           id="g24"
           style="stroke:#000000;stroke-opacity:1"><path
             id="path26"
             style="fill:none;stroke:#000000;stroke-width:1;stroke-linecap:round;stroke-linejoin:round;stroke-miterlimit:22.9260006;stroke-dasharray:none;stroke-opacity:1"
             d="M 0,0 H -1.528 V -0.001 L -1.566,0 c -1.277,0 -3.977,-1.438 -3.977,-2.352 v -2.665 c 0,-0.903 2.68,-2.368 3.977,-2.35 l 0.038,0.001 V -7.367 H 0 m 0.543,-0.962 v 9.291"
             inkscape:connector-curvature="0" /></g><g
           transform="translate(1.1769,0.5375)"
           id="g28"
           style="stroke:#000000;stroke-opacity:1"><path
             id="path30"
             style="fill:none;stroke:#000000;stroke-width:1;stroke-linecap:round;stroke-linejoin:round;stroke-miterlimit:22.9260006;stroke-dasharray:none;stroke-opacity:1"
             d="m 0,0 13.297,-0.037 c 1.309,-0.002 2.375,0.214 3.212,0.577 0.912,0.397 1.55,0.968 1.931,1.617 0.14,0.239 0.246,0.49 0.319,0.749 0.075,0.266 0.116,0.535 0.121,0.802 0.005,0.268 -0.024,0.539 -0.086,0.81 -0.061,0.267 -0.156,0.529 -0.281,0.781 -0.333,0.665 -0.891,1.262 -1.658,1.69 -0.703,0.395 -1.583,0.649 -2.626,0.689 -1.634,0.054 -3.311,0.02 -4.955,0.007 H 9.272 9.244 9.219 C 8.548,7.679 8.359,7.673 4.942,7.667 3.705,7.665 2.674,7.871 1.85,8.214 H 1.849 c -0.947,0.394 -1.627,0.972 -2.04,1.628 -0.161,0.255 -0.282,0.522 -0.363,0.795 -0.082,0.276 -0.123,0.561 -0.123,0.848 0,0.284 0.04,0.567 0.121,0.843 0.079,0.273 0.199,0.539 0.356,0.794 0.405,0.654 1.067,1.232 1.978,1.627 0.798,0.347 1.787,0.556 2.963,0.554 l 0.001,0.002 4.622,0.012"
             inkscape:connector-curvature="0" /></g></g></g></g></svg>