<?xml version="1.0" encoding="UTF-8" standalone="no"?>
<svg
   xmlns:dc="http://purl.org/dc/elements/1.1/"
   xmlns:cc="http://creativecommons.org/ns#"
   xmlns:rdf="http://www.w3.org/1999/02/22-rdf-syntax-ns#"
   xmlns:svg="http://www.w3.org/2000/svg"
   xmlns="http://www.w3.org/2000/svg"
   viewBox="0 0 28.552134 25.6376"
   height="25.6376"
   width="28.552134"
   xml:space="preserve"
   id="svg2"
   version="1.1"><metadata
     id="metadata8"><rdf:RDF><cc:Work
         rdf:about=""><dc:format>image/svg+xml</dc:format><dc:type
           rdf:resource="http://purl.org/dc/dcmitype/StillImage" /></cc:Work></rdf:RDF></metadata><defs
     id="defs6"><clipPath
       id="clipPath18"
       clipPathUnits="userSpaceOnUse"><path
         id="path16"
         d="M 0,19.228 H 21.414 V 0 H 0 Z" /></clipPath><clipPath
       id="clipPath32"
       clipPathUnits="userSpaceOnUse"><path
         id="path30"
         d="M 0,19.228 H 21.414 V 0 H 0 Z" /></clipPath></defs><g
     transform="matrix(1.3333333,0,0,-1.3333333,0,25.6376)"
     id="g10"><g
       id="g12"><g
         clip-path="url(#clipPath18)"
         id="g14"><path
           id="path20"
           style="fill:none;stroke:#324c5e;stroke-width:1;stroke-linecap:round;stroke-linejoin:round;stroke-miterlimit:22.9260006;stroke-dasharray:none;stroke-opacity:1"
           d="M 12.664,0.5 H 8.75 v 18.229 h 3.914 z" /></g></g><g
       transform="translate(8.75,9.6143)"
       id="g22"><path
         id="path24"
         style="fill:none;stroke:#324c5e;stroke-width:1;stroke-linecap:round;stroke-linejoin:round;stroke-miterlimit:22.9260006;stroke-dasharray:none;stroke-opacity:1"
         d="M 0,0 H 3.914" /></g><g
       id="g26"><g
         clip-path="url(#clipPath32)"
         id="g28"><g
           transform="translate(8.75,18.7286)"
           id="g34"><path
             id="path36"
             style="fill:none;stroke:#324c5e;stroke-width:1;stroke-linecap:round;stroke-linejoin:round;stroke-miterlimit:22.9260006;stroke-dasharray:none;stroke-opacity:1"
             d="m 0,0 h -6.47 c -0.983,0 -1.78,-0.797 -1.78,-1.78 v -14.668 c 0,-0.984 0.797,-1.781 1.78,-1.781 H 0" /></g><g
           transform="translate(5.0151,14.4249)"
           id="g38"><path
             id="path40"
             style="fill:none;stroke:#324c5e;stroke-width:1;stroke-linecap:round;stroke-linejoin:round;stroke-miterlimit:22.9260006;stroke-dasharray:none;stroke-opacity:1"
             d="m 0,0 c 0,-0.637 -0.516,-1.153 -1.153,-1.153 -0.638,0 -1.154,0.516 -1.154,1.153 0,0.637 0.516,1.153 1.154,1.153 C -0.516,1.153 0,0.637 0,0 Z" /></g><g
           transform="translate(5.0151,4.8038)"
           id="g42"><path
             id="path44"
             style="fill:none;stroke:#324c5e;stroke-width:1;stroke-linecap:round;stroke-linejoin:round;stroke-miterlimit:22.9260006;stroke-dasharray:none;stroke-opacity:1"
             d="m 0,0 c 0,-0.638 -0.516,-1.153 -1.153,-1.153 -0.638,0 -1.154,0.515 -1.154,1.153 0,0.637 0.516,1.153 1.154,1.153 C -0.516,1.153 0,0.637 0,0 Z" /></g><g
           transform="translate(6.0015,9.6143)"
           id="g46"><path
             id="path48"
             style="fill:none;stroke:#324c5e;stroke-width:1;stroke-linecap:round;stroke-linejoin:round;stroke-miterlimit:22.9260006;stroke-dasharray:none;stroke-opacity:1"
             d="m 0,0 c 0,-0.638 -0.517,-1.153 -1.153,-1.153 -0.638,0 -1.154,0.515 -1.154,1.153 0,0.637 0.516,1.153 1.154,1.153 C -0.517,1.153 0,0.637 0,0 Z" /></g><g
           transform="translate(12.6641,0.5001)"
           id="g50"><path
             id="path52"
             style="fill:none;stroke:#324c5e;stroke-width:1;stroke-linecap:round;stroke-linejoin:round;stroke-miterlimit:22.9260006;stroke-dasharray:none;stroke-opacity:1"
             d="m 0,0 h 6.47 c 0.983,0 1.78,0.797 1.78,1.78 v 14.668 c 0,0.984 -0.797,1.781 -1.78,1.781 H 0" /></g><g
           transform="translate(16.3989,4.8038)"
           id="g54"><path
             id="path56"
             style="fill:none;stroke:#324c5e;stroke-width:1;stroke-linecap:round;stroke-linejoin:round;stroke-miterlimit:22.9260006;stroke-dasharray:none;stroke-opacity:1"
             d="M 0,0 C 0,0.637 0.517,1.153 1.153,1.153 1.791,1.153 2.307,0.637 2.307,0 2.307,-0.638 1.791,-1.153 1.153,-1.153 0.517,-1.153 0,-0.638 0,0 Z" /></g><g
           transform="translate(16.3989,14.4249)"
           id="g58"><path
             id="path60"
             style="fill:none;stroke:#324c5e;stroke-width:1;stroke-linecap:round;stroke-linejoin:round;stroke-miterlimit:22.9260006;stroke-dasharray:none;stroke-opacity:1"
             d="M 0,0 C 0,0.637 0.517,1.153 1.153,1.153 1.791,1.153 2.307,0.637 2.307,0 2.307,-0.637 1.791,-1.153 1.153,-1.153 0.517,-1.153 0,-0.637 0,0 Z" /></g><g
           transform="translate(15.2456,9.6143)"
           id="g62"><path
             id="path64"
             style="fill:none;stroke:#324c5e;stroke-width:1;stroke-linecap:round;stroke-linejoin:round;stroke-miterlimit:22.9260006;stroke-dasharray:none;stroke-opacity:1"
             d="M 0,0 C 0,0.637 0.516,1.153 1.153,1.153 1.791,1.153 2.307,0.637 2.307,0 2.307,-0.638 1.791,-1.153 1.153,-1.153 0.516,-1.153 0,-0.638 0,0 Z" /></g></g></g></g></svg>