<?xml version="1.0" encoding="UTF-8" standalone="no"?>
<svg
   xmlns:dc="http://purl.org/dc/elements/1.1/"
   xmlns:cc="http://creativecommons.org/ns#"
   xmlns:rdf="http://www.w3.org/1999/02/22-rdf-syntax-ns#"
   xmlns:svg="http://www.w3.org/2000/svg"
   xmlns="http://www.w3.org/2000/svg"
   xmlns:sodipodi="http://sodipodi.sourceforge.net/DTD/sodipodi-0.dtd"
   xmlns:inkscape="http://www.inkscape.org/namespaces/inkscape"
   viewBox="0 0 28 27.604134"
   height="27.604134"
   width="28"
   xml:space="preserve"
   id="svg2"
   version="1.1"
   sodipodi:docname="inzh_santehnika.svg"
   inkscape:version="0.92.4 (5da689c313, 2019-01-14)"><sodipodi:namedview
     pagecolor="#ffffff"
     bordercolor="#666666"
     borderopacity="1"
     objecttolerance="10"
     gridtolerance="10"
     guidetolerance="10"
     inkscape:pageopacity="0"
     inkscape:pageshadow="2"
     inkscape:window-width="716"
     inkscape:window-height="480"
     id="namedview12"
     showgrid="false"
     inkscape:zoom="8.5494442"
     inkscape:cx="14"
     inkscape:cy="13.802067"
     inkscape:window-x="0"
     inkscape:window-y="0"
     inkscape:window-maximized="0"
     inkscape:current-layer="svg2" /><metadata
     id="metadata8"><rdf:RDF><cc:Work
         rdf:about=""><dc:format>image/svg+xml</dc:format><dc:type
           rdf:resource="http://purl.org/dc/dcmitype/StillImage" /></cc:Work></rdf:RDF></metadata><defs
     id="defs6"><clipPath
       id="clipPath18"
       clipPathUnits="userSpaceOnUse"><path
         id="path16"
         d="M 0,20.703 H 21 V 0 H 0 Z" /></clipPath></defs><g
     transform="matrix(1.3333333,0,0,-1.3333333,0,27.604133)"
     id="g10"
     style="stroke:#000000;stroke-opacity:1"><g
       id="g12"
       style="stroke:#000000;stroke-opacity:1"><g
         clip-path="url(#clipPath18)"
         id="g14"
         style="stroke:#000000;stroke-opacity:1"><g
           transform="translate(10.9059,0.5004)"
           id="g20"
           style="stroke:#000000;stroke-opacity:1"><path
             id="path22"
             style="fill:none;stroke:#000000;stroke-width:1;stroke-linecap:round;stroke-linejoin:round;stroke-miterlimit:22.9260006;stroke-dasharray:none;stroke-opacity:1"
             d="m 0,0 v 1.476 c 0,0.06 0.008,0.119 0.023,0.175 -0.1,0.04 -0.199,0.084 -0.297,0.132 -1.762,0.85 -3.138,2.711 -3.138,5.554 V 7.67 h -0.16 c -0.278,0 -0.505,0.227 -0.505,0.506 v 0.616 c 0,0.278 0.227,0.506 0.505,0.506 h 0.16 V 9.311 H 0.123 V 9.298 H 0.3 c 0.279,0 0.506,-0.228 0.506,-0.506 V 8.176 C 0.806,7.897 0.579,7.67 0.3,7.67 H 0.123 V 7.337 C 0.123,6.049 0.621,5.266 1.258,4.958 1.476,4.854 1.72,4.801 1.97,4.801 c 0.25,0 0.494,0.053 0.713,0.157 0.592,0.286 1.064,1.235 1.128,2.367 m 3.537,0 C 7.265,4.631 5.921,2.605 4.215,1.783 4.016,1.687 3.813,1.604 3.607,1.535 3.608,1.516 3.609,1.496 3.609,1.476 V 0 m -7.021,9.816 v 0.599 c -0.027,1.776 -0.929,2.646 -2.489,2.661 l -0.601,0.013 m 0,3.52 0.615,-0.012 c 4.202,-0.031 6.01,-1.992 6.01,-6.182 V 9.816 m -8.569,7.433 h 1.002 c 0.185,0 0.348,-0.102 0.436,-0.251 v -4.382 c -0.088,-0.15 -0.254,-0.251 -0.436,-0.251 H -8.446 M 8.189,12.412 C 8.189,10.797 8.176,9.962 8.176,8.339 8.176,8.061 7.947,7.833 7.67,7.833 H 7.352 V 7.831 H 3.818 v 0.002 h -0.29 c -0.278,0 -0.507,0.228 -0.507,0.506 0,1.607 10e-4,2.457 10e-4,4.064 L 2.85,12.412 c -0.277,0 -0.507,0.228 -0.507,0.506 v 0.797 c 0,0.216 0.228,0.473 0.433,0.473 h 5.646 c 0.205,0 0.432,-0.26 0.432,-0.473 v -0.797 c 0,-0.276 -0.229,-0.506 -0.505,-0.506 z m -4.591,1.774 c 0,2.353 -0.004,3.164 -0.004,5.517 m -1.99,-5.517 h 1.994 m 4.022,0 H 9.594 M 7.629,19.703 C 7.629,17.35 7.62,16.54 7.62,14.186 m -18.026,3.59 h 1.125 c 0.239,0 0.441,-0.168 0.493,-0.392 V 12.23 C -8.84,12.007 -9.047,11.838 -9.281,11.838 h -1.125 z"
             inkscape:connector-curvature="0" /></g></g></g></g></svg>