<?xml version="1.0" encoding="UTF-8" standalone="no"?>
<svg
   xmlns:dc="http://purl.org/dc/elements/1.1/"
   xmlns:cc="http://creativecommons.org/ns#"
   xmlns:rdf="http://www.w3.org/1999/02/22-rdf-syntax-ns#"
   xmlns:svg="http://www.w3.org/2000/svg"
   xmlns="http://www.w3.org/2000/svg"
   xmlns:sodipodi="http://sodipodi.sourceforge.net/DTD/sodipodi-0.dtd"
   xmlns:inkscape="http://www.inkscape.org/namespaces/inkscape"
   viewBox="0 0 24.968933 28"
   height="28"
   width="24.968933"
   xml:space="preserve"
   id="svg2"
   version="1.1"
   sodipodi:docname="kozha.svg"
   inkscape:version="0.92.4 (5da689c313, 2019-01-14)"><sodipodi:namedview
     pagecolor="#ffffff"
     bordercolor="#666666"
     borderopacity="1"
     objecttolerance="10"
     gridtolerance="10"
     guidetolerance="10"
     inkscape:pageopacity="0"
     inkscape:pageshadow="2"
     inkscape:window-width="716"
     inkscape:window-height="480"
     id="namedview12"
     showgrid="false"
     inkscape:zoom="8.4285714"
     inkscape:cx="12.484467"
     inkscape:cy="14"
     inkscape:window-x="0"
     inkscape:window-y="0"
     inkscape:window-maximized="0"
     inkscape:current-layer="svg2" /><metadata
     id="metadata8"><rdf:RDF><cc:Work
         rdf:about=""><dc:format>image/svg+xml</dc:format><dc:type
           rdf:resource="http://purl.org/dc/dcmitype/StillImage" /></cc:Work></rdf:RDF></metadata><defs
     id="defs6"><clipPath
       id="clipPath18"
       clipPathUnits="userSpaceOnUse"><path
         id="path16"
         d="M 0,21 H 18.727 V 0 H 0 Z" /></clipPath></defs><g
     transform="matrix(1.3333333,0,0,-1.3333333,0,28)"
     id="g10"
     style="fill:none;fill-opacity:1;stroke:#000000;stroke-opacity:1"><g
       id="g12"
       style="fill:none;fill-opacity:1;stroke:#000000;stroke-opacity:1"><g
         clip-path="url(#clipPath18)"
         id="g14"
         style="fill:none;fill-opacity:1;stroke:#000000;stroke-opacity:1"><g
           transform="translate(0.7534,15.4861)"
           id="g20"
           style="fill:none;fill-opacity:1;stroke:#000000;stroke-opacity:1"><path
             id="path22"
             style="fill:none;stroke:#000000;stroke-width:1;stroke-linecap:round;stroke-linejoin:round;stroke-miterlimit:22.9260006;stroke-dasharray:none;stroke-opacity:1;fill-opacity:1"
             d="M 0,0 1.753,2.771 1.819,2.746 C 2.361,2.287 3.063,2.01 3.829,2.01 c 1.647,0 2.993,1.278 3.106,2.895 0.078,0.13 0.32,0.108 1.563,0.107 h 0.109 0.005 0.11 c 1.242,0.001 1.484,0.023 1.563,-0.107 0.111,-1.617 1.459,-2.895 3.106,-2.895 0.765,0 1.466,0.277 2.009,0.736 L 15.467,2.771 17.22,0 c -1.808,-0.702 -2.951,-1.771 -2.951,-4.541 0,-2.769 1.012,-4.053 3.205,-5.143 l -1.83,-3.024 c -2.748,1.43 -5.607,-0.153 -7.032,-2.278 l -0.003,0.004 -0.002,-0.004 c -1.424,2.125 -4.283,3.708 -7.031,2.278 l -1.83,3.024 c 2.192,1.09 3.205,2.374 3.205,5.143 C 2.951,-1.771 1.808,-0.702 0,0 Z"
             inkscape:connector-curvature="0" /></g></g></g></g></svg>