<?xml version="1.0" encoding="UTF-8" standalone="no"?>
<svg
   xmlns:dc="http://purl.org/dc/elements/1.1/"
   xmlns:cc="http://creativecommons.org/ns#"
   xmlns:rdf="http://www.w3.org/1999/02/22-rdf-syntax-ns#"
   xmlns:svg="http://www.w3.org/2000/svg"
   xmlns="http://www.w3.org/2000/svg"
   xmlns:sodipodi="http://sodipodi.sourceforge.net/DTD/sodipodi-0.dtd"
   xmlns:inkscape="http://www.inkscape.org/namespaces/inkscape"
   viewBox="0 0 28 24.255068"
   height="24.255068"
   width="28"
   xml:space="preserve"
   id="svg2"
   version="1.1"
   sodipodi:docname="makita.svg"
   inkscape:version="0.92.4 (5da689c313, 2019-01-14)"><sodipodi:namedview
     pagecolor="#ffffff"
     bordercolor="#666666"
     borderopacity="1"
     objecttolerance="10"
     gridtolerance="10"
     guidetolerance="10"
     inkscape:pageopacity="0"
     inkscape:pageshadow="2"
     inkscape:window-width="716"
     inkscape:window-height="480"
     id="namedview12"
     showgrid="false"
     inkscape:zoom="9.7299254"
     inkscape:cx="14"
     inkscape:cy="12.127534"
     inkscape:window-x="0"
     inkscape:window-y="0"
     inkscape:window-maximized="0"
     inkscape:current-layer="svg2" /><metadata
     id="metadata8"><rdf:RDF><cc:Work
         rdf:about=""><dc:format>image/svg+xml</dc:format><dc:type
           rdf:resource="http://purl.org/dc/dcmitype/StillImage" /></cc:Work></rdf:RDF></metadata><defs
     id="defs6"><clipPath
       id="clipPath18"
       clipPathUnits="userSpaceOnUse"><path
         id="path16"
         d="M 0,18.191 H 21 V 0 H 0 Z" /></clipPath></defs><g
     transform="matrix(1.3333333,0,0,-1.3333333,0,24.255067)"
     id="g10"
     style="stroke:#000000;stroke-opacity:1"><g
       id="g12"
       style="stroke:#000000;stroke-opacity:1"><g
         clip-path="url(#clipPath18)"
         id="g14"
         style="stroke:#000000;stroke-opacity:1"><g
           transform="translate(5.2633,13.848)"
           id="g20"
           style="stroke:#000000;stroke-opacity:1"><path
             id="path22"
             style="fill:none;stroke:#000000;stroke-width:1;stroke-linecap:round;stroke-linejoin:round;stroke-miterlimit:22.9260006;stroke-dasharray:none;stroke-opacity:1"
             d="M 0,0 1.318,1.805 M -2.201,0 -0.883,1.805 M 11.886,0.769 h 3.35 M -3.452,-10.03 c -0.454,0 -0.711,0.5 -0.566,0.937 l 1.552,4.808 c 0.212,0.66 -0.23,1.537 -0.835,1.912 -0.627,0.39 -1.358,0.586 -1.358,1.302 v 3.613 c 0,0.716 0.611,1.301 1.358,1.301 h 11.17 c 0.747,0 1.359,-0.587 1.359,-1.301 v -3.613 c 0,-0.715 -0.614,-1.302 -1.359,-1.302 H 4.302 c -0.683,0 -1.311,-0.7 -1.517,-1.323 C 2.611,-4.221 1.492,-6.893 1.492,-7.553 1.492,-8.377 1.98,-9.519 2.694,-9.874 2.638,-9.883 2.584,-9.888 2.537,-9.888 M 9.642,3 h 1.013 c 0.039,0 1.231,-1.136 1.231,-1.452 V -0.01 c 0,-0.316 -1.193,-1.452 -1.231,-1.452 H 9.642 m -14.016,-8.686 h 8.881 c 0.215,0 0.389,-0.171 0.389,-0.373 v -2.454 c 0,-0.203 -0.177,-0.373 -0.389,-0.373 h -8.881 c -0.211,0 -0.39,0.168 -0.39,0.373 v 2.454 c 0,0.205 0.176,0.373 0.39,0.373 z m 8.872,7.42 C 4.146,-3.511 4.688,-4.626 4.824,-4.99 H 2.74"
             inkscape:connector-curvature="0" /></g></g></g></g></svg>