<?xml version="1.0" encoding="UTF-8" standalone="no"?>
<svg
   xmlns:dc="http://purl.org/dc/elements/1.1/"
   xmlns:cc="http://creativecommons.org/ns#"
   xmlns:rdf="http://www.w3.org/1999/02/22-rdf-syntax-ns#"
   xmlns:svg="http://www.w3.org/2000/svg"
   xmlns="http://www.w3.org/2000/svg"
   xmlns:sodipodi="http://sodipodi.sourceforge.net/DTD/sodipodi-0.dtd"
   xmlns:inkscape="http://www.inkscape.org/namespaces/inkscape"
   viewBox="0 0 27.867599 28"
   height="28"
   width="27.867599"
   xml:space="preserve"
   id="svg2"
   version="1.1"
   sodipodi:docname="malyar.svg"
   inkscape:version="0.92.4 (5da689c313, 2019-01-14)"><sodipodi:namedview
     pagecolor="#ffffff"
     bordercolor="#666666"
     borderopacity="1"
     objecttolerance="10"
     gridtolerance="10"
     guidetolerance="10"
     inkscape:pageopacity="0"
     inkscape:pageshadow="2"
     inkscape:window-width="716"
     inkscape:window-height="480"
     id="namedview14"
     showgrid="false"
     inkscape:zoom="8.4285714"
     inkscape:cx="13.9338"
     inkscape:cy="14"
     inkscape:window-x="0"
     inkscape:window-y="0"
     inkscape:window-maximized="0"
     inkscape:current-layer="svg2" /><metadata
     id="metadata8"><rdf:RDF><cc:Work
         rdf:about=""><dc:format>image/svg+xml</dc:format><dc:type
           rdf:resource="http://purl.org/dc/dcmitype/StillImage" /></cc:Work></rdf:RDF></metadata><defs
     id="defs6"><clipPath
       id="clipPath18"
       clipPathUnits="userSpaceOnUse"><path
         id="path16"
         d="M 0,21 H 20.901 V 0 H 0 Z" /></clipPath></defs><g
     transform="matrix(1.3333333,0,0,-1.3333333,0,28)"
     id="g10"
     style="stroke:#000000;stroke-opacity:1"><g
       id="g12"
       style="stroke:#000000;stroke-opacity:1"><g
         clip-path="url(#clipPath18)"
         id="g14"
         style="stroke:#000000;stroke-opacity:1"><g
           transform="translate(19.0412,9.0459)"
           id="g20"
           style="stroke:#000000;stroke-opacity:1"><path
             id="path22"
             style="fill:none;stroke:#000000;stroke-width:1;stroke-linecap:round;stroke-linejoin:round;stroke-miterlimit:22.9260006;stroke-dasharray:none;stroke-opacity:1"
             d="m 0,0 1.199,-1.199 c 0.214,-0.214 0.215,-0.562 0,-0.777 l -2.452,-2.451 c -0.144,-0.171 -0.384,-0.244 -0.606,-0.165 l -8.875,3.873 -1.226,-1.247 m 0.388,-0.388 0.614,-0.614 c 0.223,-0.223 0.222,-0.59 0,-0.811 l -4.6,-4.601 c -0.221,-0.222 -0.59,-0.222 -0.812,0 l -2.005,2.005 c -0.221,0.222 -0.223,0.588 0,0.812 l 4.601,4.6 c 0.223,0.223 0.588,0.223 0.812,0 l 0.613,-0.614 z"
             inkscape:connector-curvature="0" /></g><g
           transform="translate(19.7092,11.2227)"
           id="g24"
           style="stroke:#000000;stroke-opacity:1"><path
             id="path26"
             style="fill:none;stroke:#000000;stroke-width:1;stroke-linecap:round;stroke-linejoin:round;stroke-miterlimit:22.9260006;stroke-dasharray:none;stroke-opacity:1"
             d="m 0,0 -9.128,9.129 c -0.199,0.198 -0.527,0.198 -0.726,0 l -2.971,-2.972 c -0.198,-0.199 -0.199,-0.526 0,-0.725 l 9.128,-9.128 c 0.2,-0.2 0.526,-0.2 0.726,0 L 0,-0.725 c 0.199,0.2 0.199,0.527 0,0.725 z"
             inkscape:connector-curvature="0" /></g></g></g></g></svg>