<?xml version="1.0" encoding="UTF-8" standalone="no"?>
<svg
   xmlns:dc="http://purl.org/dc/elements/1.1/"
   xmlns:cc="http://creativecommons.org/ns#"
   xmlns:rdf="http://www.w3.org/1999/02/22-rdf-syntax-ns#"
   xmlns:svg="http://www.w3.org/2000/svg"
   xmlns="http://www.w3.org/2000/svg"
   xmlns:sodipodi="http://sodipodi.sourceforge.net/DTD/sodipodi-0.dtd"
   xmlns:inkscape="http://www.inkscape.org/namespaces/inkscape"
   viewBox="0 0 25.808933 28"
   height="28"
   width="25.808933"
   xml:space="preserve"
   id="svg2"
   version="1.1"
   sodipodi:docname="specodezhda.svg"
   inkscape:version="0.92.4 (5da689c313, 2019-01-14)"><sodipodi:namedview
     pagecolor="#ffffff"
     bordercolor="#666666"
     borderopacity="1"
     objecttolerance="10"
     gridtolerance="10"
     guidetolerance="10"
     inkscape:pageopacity="0"
     inkscape:pageshadow="2"
     inkscape:window-width="716"
     inkscape:window-height="480"
     id="namedview26"
     showgrid="false"
     inkscape:zoom="8.4285714"
     inkscape:cx="12.904467"
     inkscape:cy="14"
     inkscape:window-x="0"
     inkscape:window-y="0"
     inkscape:window-maximized="0"
     inkscape:current-layer="svg2" /><metadata
     id="metadata8"><rdf:RDF><cc:Work
         rdf:about=""><dc:format>image/svg+xml</dc:format><dc:type
           rdf:resource="http://purl.org/dc/dcmitype/StillImage" /></cc:Work></rdf:RDF></metadata><defs
     id="defs6"><clipPath
       id="clipPath18"
       clipPathUnits="userSpaceOnUse"><path
         id="path16"
         d="M 0,21 H 19.357 V 0 H 0 Z" /></clipPath></defs><g
     transform="matrix(1.3333333,0,0,-1.3333333,0,28)"
     id="g10"
     style="stroke:#000000;stroke-opacity:1"><g
       id="g12"
       style="stroke:#000000;stroke-opacity:1"><g
         clip-path="url(#clipPath18)"
         id="g14"
         style="stroke:#000000;stroke-opacity:1"><g
           transform="translate(13.4423,14.1664)"
           id="g20"
           style="stroke:#000000;stroke-opacity:1"><path
             id="path22"
             style="fill:none;stroke:#000000;stroke-width:1;stroke-linecap:round;stroke-linejoin:round;stroke-miterlimit:22.9260006;stroke-dasharray:none;stroke-opacity:1"
             d="m 0,0 c -0.007,-3.039 -1.689,-5.498 -3.764,-5.498 -2.075,0 -3.757,2.459 -3.764,5.498"
             inkscape:connector-curvature="0" /></g><g
           transform="translate(14.8642,15.329)"
           id="g24"
           style="stroke:#000000;stroke-opacity:1"><path
             id="path26"
             style="fill:none;stroke:#000000;stroke-width:1;stroke-linecap:round;stroke-linejoin:round;stroke-miterlimit:22.9260006;stroke-dasharray:none;stroke-opacity:1"
             d="m 0,0 v -0.01 c 0,-0.021 -0.005,-0.042 -0.016,-0.062 -0.2,-0.428 -2.29,-0.706 -4.903,-0.723 v 0 c -0.178,-0.001 -0.356,-0.001 -0.534,0 v 0 c -2.614,0.017 -4.703,0.295 -4.903,0.723 -0.011,0.02 -0.017,0.041 -0.017,0.062 L -10.372,0 c -0.01,0.472 0.392,0.79 1.04,0.767 v 0.597 c 0,5.088 8.292,5.065 8.292,0 V 0.767 C -0.392,0.79 0.01,0.472 0,0 Z"
             inkscape:connector-curvature="0" /></g><g
           transform="translate(2.5219,6.7831)"
           id="g28"
           style="stroke:#000000;stroke-opacity:1"><path
             id="path30"
             style="fill:none;stroke:#000000;stroke-width:1;stroke-linecap:round;stroke-linejoin:round;stroke-miterlimit:22.9260006;stroke-dasharray:none;stroke-opacity:1"
             d="m 0,0 1.114,0.483 0.242,-6.766 h -3.378 l 0.655,4.916 c 0.05,0.373 0.205,0.716 0.439,0.963 C -0.694,-0.157 -0.345,-0.149 0,0 Z"
             inkscape:connector-curvature="0" /></g><g
           transform="translate(15.6567,7.266)"
           id="g32"
           style="stroke:#000000;stroke-opacity:1"><path
             id="path34"
             style="fill:none;stroke:#000000;stroke-width:1;stroke-linecap:round;stroke-linejoin:round;stroke-miterlimit:22.9260006;stroke-dasharray:none;stroke-opacity:1"
             d="M 0,0 1.178,-0.483 C 1.873,-0.767 2.446,-1.11 2.545,-1.85 L 3.2,-6.766 h -3.443 z"
             inkscape:connector-curvature="0" /></g><g
           transform="translate(4.0131,7.4481)"
           id="g36"
           style="stroke:#000000;stroke-opacity:1"><path
             id="path38"
             style="fill:none;stroke:#000000;stroke-width:1;stroke-linecap:round;stroke-linejoin:round;stroke-miterlimit:22.9260006;stroke-dasharray:none;stroke-opacity:1"
             d="M 0,0 1.962,1.028 2.255,-4.175 H 9.076 L 9.368,1.028 11.331,0"
             inkscape:connector-curvature="0" /></g><g
           transform="translate(15.2812,0.4999)"
           id="g40"
           style="stroke:#000000;stroke-opacity:1"><path
             id="path42"
             style="fill:none;stroke:#000000;stroke-width:1;stroke-linecap:round;stroke-linejoin:round;stroke-miterlimit:22.9260006;stroke-dasharray:none;stroke-opacity:1"
             d="M 0,0 H -11.206"
             inkscape:connector-curvature="0" /></g><g
           transform="translate(8.7543,20.4023)"
           id="g44"
           style="stroke:#000000;stroke-opacity:1"><path
             id="path46"
             style="fill:none;stroke:#000000;stroke-width:1;stroke-linecap:round;stroke-linejoin:round;stroke-miterlimit:22.9260006;stroke-dasharray:none;stroke-opacity:1"
             d="M 0,0 V -2.777"
             inkscape:connector-curvature="0" /></g><g
           transform="translate(10.6606,20.4023)"
           id="g48"
           style="stroke:#000000;stroke-opacity:1"><path
             id="path50"
             style="fill:none;stroke:#000000;stroke-width:1;stroke-linecap:round;stroke-linejoin:round;stroke-miterlimit:22.9260006;stroke-dasharray:none;stroke-opacity:1"
             d="M 0,0 V -2.777"
             inkscape:connector-curvature="0" /></g></g></g></g></svg>