<?xml version="1.0" encoding="UTF-8" standalone="no"?>
<svg
   xmlns:dc="http://purl.org/dc/elements/1.1/"
   xmlns:cc="http://creativecommons.org/ns#"
   xmlns:rdf="http://www.w3.org/1999/02/22-rdf-syntax-ns#"
   xmlns:svg="http://www.w3.org/2000/svg"
   xmlns="http://www.w3.org/2000/svg"
   xmlns:sodipodi="http://sodipodi.sourceforge.net/DTD/sodipodi-0.dtd"
   xmlns:inkscape="http://www.inkscape.org/namespaces/inkscape"
   viewBox="0 0 27.254267 28"
   height="28"
   width="27.254267"
   xml:space="preserve"
   id="svg2"
   version="1.1"
   sodipodi:docname="svetilninki.svg"
   inkscape:version="0.92.4 (5da689c313, 2019-01-14)"><sodipodi:namedview
     pagecolor="#ffffff"
     bordercolor="#666666"
     borderopacity="1"
     objecttolerance="10"
     gridtolerance="10"
     guidetolerance="10"
     inkscape:pageopacity="0"
     inkscape:pageshadow="2"
     inkscape:window-width="716"
     inkscape:window-height="480"
     id="namedview24"
     showgrid="false"
     inkscape:zoom="8.4285714"
     inkscape:cx="13.627133"
     inkscape:cy="14"
     inkscape:window-x="0"
     inkscape:window-y="0"
     inkscape:window-maximized="0"
     inkscape:current-layer="svg2" /><metadata
     id="metadata8"><rdf:RDF><cc:Work
         rdf:about=""><dc:format>image/svg+xml</dc:format><dc:type
           rdf:resource="http://purl.org/dc/dcmitype/StillImage" /></cc:Work></rdf:RDF></metadata><defs
     id="defs6"><clipPath
       id="clipPath18"
       clipPathUnits="userSpaceOnUse"><path
         id="path16"
         d="M 0,21 H 20.441 V 0 H 0 Z" /></clipPath></defs><g
     transform="matrix(1.3333333,0,0,-1.3333333,0,28)"
     id="g10"
     style="stroke:#000000;stroke-opacity:1"><g
       id="g12"
       style="stroke:#000000;stroke-opacity:1"><g
         clip-path="url(#clipPath18)"
         id="g14"
         style="stroke:#000000;stroke-opacity:1"><g
           transform="translate(11.3646,2.2642)"
           id="g20"
           style="stroke:#000000;stroke-opacity:1"><path
             id="path22"
             style="fill:none;stroke:#000000;stroke-width:1;stroke-linecap:round;stroke-linejoin:round;stroke-miterlimit:22.9260006;stroke-dasharray:none;stroke-opacity:1"
             d="M 0,0 C 0.375,0 0.682,-0.396 0.682,-0.882 0.682,-1.367 0.374,-1.765 0,-1.765 h -10.183 c -0.374,0 -0.682,0.398 -0.682,0.883 0,0.486 0.307,0.882 0.682,0.882 z"
             inkscape:connector-curvature="0" /></g><g
           transform="translate(13.1967,17.2876)"
           id="g24"
           style="stroke:#000000;stroke-opacity:1"><path
             id="path26"
             style="fill:none;stroke:#000000;stroke-width:1;stroke-linecap:round;stroke-linejoin:round;stroke-miterlimit:22.9260006;stroke-dasharray:none;stroke-opacity:1"
             d="m 0,0 -2.909,-1.68 c -1.894,-1.093 -2.056,-4.391 -0.36,-7.33 l 0.216,-0.373 9.797,5.656 -0.215,0.373 C 4.832,-0.415 1.895,1.094 0,0 Z"
             inkscape:connector-curvature="0" /></g><g
           transform="translate(10.2997,20.3931)"
           id="g28"
           style="stroke:#000000;stroke-opacity:1"><path
             id="path30"
             style="fill:none;stroke:#000000;stroke-width:1;stroke-linecap:round;stroke-linejoin:round;stroke-miterlimit:22.9260006;stroke-dasharray:none;stroke-opacity:1"
             d="m 0,0 -1.252,-0.724 c -0.816,-0.47 -0.613,-2.363 0.451,-4.205 l 0.135,-0.234 4.218,2.435 -0.135,0.235 C 2.353,-0.651 0.816,0.47 0,0 Z"
             inkscape:connector-curvature="0" /></g><g
           transform="translate(2.2084,14.1802)"
           id="g32"
           style="stroke:#000000;stroke-opacity:1"><path
             id="path34"
             style="fill:none;stroke:#000000;stroke-width:1;stroke-linecap:round;stroke-linejoin:round;stroke-miterlimit:22.9260006;stroke-dasharray:none;stroke-opacity:1"
             d="m 0,0 c -0.944,0 -1.708,-0.765 -1.708,-1.709 0,-0.942 0.764,-1.707 1.708,-1.707 0.943,0 1.708,0.765 1.708,1.707 C 1.708,-0.765 0.943,0 0,0 Z"
             inkscape:connector-curvature="0" /></g><g
           transform="translate(8.826,16.9439)"
           id="g36"
           style="stroke:#000000;stroke-opacity:1"><path
             id="path38"
             style="fill:none;stroke:#000000;stroke-width:1;stroke-linecap:round;stroke-linejoin:round;stroke-miterlimit:22.9260006;stroke-dasharray:none;stroke-opacity:1"
             d="M 0,0 -5.41,-3.264"
             inkscape:connector-curvature="0" /></g><g
           transform="translate(3.0956,10.8218)"
           id="g40"
           style="stroke:#000000;stroke-opacity:1"><path
             id="path42"
             style="fill:none;stroke:#000000;stroke-width:1;stroke-linecap:round;stroke-linejoin:round;stroke-miterlimit:22.9260006;stroke-dasharray:none;stroke-opacity:1"
             d="M 0,0 3.18,-8.452"
             inkscape:connector-curvature="0" /></g><g
           transform="translate(17.6239,11.8237)"
           id="g44"
           style="stroke:#000000;stroke-opacity:1"><path
             id="path46"
             style="fill:none;stroke:#000000;stroke-width:1;stroke-linecap:round;stroke-linejoin:round;stroke-miterlimit:22.9260006;stroke-dasharray:none;stroke-opacity:1"
             d="m 0,0 c 0.042,-0.204 0.064,-0.416 0.064,-0.633 0,-0.433 -0.088,-0.846 -0.247,-1.222 -0.158,-0.376 -0.389,-0.714 -0.673,-0.999 -0.284,-0.284 -0.623,-0.514 -0.998,-0.672 -0.376,-0.16 -0.789,-0.247 -1.223,-0.247 -0.217,0 -0.428,0.022 -0.633,0.063 -0.205,0.042 -0.402,0.104 -0.59,0.184 -0.094,0.039 -0.185,0.084 -0.274,0.131 -0.089,0.049 -0.176,0.102 -0.259,0.158 -0.084,0.056 -0.164,0.117 -0.242,0.181"
             inkscape:connector-curvature="0" /></g></g></g></g></svg>