<?xml version="1.0" encoding="UTF-8" standalone="no"?>
<svg
   xmlns:dc="http://purl.org/dc/elements/1.1/"
   xmlns:cc="http://creativecommons.org/ns#"
   xmlns:rdf="http://www.w3.org/1999/02/22-rdf-syntax-ns#"
   xmlns:svg="http://www.w3.org/2000/svg"
   xmlns="http://www.w3.org/2000/svg"
   xmlns:sodipodi="http://sodipodi.sourceforge.net/DTD/sodipodi-0.dtd"
   xmlns:inkscape="http://www.inkscape.org/namespaces/inkscape"
   viewBox="0 0 28 28.000134"
   height="28.000134"
   width="28"
   xml:space="preserve"
   id="svg2"
   version="1.1"
   sodipodi:docname="ventilation.svg"
   inkscape:version="0.92.4 (5da689c313, 2019-01-14)"><sodipodi:namedview
     pagecolor="#ffffff"
     bordercolor="#666666"
     borderopacity="1"
     objecttolerance="10"
     gridtolerance="10"
     guidetolerance="10"
     inkscape:pageopacity="0"
     inkscape:pageshadow="2"
     inkscape:window-width="1920"
     inkscape:window-height="1017"
     id="namedview22"
     showgrid="false"
     inkscape:zoom="8.4285312"
     inkscape:cx="14"
     inkscape:cy="14.000067"
     inkscape:window-x="1352"
     inkscape:window-y="-8"
     inkscape:window-maximized="1"
     inkscape:current-layer="g10" /><metadata
     id="metadata8"><rdf:RDF><cc:Work
         rdf:about=""><dc:format>image/svg+xml</dc:format><dc:type
           rdf:resource="http://purl.org/dc/dcmitype/StillImage" /></cc:Work></rdf:RDF></metadata><defs
     id="defs6"><clipPath
       id="clipPath18"
       clipPathUnits="userSpaceOnUse"><path
         id="path16"
         d="M 0,21 H 21 V 0 H 0 Z" /></clipPath></defs><g
     transform="matrix(1.3333333,0,0,-1.3333333,0,28.000133)"
     id="g10"><g
       id="g12"
       style="stroke:#000000;stroke-opacity:1"><g
         clip-path="url(#clipPath18)"
         id="g14"
         style="stroke:#000000;stroke-opacity:1"><g
           transform="translate(11.9759,12.0682)"
           id="g20"
           style="stroke:#000000;stroke-opacity:1"><path
             id="path22"
             style="fill:none;stroke:#000000;stroke-width:1;stroke-linecap:round;stroke-linejoin:round;stroke-miterlimit:22.9260006;stroke-dasharray:none;stroke-opacity:1"
             d="m 0,0 c 1.277,1.097 2.707,1.829 4.154,1.937 2.997,0.223 2.992,-4.2 2.202,-6.226 -0.68,-1.744 -2.019,-4 -3.283,-4.068 -0.614,-0.033 -1.866,0.368 -1.704,1.753 0.203,1.738 -0.693,2.649 -1.491,3.361"
             inkscape:connector-curvature="0" /></g><g
           transform="translate(11.0877,8.4275)"
           id="g24"
           style="stroke:#000000;stroke-opacity:1"><path
             id="path26"
             style="fill:none;stroke:#000000;stroke-width:1;stroke-linecap:round;stroke-linejoin:round;stroke-miterlimit:22.9260006;stroke-dasharray:none;stroke-opacity:1"
             d="m 0,0 c 0.367,-1.742 0.311,-3.44 -0.351,-4.812 -1.306,-2.707 -5.133,-0.491 -6.492,1.206 -1.171,1.461 -2.455,3.749 -1.882,4.877 0.278,0.547 1.251,1.432 2.371,0.6 1.419,-1.059 2.669,-0.717 3.692,-0.379"
             inkscape:connector-curvature="0" /></g><g
           transform="translate(8.3665,10.7913)"
           id="g28"
           style="stroke:#000000;stroke-opacity:1"><path
             id="path30"
             style="fill:none;stroke:#000000;stroke-width:1;stroke-linecap:round;stroke-linejoin:round;stroke-miterlimit:22.9260006;stroke-dasharray:none;stroke-opacity:1"
             d="M 0,0 C -1.666,0.554 -3.083,1.445 -3.931,2.69 -5.622,5.174 -1.79,7.38 0.36,7.709 2.21,7.992 4.834,7.96 5.525,6.9 5.859,6.385 6.139,5.1 4.859,4.548 3.353,3.899 2.958,2.777 2.736,1.776"
             inkscape:connector-curvature="0" /></g><g
           transform="translate(10.4998,20.5003)"
           id="g32"
           style="stroke:#000000;stroke-opacity:1"><path
             id="path34"
             style="fill:none;stroke:#000000;stroke-width:1;stroke-linecap:round;stroke-linejoin:round;stroke-miterlimit:22.9260006;stroke-dasharray:none;stroke-opacity:1"
             d="M 0,0 C 2.762,0 5.262,-1.12 7.071,-2.929 8.881,-4.739 10,-7.239 10,-10 10,-12.762 8.881,-15.262 7.071,-17.071 5.262,-18.881 2.762,-20 0,-20 c -2.761,0 -5.261,1.119 -7.071,2.929 C -8.88,-15.262 -10,-12.762 -10,-10 c 0,2.761 1.12,5.261 2.929,7.071 C -5.261,-1.12 -2.761,0 0,0 Z"
             inkscape:connector-curvature="0" /></g><g
           transform="translate(10.4998,11.0203)"
           id="g36"
           style="stroke:#000000;stroke-opacity:1"><path
             id="path38"
             style="fill:none;stroke:#000000;stroke-width:1;stroke-linecap:round;stroke-linejoin:round;stroke-miterlimit:22.9260006;stroke-dasharray:none;stroke-opacity:1"
             d="m 0,0 c 0.288,0 0.521,-0.233 0.521,-0.521 0,-0.287 -0.233,-0.52 -0.521,-0.52 -0.287,0 -0.52,0.233 -0.52,0.52 C -0.52,-0.233 -0.287,0 0,0 Z"
             inkscape:connector-curvature="0" /></g><g
           transform="translate(10.4998,12.6531)"
           id="g40"
           style="stroke:#000000;stroke-opacity:1"><path
             id="path42"
             style="fill:none;stroke:#000000;stroke-width:1;stroke-linecap:round;stroke-linejoin:round;stroke-miterlimit:22.9260006;stroke-dasharray:none;stroke-opacity:1"
             d="m 0,0 c 1.189,0 2.154,-0.964 2.154,-2.154 0,-1.189 -0.965,-2.153 -2.154,-2.153 -1.189,0 -2.153,0.964 -2.153,2.153 C -2.153,-0.964 -1.189,0 0,0 Z"
             inkscape:connector-curvature="0" /></g></g></g></g></svg>