<?xml version="1.0" encoding="UTF-8" standalone="no"?>
<svg
   xmlns:dc="http://purl.org/dc/elements/1.1/"
   xmlns:cc="http://creativecommons.org/ns#"
   xmlns:rdf="http://www.w3.org/1999/02/22-rdf-syntax-ns#"
   xmlns:svg="http://www.w3.org/2000/svg"
   xmlns="http://www.w3.org/2000/svg"
   xmlns:sodipodi="http://sodipodi.sourceforge.net/DTD/sodipodi-0.dtd"
   xmlns:inkscape="http://www.inkscape.org/namespaces/inkscape"
   viewBox="0 0 648.94135 281.00534"
   height="281.00534"
   width="648.94135"
   xml:space="preserve"
   id="svg2"
   version="1.1"
   sodipodi:docname="404.svg"
   inkscape:version="0.92.4 (5da689c313, 2019-01-14)"><sodipodi:namedview
     pagecolor="#ffffff"
     bordercolor="#666666"
     borderopacity="1"
     objecttolerance="10"
     gridtolerance="10"
     guidetolerance="10"
     inkscape:pageopacity="0"
     inkscape:pageshadow="2"
     inkscape:window-width="1920"
     inkscape:window-height="1017"
     id="namedview22"
     showgrid="false"
     inkscape:zoom="0.5855691"
     inkscape:cx="324.47067"
     inkscape:cy="140.50267"
     inkscape:window-x="1352"
     inkscape:window-y="-8"
     inkscape:window-maximized="1"
     inkscape:current-layer="svg2" /><metadata
     id="metadata8"><rdf:RDF><cc:Work
         rdf:about=""><dc:format>image/svg+xml</dc:format><dc:type
           rdf:resource="http://purl.org/dc/dcmitype/StillImage" /></cc:Work></rdf:RDF></metadata><defs
     id="defs6"><clipPath
       id="clipPath22"
       clipPathUnits="userSpaceOnUse"><path
         id="path20"
         d="M 0,210.754 H 486.706 V 0 H 0 Z" /></clipPath></defs><g
     transform="matrix(1.3333333,0,0,-1.3333333,0,281.00533)"
     id="g10"><g
       id="g16"><g
         clip-path="url(#clipPath22)"
         id="g18"><g
           transform="translate(463.2563,2.2881)"
           id="g28"><path
             id="path30"
             style="fill:#ffc000;fill-opacity:1;fill-rule:nonzero;stroke:none"
             d="m 0,0 h -42.896 v 42.896 h -90.938 v 32.028 l 71.492,125.254 h 49.187 L -78.642,85.791 h 35.746 v 42.895 H 0 V 85.791 H 23.449 V 42.896 H 0 Z m -237.9243,100.0889 c 0,-41.563 8.007,-62.341 24.021,-62.341 8.195,0 14.058,4.669 17.587,14.013 3.526,9.338 5.291,25.451 5.291,48.328 0,22.878 -1.765,38.986 -5.291,48.329 -3.529,9.338 -9.579,14.012 -18.158,14.012 -8.2,0 -14.156,-4.817 -17.873,-14.441 -3.718,-9.629 -5.577,-25.594 -5.577,-47.9 m -27.882,-75.353 c -11.917,18.016 -17.873,43.132 -17.873,75.353 0,32.216 5.813,57.288 17.444,75.21 11.819,18.11 29.071,27.167 51.761,27.167 22.493,0 39.651,-9.057 51.473,-27.167 11.819,-18.114 17.731,-43.181 17.731,-75.21 0,-32.412 -5.819,-57.578 -17.444,-75.495 -11.63,-17.923 -28.695,-26.882 -51.189,-26.882 -22.689,0 -39.99,9.009 -51.903,27.024 M -321.4233,0 h -42.895 v 42.896 h -90.938 v 32.028 l 71.492,125.254 h 49.187 l -65.487,-114.387 h 35.746 v 42.895 h 42.895 V 85.791 h 23.45 V 42.896 h -23.45 z"
             inkscape:connector-curvature="0" /></g><g
           transform="translate(457.2563,6.2881)"
           id="g40"
           style="fill:none;fill-opacity:1"><path
             id="path42"
             style="display:inline;fill:none;fill-opacity:1;stroke:#000000;stroke-width:4;stroke-linecap:round;stroke-linejoin:round;stroke-miterlimit:10;stroke-dasharray:none;stroke-opacity:1"
             d="m 0,0 h -42.896 v 42.896 h -90.938 v 32.028 l 71.492,125.254 h 49.187 L -78.642,85.791 h 35.746 v 42.895 H 0 V 85.791 H 23.449 V 42.896 H 0 Z m -237.9243,100.0889 c 0,-41.563 8.007,-62.341 24.021,-62.341 8.195,0 14.058,4.669 17.587,14.013 3.526,9.338 5.291,25.451 5.291,48.328 0,22.878 -1.765,38.986 -5.291,48.329 -3.529,9.338 -9.579,14.012 -18.158,14.012 -8.2,0 -14.156,-4.817 -17.873,-14.441 -3.718,-9.629 -5.577,-25.594 -5.577,-47.9 z m -27.882,-75.353 c -11.917,18.016 -17.873,43.132 -17.873,75.353 0,32.216 5.813,57.288 17.444,75.21 11.819,18.11 29.071,27.167 51.761,27.167 22.493,0 39.651,-9.057 51.473,-27.167 11.819,-18.114 17.731,-43.181 17.731,-75.21 0,-32.412 -5.819,-57.578 -17.444,-75.495 -11.63,-17.923 -28.695,-26.882 -51.189,-26.882 -22.689,0 -39.99,9.009 -51.903,27.024 z M -321.4233,0 h -42.895 v 42.896 h -90.938 v 32.028 l 71.492,125.254 h 49.187 l -65.487,-114.387 h 35.746 v 42.895 h 42.895 V 85.791 h 23.45 V 42.896 h -23.45 z"
             inkscape:connector-curvature="0" /></g></g></g></g></svg>