<?xml version="1.0" encoding="UTF-8" standalone="no"?>
<svg
   xmlns:dc="http://purl.org/dc/elements/1.1/"
   xmlns:cc="http://creativecommons.org/ns#"
   xmlns:rdf="http://www.w3.org/1999/02/22-rdf-syntax-ns#"
   xmlns:svg="http://www.w3.org/2000/svg"
   xmlns="http://www.w3.org/2000/svg"
   viewBox="0 0 639.94666 642.66534"
   height="642.66534"
   width="639.94666"
   xml:space="preserve"
   id="svg2"
   version="1.1"><metadata
     id="metadata8"><rdf:RDF><cc:Work
         rdf:about=""><dc:format>image/svg+xml</dc:format><dc:type
           rdf:resource="http://purl.org/dc/dcmitype/StillImage" /></cc:Work></rdf:RDF></metadata><defs
     id="defs6" /><g
     transform="matrix(1.3333333,0,0,-1.3333333,0,642.66533)"
     id="g10"><g
       transform="translate(55.9952,332.3706)"
       id="g12"><path
         id="path14"
         style="fill:#ffc000;fill-opacity:1;fill-rule:nonzero;stroke:none"
         d="M 0,0 -47.996,-36.395 0,-72.794 Z" /></g><g
       transform="translate(239.9801,471.961)"
       id="g16"><path
         id="path18"
         style="fill:#ffc000;fill-opacity:1;fill-rule:nonzero;stroke:none"
         d="M 0,0 -52.714,-39.997 H 52.715 Z" /></g><g
       transform="translate(282.1442,151.9795)"
       id="g20"><path
         id="path22"
         style="fill:#ffc000;fill-opacity:1;fill-rule:nonzero;stroke:none"
         d="M 0,0 189.816,-143.98 V 143.996 L 141.82,107.597 Z" /></g><g
       transform="translate(471.9606,295.9756)"
       id="g24"><path
         id="path26"
         style="fill:#ffc000;fill-opacity:1;fill-rule:nonzero;stroke:none"
         d="M 0,0 -47.996,36.395 V -36.399 Z" /></g><g
       transform="translate(55.9952,259.5762)"
       id="g28"><path
         id="path30"
         style="fill:#ffc000;fill-opacity:1;fill-rule:nonzero;stroke:none"
         d="m 0,0 -47.996,36.399 v -287.976 l 189.816,143.98 z" /></g><g
       transform="translate(282.1442,151.9795)"
       id="g32"><path
         id="path34"
         style="fill:#ffc000;fill-opacity:1;fill-rule:nonzero;stroke:none"
         d="M 0,0 -42.164,-31.989 -84.329,0 -274.145,-143.98 h 463.961 z" /></g><path
       id="path36"
       style="fill:#ffc000;fill-opacity:1;fill-rule:nonzero;stroke:none"
       d="M 103.991,383.968 H 375.968 V 319.973 H 103.991 Z" /><g
       transform="translate(239.9805,481.9986)"
       id="g38"><path
         id="path40"
         style="fill:#000000;fill-opacity:1;fill-rule:nonzero;stroke:none"
         d="M 0,0 -55.41,-42.035 H -191.984 V -145.66 l -47.996,-36.363 v -299.976 h 479.96 v 299.976 l -47.996,36.363 V -42.035 H 55.413 Z M 0,-20.076 28.935,-42.035 H -28.931 Z M -175.986,-218.462 V -58.034 H 175.985 V -218.462 L 0,-351.97 Z m 367.97,52.734 26.759,-20.295 -26.759,-20.303 z m -410.724,-20.295 26.756,20.295 v -40.598 z m 274.145,-143.988 168.576,127.876 v -255.756 z m -279.387,127.876 168.58,-127.876 -168.58,-127.88 z M 42.164,-340.05 208.197,-465.999 H -208.198 L -42.165,-340.05 0,-372.047 Z" /></g><path
       id="path42"
       style="fill:#000000;fill-opacity:1;fill-rule:nonzero;stroke:none"
       d="M 367.969,327.973 H 111.99 v 47.996 h 255.979 z m 15.999,63.994 H 95.991 v -79.993 h 287.977 z" /><path
       id="path44"
       style="fill:#000000;fill-opacity:1;fill-rule:nonzero;stroke:none"
       d="m 111.991,279.977 h 31.997 v -15.999 h -31.997 z" /><path
       id="path46"
       style="fill:#000000;fill-opacity:1;fill-rule:nonzero;stroke:none"
       d="M 159.987,279.977 H 367.969 V 263.978 H 159.987 Z" /><path
       id="path48"
       style="fill:#000000;fill-opacity:1;fill-rule:nonzero;stroke:none"
       d="m 111.991,247.98 h 31.997 v -15.999 h -31.997 z" /><path
       id="path50"
       style="fill:#000000;fill-opacity:1;fill-rule:nonzero;stroke:none"
       d="M 159.987,247.98 H 367.969 V 231.981 H 159.987 Z" /><path
       id="path52"
       style="fill:#000000;fill-opacity:1;fill-rule:nonzero;stroke:none"
       d="M 159.987,215.982 H 319.973 V 199.983 H 159.987 Z" /></g></svg>