<?xml version="1.0" encoding="UTF-8" standalone="no"?>
<svg
   xmlns:dc="http://purl.org/dc/elements/1.1/"
   xmlns:cc="http://creativecommons.org/ns#"
   xmlns:rdf="http://www.w3.org/1999/02/22-rdf-syntax-ns#"
   xmlns:svg="http://www.w3.org/2000/svg"
   xmlns="http://www.w3.org/2000/svg"
   viewBox="0 0 600.66669 670"
   height="670"
   width="636"
   xml:space="preserve"
   id="svg2"
   version="1.1"><metadata
     id="metadata8"><rdf:RDF><cc:Work
         rdf:about=""><dc:format>image/svg+xml</dc:format><dc:type
           rdf:resource="http://purl.org/dc/dcmitype/StillImage" /></cc:Work></rdf:RDF></metadata><defs
     id="defs6"><clipPath
       id="clipPath18"
       clipPathUnits="userSpaceOnUse"><path
         id="path16"
         d="M 0,502.5 H 450.5 V 0 H 0 Z" /></clipPath><clipPath
       id="clipPath26"
       clipPathUnits="userSpaceOnUse"><path
         id="path24"
         d="m 0.25,502.25 h 450 v -502 h -450 z" /></clipPath></defs><g
     transform="matrix(1.3333333,0,0,-1.3333333,0,670)"
     id="g10"><g
       id="g12"><g
         clip-path="url(#clipPath18)"
         id="g14"><g
           id="g20"><g
             id="g22" /><g
             id="g66"><g
               id="g64"
               clip-path="url(#clipPath26)"><g
                 id="g30"
                 transform="translate(415.25,240.25)"><path
                   id="path28"
                   style="fill:#ffffff;fill-opacity:1;fill-rule:nonzero;stroke:none"
                   d="M 0,0 C 13.79,0 25,-11.21 25,-25 25,-38.79 13.79,-50 0,-50 h -50 c -2.76,0 -5,-2.24 -5,-5 0,-2.76 2.24,-5 5,-5 h 30 c 13.79,0 25,-11.21 25,-25 0,-13.79 -11.21,-25 -25,-25 h -50 c -2.76,0 -5,-2.24 -5,-5 0,-2.76 2.24,-5 5,-5 h 30 c 13.79,0 25,-11.21 25,-25 0,-13.79 -11.21,-25 -25,-25 h -50 c -2.76,0 -5,-2.24 -5,-5 0,-2.76 2.24,-5 5,-5 h 30 c 13.79,0 25,-11.21 25,-25 0,-13.79 -11.21,-25 -25,-25 h -107.54 c -44.85,0 -62.32,4.56 -97.13,13.65 -4.92,1.29 -10.48,2.74 -16.57,4.29 l -3.76,0.96 v 3.89 184.19 3.94 l 3.84,0.92 c 41.29,9.83 78.72,25.7 105.4,44.67 33.68,23.95 50.76,52.38 50.76,84.49 v 10 c 0,13.79 11.21,25 25,25 13.76,0 24.97,-11.2 25,-24.96 0,-0.29 0.05,-1.22 0.1,-2.11 C -72.08,68.57 -82.52,33.5 -91.77,12.95 L -93.09,10 H -96.33 -130 c -2.76,0 -5,-2.24 -5,-5 0,-2.76 2.24,-5 5,-5 z" /></g><g
                 id="g34"
                 transform="translate(120.25,25.25)"><path
                   id="path32"
                   style="fill:#000000;fill-opacity:1;fill-rule:nonzero;stroke:none"
                   d="m 0,0 v 200 c 0,8.27 -6.73,15 -15,15 h -90 -5 v -5 -220 -5 h 5 90 c 8.27,0 15,6.73 15,15 m 320,190 c 0,13.79 -11.21,25 -25,25 H 165 c -2.76,0 -5,2.24 -5,5 0,2.76 2.24,5 5,5 h 33.67 3.24 l 1.32,2.95 c 9.25,20.55 19.69,55.62 16.87,105.98 -0.05,0.89 -0.1,1.82 -0.1,2.11 -0.03,13.76 -11.24,24.96 -25,24.96 -13.79,0 -25,-11.21 -25,-25 V 326 C 170,293.89 152.92,265.46 119.24,241.51 92.56,222.54 55.13,206.67 13.84,196.84 L 10,195.92 V 191.98 7.79 3.9 l 3.76,-0.96 c 6.09,-1.55 11.65,-3 16.57,-4.29 C 65.14,-10.44 82.61,-15 127.46,-15 H 235 c 13.79,0 25,11.21 25,25 0,13.79 -11.21,25 -25,25 h -30 c -2.76,0 -5,2.24 -5,5 0,2.76 2.24,5 5,5 h 50 c 13.79,0 25,11.21 25,25 0,13.79 -11.21,25 -25,25 h -30 c -2.76,0 -5,2.24 -5,5 0,2.76 2.24,5 5,5 h 50 c 13.79,0 25,11.21 25,25 0,13.79 -11.21,25 -25,25 h -30 c -2.76,0 -5,2.24 -5,5 0,2.76 2.24,5 5,5 h 50 c 13.79,0 25,11.21 25,25 m 10,0 c 0,-14.86 -9.41,-28.14 -23.42,-33.04 l -6.11,-2.14 3.61,-5.37 c 3.87,-5.77 5.92,-12.49 5.92,-19.45 0,-14.84 -9.39,-28.11 -23.36,-33.02 l -6.06,-2.14 3.56,-5.35 C 287.97,83.74 290,77 290,70 290,55.14 280.59,41.86 266.58,36.96 l -6.11,-2.14 3.61,-5.37 C 267.95,23.68 270,16.96 270,10 270,-9.3 254.3,-25 235,-25 H 127.46 c -46.14,0 -65.15,4.97 -99.66,13.98 -4.36,1.14 -9.07,2.37 -14.16,3.67 L 9.56,-6.3 7.84,-10.15 C 3.81,-19.17 -5.16,-25 -15,-25 h -100 c -2.76,0 -5,2.24 -5,5 v 240 c 0,2.76 2.24,5 5,5 h 100 c 9.93,0 18.92,-5.9 22.92,-15.02 l 1.69,-3.87 4.09,1.02 c 26.45,6.58 64.55,18.8 95.81,39.7 33.5,22.4 50.49,49.03 50.49,79.17 v 10 c 0,19.3 15.7,35 35,35 9.18,0 17.86,-3.55 24.44,-9.99 6.58,-6.43 10.32,-15.02 10.54,-24.17 v -0.29 l 0.05,-0.29 c 0.29,-2.05 0.5,-5.53 0.65,-10.94 0.95,-32.59 -4.51,-66.67 -14.99,-93.5 L 213.03,225 h 7.32 74.65 c 19.3,0 35,-15.7 35,-35" /></g><g
                 id="g38"
                 transform="translate(435.25,376.25)"><path
                   id="path36"
                   style="fill:#000000;fill-opacity:1;fill-rule:nonzero;stroke:none"
                   d="m 0,0 c 2.76,0 5,-2.24 5,-5 0,-2.76 -2.24,-5 -5,-5 h -40 c -2.76,0 -5,2.24 -5,5 0,2.76 2.24,5 5,5 z" /></g><g
                 id="g42"
                 transform="translate(403.6396,459.6401)"><path
                   id="path40"
                   style="fill:#000000;fill-opacity:1;fill-rule:nonzero;stroke:none"
                   d="m 0,0 c 1.94,-1.95 1.95,-5.13 0,-7.08 l -28.279,-28.27 c -0.95,-0.95 -2.2,-1.47 -3.54,-1.47 -1.34,0 -2.59,0.52 -3.531,1.46 -1.95,1.95 -1.95,5.13 -0.009,7.08 L -7.08,-0.01 c 0.95,0.95 2.2,1.47 3.54,1.47 C -2.199,1.46 -0.949,0.94 0,0" /></g><g
                 id="g46"
                 transform="translate(320.25,497.25)"><path
                   id="path44"
                   style="fill:#000000;fill-opacity:1;fill-rule:nonzero;stroke:none"
                   d="m 0,0 v -46 c 0,-2.76 -2.24,-5 -5,-5 -2.76,0 -5,2.24 -5,5 V 0 c 0,2.76 2.24,5 5,5 2.76,0 5,-2.24 5,-5" /></g><g
                 id="g50"
                 transform="translate(262.2197,431.3599)"><path
                   id="path48"
                   style="fill:#000000;fill-opacity:1;fill-rule:nonzero;stroke:none"
                   d="m 0,0 c 1.94,-1.95 1.94,-5.13 0,-7.07 -0.95,-0.95 -2.2,-1.47 -3.54,-1.47 -1.34,0 -2.59,0.52 -3.54,1.46 L -35.359,21.2 c -1.941,1.95 -1.941,5.13 0,7.07 0.949,0.95 2.199,1.47 3.54,1.47 1.34,0 2.59,-0.52 3.54,-1.46 z" /></g><g
                 id="g54"
                 transform="translate(235.25,376.25)"><path
                   id="path52"
                   style="fill:#000000;fill-opacity:1;fill-rule:nonzero;stroke:none"
                   d="m 0,0 c 2.76,0 5,-2.24 5,-5 0,-2.76 -2.24,-5 -5,-5 h -40 c -2.76,0 -5,2.24 -5,5 0,2.76 2.24,5 5,5 z" /></g><g
                 id="g58"
                 transform="translate(90.25,145.25)"><path
                   id="path56"
                   style="fill:#000000;fill-opacity:1;fill-rule:nonzero;stroke:none"
                   d="m 0,0 v -80 c 0,-2.76 -2.24,-5 -5,-5 -2.76,0 -5,2.24 -5,5 V 0 c 0,2.76 2.24,5 5,5 2.76,0 5,-2.24 5,-5" /></g><g
                 id="g62"
                 transform="translate(85.25,190.25)"><path
                   id="path60"
                   style="fill:#000000;fill-opacity:1;fill-rule:nonzero;stroke:none"
                   d="m 0,0 c 2.76,0 5,-2.24 5,-5 0,-2.76 -2.24,-5 -5,-5 -2.76,0 -5,2.24 -5,5 0,2.76 2.24,5 5,5" /></g></g></g></g></g></g></g></svg>