<?xml version="1.0" encoding="UTF-8" standalone="no"?>
<svg
   xmlns:dc="http://purl.org/dc/elements/1.1/"
   xmlns:cc="http://creativecommons.org/ns#"
   xmlns:rdf="http://www.w3.org/1999/02/22-rdf-syntax-ns#"
   xmlns:svg="http://www.w3.org/2000/svg"
   xmlns="http://www.w3.org/2000/svg"
   viewBox="0 0 636.11469 670.68799"
   height="670.68799"
   width="636.11469"
   xml:space="preserve"
   id="svg2"
   version="1.1"><metadata
     id="metadata8"><rdf:RDF><cc:Work
         rdf:about=""><dc:format>image/svg+xml</dc:format><dc:type
           rdf:resource="http://purl.org/dc/dcmitype/StillImage" /></cc:Work></rdf:RDF></metadata><defs
     id="defs6"><clipPath
       id="clipPath18"
       clipPathUnits="userSpaceOnUse"><path
         id="path16"
         d="M 0,503.016 H 477.086 V 0 H 0 Z" /></clipPath></defs><g
     transform="matrix(1.3333333,0,0,-1.3333333,0,670.688)"
     id="g10"><g
       id="g12"><g
         clip-path="url(#clipPath18)"
         id="g14"><g
           transform="translate(130.4265,176.2002)"
           id="g20"><path
             id="path22"
             style="fill:#ffffff;fill-opacity:1;fill-rule:nonzero;stroke:none"
             d="m 0,0 1.55,-2 -108.99,-118.95 -8.54,8.519 c -4.36,4.361 -4.53,11.351 -0.38,15.91 L -11.72,18.59 -9.7,14.88 C -6.86,9.649 -3.59,4.64 0,0" /></g><g
           transform="translate(165.6765,139.1504)"
           id="g24"><path
             id="path26"
             style="fill:#ffffff;fill-opacity:1;fill-rule:nonzero;stroke:none"
             d="m 0,0 -118.25,-108.36 -16.63,16.63 108.36,118.24 2.21,-2.51 c 5.28,-6.021 9.42,-10.24 10.2,-11.03 l 0.39,-0.39 c 1.9,-1.87 5.88,-5.7 11.21,-10.37 z" /></g><g
           transform="translate(194.7966,118.7002)"
           id="g28"><path
             id="path30"
             style="fill:#ffffff;fill-opacity:1;fill-rule:nonzero;stroke:none"
             d="m 0,0 -115.11,-104.65 c -2.21,-2.01 -4.98,-3.01 -7.75,-3.01 -2.96,0 -5.91,1.139 -8.16,3.4 l -8.53,8.53 118.96,109.01 2,-1.551 C -13.9,8.1 -8.89,4.83 -3.71,2.02 Z" /></g><g
           transform="translate(131.9763,174.2002)"
           id="g32"><path
             id="path34"
             style="fill:#000000;fill-opacity:1;fill-rule:nonzero;stroke:none"
             d="m 0,0 -1.55,2 c -3.59,4.64 -6.86,9.649 -9.7,14.88 l -2.02,3.71 -104.64,-115.111 c -4.15,-4.559 -3.98,-11.549 0.38,-15.91 l 8.54,-8.519 z m -84.55,-143.41 118.25,108.36 -2.51,2.21 c -5.33,4.67 -9.31,8.5 -11.21,10.37 l -0.39,0.39 c -0.78,0.79 -4.92,5.01 -10.2,11.03 l -2.21,2.51 -108.36,-118.24 z m 32.26,-16.74 115.11,104.65 -3.71,2.02 c -5.18,2.81 -10.19,6.08 -14.88,9.709 l -2,1.551 -118.96,-109.01 8.53,-8.53 c 2.25,-2.261 5.2,-3.4 8.16,-3.4 2.77,0 5.54,1 7.75,3.01 m 93.33,311.43 42.04,42.05 -6.38,0.58 c -5.5,0.5 -10.71,2.9 -14.67,6.77 l -2.12,2.07 -28.29,-28.3 2.07,-2.12 c 3.86,-3.97 6.27,-9.18 6.77,-14.68 z m 32.48,-18.8 27.01,29.71 -16.47,16.47 -28.36,-28.35 z m 109.15,87.38 -11.239,23.69 -0.071,0.14 c -0.06,0.11 -0.12,0.22 -0.179,0.34 -0.021,0.07 -0.051,0.14 -0.071,0.2 l -23.12,48.71 -2.769,-1.48 C 115.29,275.55 92.23,249.31 80.28,217.6 c -1.11,-2.92 -2.14,-6.01 -3.09,-9.18 l -1.07,-3.61 3.75,-0.24 c 1.97,-0.13 3.91,0.06 5.77,0.56 4.16,0.54 8.2,-1.58 10.1,-5.31 1.89,-3.73 1.18,-8.25 -1.77,-11.23 l -2.1,-2.12 16.82,-16.81 53.67,39.96 c 5.14,4.01 10.89,7.1 17.1,9.17 z m -20.319,-184.84 34.25,31.1 -88.25,88.25 -30.041,-33.04 -0.19,-0.23 c -0.19,-0.26 -0.42,-0.51 -0.69,-0.76 L -5.21,29.45 -4.37,27.649 C -0.37,19.02 4.88,11.01 11.22,3.84 L 11.4,3.649 C 11.49,3.54 11.59,3.43 11.69,3.319 L 11.76,3.24 c 6.98,-8.56 13.7,-15.53 15.62,-17.49 l 0.42,-0.41 c 1.36,-1.35 8.6,-8.43 17.77,-15.88 0.13,-0.11 0.26,-0.22 0.44,-0.391 7.15,-6.359 15.18,-11.639 23.86,-15.679 l 1.81,-0.84 89.841,81.679 0.2,0.201 c 0.13,0.15 0.269,0.29 0.409,0.42 0.07,0.06 0.15,0.12 0.221,0.17 m 90.33,116.03 c 1.239,13.4 -3.391,26.65 -12.741,36.38 l -10.32,10.32 c -9.66,9.28 -22.849,13.92 -36.22,12.71 l -0.37,-0.03 -0.349,-0.12 c -0.721,-0.25 -1.451,-0.36 -2.201,-0.31 l -0.4,0.05 -0.439,-0.08 c -7.571,-1.31 -14.761,-4.53 -20.731,-9.26 l -52.33,-38.96 87.4,-87.4 38.9,52.25 c 4.82,6.07 8.051,13.31 9.341,20.93 l 0.059,0.35 -0.02,0.36 c -0.05,0.72 0.04,1.44 0.28,2.12 l 0.11,0.34 z m 34.049,-6.26 c 8.82,28.33 1.26,58.97 -19.74,79.97 -20.99,20.99 -51.62,28.55 -79.95,19.74 l -3.3,-1.03 10.321,-21.81 1.96,0.05 c 15.58,0.42 30.319,-5.34 41.45,-16.19 l 10.25,-10.25 c 10.88,-11.16 16.639,-25.89 16.219,-41.49 l -0.049,-1.96 21.809,-10.33 z m 38.73,-18.51 c 5.011,13.65 7.44,27.85 7.44,41.95 0,31.94 -12.48,63.37 -35.77,86.67 -33.56,33.57 -84.04,44.69 -128.58,28.34 l -3.079,-1.13 13.55,-28.65 2.529,0.86 c 15.98,5.42 33.12,6.28 49.591,2.47 16.549,-3.83 31.649,-12.2 43.659,-24.22 12.02,-12.02 20.4,-27.12 24.23,-43.68 3.8,-16.46 2.941,-33.61 -2.49,-49.59 l -0.859,-2.53 28.649,-13.57 z m 8.16,-23.42 1.43,2.69 -10.11,5.17 -0.24,0.11 c -0.08,0.04 -0.16,0.07 -0.229,0.11 l -37.441,17.71 -0.3,0.13 c -0.35,0.12 -0.7,0.29 -1.04,0.49 l -23.6,11.18 -1.069,-3.21 c -2.071,-6.21 -5.161,-11.97 -9.231,-17.17 L 209.181,62.83 209.04,62.649 c -0.069,-0.089 -0.14,-0.179 -0.21,-0.269 -0.189,-0.22 -0.39,-0.43 -0.67,-0.67 l -31.38,-28.53 5.75,-1.201 c 9.48,-1.979 19.01,-2.959 28.5,-2.959 20.06,0 39.91,4.39 58.52,13.06 27.61,12.85 49.761,33.87 64.07,60.78 m 10.8,6.02 c 1.221,-3.75 0.81,-7.87 -1.149,-11.37 C 317.19,48.569 266.53,18.1 211.08,17.99 196.79,18 182.58,20.03 168.84,24.03 l -1.61,0.47 -90.15,-81.96 -0.25,-0.26 c -0.16,-0.18 -0.36,-0.37 -0.59,-0.53 L 76.1,-58.351 -44.86,-168.32 c -4.15,-3.79 -9.54,-5.88 -15.17,-5.88 h -0.04 c -5.93,0 -11.74,2.41 -15.93,6.62 l -49.34,49.34 c -8.55,8.53 -8.88,22.21 -0.75,31.15 l 109.92,120.9 0.2,0.25 c 0.15,0.2 0.32,0.39 0.53,0.58 l 81.52,89.66 -18.19,18.19 -2.12,-2.09 c -1.84,-1.82 -4.27,-2.83 -6.85,-2.83 -1.51,0 -3.02,0.36 -4.37,1.05 -3.76,1.89 -5.88,5.93 -5.32,10.1 1.43,5.33 0.29,11.1 -3.08,15.48 l -8.4,8.44 -35.88,35.88 c -2.13,2.15 -2.13,5.65 0.02,7.79 2.14,2.15 5.64,2.15 7.78,0.03 l 34.11,-34.11 28.35,28.36 -108.22,108.22 -2.07,-1.46 c -4.78,-3.39 -9.33,-7.17 -13.55,-11.28 -4.18,-4.21 -7.91,-8.91 -11.07,-13.99 l -1.26,-2.02 25.49,-25.49 c 2.14,-2.16 2.14,-5.67 0.01,-7.82 -2.16,-2.14 -5.67,-2.14 -7.82,-0.01 l -23.97,23.98 -0.15,0.14 c -4.47,4.46 -5.27,11.33 -1.92,16.7 7.28,11.83 17.37,21.92 29.21,29.2 5.36,3.34 12.23,2.55 16.69,-1.93 l 113.07,-113.06 1.54,4.58 c 0.65,1.93 1.26,3.63 1.85,5.19 12.9,34.17 37.75,62.46 69.98,79.66 3.43,1.83 7.51,2.18 11.22,0.95 3.6,-1.17 6.561,-3.82 8.18,-7.33 l 1.35,-2.76 2.55,0.98 c 49,18.65 104.62,6.75 141.7,-30.33 37.05,-37.06 48.97,-92.65 30.35,-141.64 l -0.99,-2.59 2.921,-1.38 c 3.42,-1.62 6.039,-4.61 7.189,-8.21 z" /></g><g
           transform="translate(351.157,322.0098)"
           id="g36"><path
             id="path38"
             style="fill:#ffffff;fill-opacity:1;fill-rule:nonzero;stroke:none"
             d="m 0,0 c 7.579,7.58 8.76,19.56 2.81,28.49 -4.27,6.4 -11.43,10.01 -18.8,10.01 -2.88,0 -5.79,-0.55 -8.58,-1.7 -8.54,-3.53 -13.941,-11.9 -13.941,-20.88 0,-1.44 0.141,-2.9 0.431,-4.36 2.1,-10.51 11.399,-18.15 22.12,-18.16 5.97,0 11.77,2.41 15.96,6.6 M 20.76,39.62 C 30.109,29.89 34.739,16.64 33.5,3.24 L 33.47,2.89 33.359,2.55 c -0.24,-0.68 -0.33,-1.4 -0.28,-2.12 L 33.1,0.07 33.04,-0.28 C 31.75,-7.9 28.52,-15.14 23.699,-21.21 l -38.899,-52.25 -87.401,87.4 52.33,38.96 c 5.97,4.73 13.161,7.95 20.731,9.26 l 0.439,0.08 0.401,-0.05 c 0.75,-0.05 1.479,0.06 2.2,0.31 l 0.35,0.12 0.37,0.03 c 13.37,1.21 26.559,-3.43 36.219,-12.71 z" /></g><g
           transform="translate(346.7068,337.9702)"
           id="g40"><path
             id="path42"
             style="fill:#000000;fill-opacity:1;fill-rule:nonzero;stroke:none"
             d="m 0,0 c 0,1.53 -0.3,3.02 -0.88,4.41 -1.79,4.32 -5.971,7.11 -10.63,7.11 -5.211,0 -9.79,-3.51 -11.14,-8.54 -1.35,-5.03 0.86,-10.36 5.37,-12.97 1.8,-1.03 3.78,-1.54 5.75,-1.54 3,0 5.96,1.17 8.17,3.4 C -1.23,-5.99 0,-3.02 0,0 m 7.26,12.53 c 5.95,-8.93 4.769,-20.91 -2.81,-28.49 -4.19,-4.19 -9.99,-6.6 -15.96,-6.6 -10.72,0.01 -20.02,7.65 -22.12,18.16 -0.29,1.46 -0.431,2.92 -0.431,4.36 0,8.98 5.401,17.35 13.941,20.88 2.79,1.15 5.7,1.7 8.58,1.7 7.37,0 14.53,-3.61 18.8,-10.01" /></g><g
           transform="translate(230.2068,201.8398)"
           id="g44"><path
             id="path46"
             style="fill:#000000;fill-opacity:1;fill-rule:nonzero;stroke:none"
             d="M 0,0 14.17,14.18 -14.18,42.53 -28.35,28.36 h -0.01 c -7.78,-7.82 -7.78,-20.54 0.01,-28.37 3.91,-3.889 9.04,-5.84 14.17,-5.84 5.14,0 10.27,1.951 14.18,5.85 M 21.99,22 44.31,44.32 15.96,72.67 -6.36,50.35 Z M 50,54.26 c 5.47,-5.48 5.47,-14.4 0,-19.88 L 7.81,-7.81 c -5.78,-5.78 -13.78,-9.089 -21.95,-9.089 h -0.04 -0.04 c -8.18,0 -16.18,3.309 -21.94,9.089 -12.09,12.121 -12.09,31.86 -0.01,43.98 l 17.27,17.25 0.15,0.23 c 0.35,0.5 0.78,0.94 1.3,1.29 l 0.22,0.16 23.26,23.26 c 5.47,5.46 14.39,5.46 19.869,0 z" /></g><g
           transform="translate(97.5667,414.6201)"
           id="g48"><path
             id="path50"
             style="fill:#000000;fill-opacity:1;fill-rule:nonzero;stroke:none"
             d="m 0,0 c 1.03,-1.01 1.63,-2.43 1.63,-3.88 0,-1.45 -0.6,-2.87 -1.64,-3.89 -0.51,-0.5 -1.12,-0.89 -1.8,-1.17 L -1.9,-8.97 c -1.7,-0.76 -3.63,-0.59 -5.18,0.43 -1.54,1.03 -2.45,2.75 -2.42,4.59 0.04,1.48 0.62,2.89 1.65,3.96 0.29,0.27 0.6,0.53 0.94,0.77 0.2,0.14 0.42,0.25 0.65,0.32 l 0.39,0.16 c 0.25,0.13 0.51,0.22 0.77,0.27 l 1.28,0.15 C -2.47,1.6 -1.19,1.07 -0.17,0.16 Z" /></g></g></g></g></svg>