<?xml version="1.0" encoding="UTF-8" standalone="no"?>
<svg
   xmlns:dc="http://purl.org/dc/elements/1.1/"
   xmlns:cc="http://creativecommons.org/ns#"
   xmlns:rdf="http://www.w3.org/1999/02/22-rdf-syntax-ns#"
   xmlns:svg="http://www.w3.org/2000/svg"
   xmlns="http://www.w3.org/2000/svg"
   xmlns:sodipodi="http://sodipodi.sourceforge.net/DTD/sodipodi-0.dtd"
   xmlns:inkscape="http://www.inkscape.org/namespaces/inkscape"
   viewBox="0 0 188.32268 151.13467"
   height="151.13467"
   width="188.32268"
   xml:space="preserve"
   id="svg2"
   version="1.1"
   sodipodi:docname="logo.svg"
   inkscape:version="0.92.4 (5da689c313, 2019-01-14)"><sodipodi:namedview
     pagecolor="#ffffff"
     bordercolor="#666666"
     borderopacity="1"
     objecttolerance="10"
     gridtolerance="10"
     guidetolerance="10"
     inkscape:pageopacity="0"
     inkscape:pageshadow="2"
     inkscape:window-width="1920"
     inkscape:window-height="1017"
     id="namedview14"
     showgrid="false"
     inkscape:zoom="1.5615212"
     inkscape:cx="94.161339"
     inkscape:cy="75.567337"
     inkscape:window-x="1352"
     inkscape:window-y="-8"
     inkscape:window-maximized="1"
     inkscape:current-layer="g10" /><metadata
     id="metadata8"><rdf:RDF><cc:Work
         rdf:about=""><dc:format>image/svg+xml</dc:format><dc:type
           rdf:resource="http://purl.org/dc/dcmitype/StillImage" /></cc:Work></rdf:RDF></metadata><defs
     id="defs6" /><g
     transform="matrix(1.3333333,0,0,-1.3333333,0,151.13467)"
     id="g10"><g
       transform="translate(66.3291,113.3505)"
       id="g12"><path
         id="path14"
         style="fill:#ffffff;fill-opacity:1;fill-rule:nonzero;stroke:#ffffff;stroke-opacity:0"
         d="m -66.329,-35.452 30.371,-2.336 9.414,-15.063 h 23.78 L -14.405,-33.243 0,0 Z m 32.113,0.539 -21.629,1.663 49.671,26.549 -11.594,-26.757 9.734,-16.392 H -24.88 Z"
         inkscape:connector-curvature="0" /></g><g
       transform="translate(132.0752,57.7915)"
       id="g16"
       style="fill:#ffffff;fill-opacity:1;stroke:#ffffff;stroke-opacity:0"><path
         id="path18"
         style="fill:#ffffff;fill-opacity:1;fill-rule:nonzero;stroke:#ffffff;stroke-opacity:0"
         d="m 0,0 h -102 v -49.708 h 15.5 v 36.541 H -7 Z"
         inkscape:connector-curvature="0" /></g><g
       transform="translate(59.2011,31.0635)"
       id="g20"
       style="fill:#ffffff;fill-opacity:0.94117647"><path
         id="path22"
         style="fill:#ffffff;fill-opacity:0.94117647;fill-rule:nonzero;stroke:none"
         d="m 0,0 v -22.981 h 58.031 v -5.12 H 47.999 v -2.963 h 10.032 2.92 0.043 v 8.083 h 21.047 v 1.957 h -5.089 v 6.979 h -9.916 v 6.979 H 64.072 V -21.024 H 60.994 V -7.066 H 47.999 V -21.024 H 45.035 V -7.066 H 32.041 v -1.956 h 10.031 v -5.023 h -8.031 v -1.956 h 8.031 v -5.023 H 30.025 V -7.066 H 16.021 v -13.958 h -2.98 V -7.066 H 10.083 V 0 Z m 3.041,-1.956 h 4 v -5.11 h -4 z m 47.921,-7.066 h 7.07 v -12.002 h -7.07 z m -30.943,0 h 7.043 v -12.002 h -7.043 z m -16.978,0 h 4 H 10 V -21.024 H 3.041 Z m 63.995,-6.979 h 6.953 v -5.023 h -6.953 z"
         inkscape:connector-curvature="0" /></g><g
       transform="translate(53.0757,10.0391)"
       id="g24"
       style="stroke:#ffffff;stroke-opacity:1;fill:#ffffff;fill-opacity:0.94117647"><path
         id="path26"
         style="fill:#ffffff;fill-opacity:0.94117647;fill-rule:nonzero;stroke:#ffffff;stroke-opacity:1"
         d="M 0,0 H -1.958 V 29.974 H 80.076 V 25.961 H 3.042 0 v -1.956 z m 83.078,24.005 h 0.039 L 83.078,31.93 H -5 V -1.956 h 7.917 0.125 v 25.961 z"
         inkscape:connector-curvature="0" /></g></g></svg>