<?xml version="1.0" encoding="UTF-8" standalone="no"?>
<svg
   xmlns:dc="http://purl.org/dc/elements/1.1/"
   xmlns:cc="http://creativecommons.org/ns#"
   xmlns:rdf="http://www.w3.org/1999/02/22-rdf-syntax-ns#"
   xmlns:xlink="http://www.w3.org/1999/xlink"
   xmlns:svg="http://www.w3.org/2000/svg"
   xmlns="http://www.w3.org/2000/svg"
   viewBox="0 0 981.33331 354.66666"
   height="354.66666"
   width="981.33331"
   xml:space="preserve"
   id="svg2"
   version="1.1"><metadata
     id="metadata8"><rdf:RDF><cc:Work
         rdf:about=""><dc:format>image/svg+xml</dc:format><dc:type
           rdf:resource="http://purl.org/dc/dcmitype/StillImage" /></cc:Work></rdf:RDF></metadata>
  <defs
     id="defs6">
    <clipPath
       id="clipPath18"
       clipPathUnits="userSpaceOnUse"><path
         id="path16"
         d="M 0,266 H 736 V 0 H 0 Z" /></clipPath>
    <clipPath
       id="clipPath406"
       clipPathUnits="userSpaceOnUse"><path
         id="path404"
         d="M 2.53612,264 H 733.75 V 0 H 2.53612 Z" /></clipPath>
    <pattern xmlns="http://www.w3.org/2000/svg" id="img1" patternUnits="userSpaceOnUse" width="20" height="20">
            <image xmlns:xlink="http://www.w3.org/1999/xlink" xlink:href="favicon.png" x="0" y="0" width="20" height="20"/>
        </pattern>
  </defs>
  <g
     transform="matrix(1.3333333,0,0,-1.3333333,0,354.66667)"
     id="g10"><g
       id="g12"><g
         clip-path="url(#clipPath18)"
         id="g14"><g
           transform="translate(162.8354,79)"
           id="g20"><path
             id="path22"
             style="fill:#fdd32f;fill-opacity:1;fill-rule:nonzero;stroke:none"
             d="m 0,0 c 0.183,-43.297 0.161,-53.506 0.051,-56 h 2.114 v -22 h 24 V 0 Z" /></g><path
           id="path24"
           style="fill:#fdd32f;fill-opacity:1;fill-rule:nonzero;stroke:none"
           d="m 172.5,117.5 h 26 V 221 h -26 z" /><path
           id="path26"
           style="fill:#fdd32f;fill-opacity:1;fill-rule:nonzero;stroke:none"
           d="m 199.5,117.5 h 37.333 V 221 H 199.5 Z" /><path
           id="path28"
           style="fill:#fdd32f;fill-opacity:1;fill-rule:nonzero;stroke:none"
           d="M 233.167,79 H 190.001 V 1 h 43.166 z" /><path
           id="path30"
           style="fill:#fdd32f;fill-opacity:1;fill-rule:nonzero;stroke:none"
           d="m 148.5,117.5 h 23 V 221 h -23 z" /><g
           transform="translate(292.0005,1)"
           id="g32"><path
             id="path34"
             style="fill:#fdd32f;fill-opacity:1;fill-rule:nonzero;stroke:none"
             d="M 0,0 V 53 53.5 78 H -57.834 V 0 Z" /></g><g
           transform="translate(331.0005,1)"
           id="g36"><path
             id="path38"
             style="fill:#fdd32f;fill-opacity:1;fill-rule:nonzero;stroke:none"
             d="M 0,0 V 42.197 L -20.623,53 H -38 V 0 Z" /></g><path
           id="path40"
           style="fill:#fdd32f;fill-opacity:1;fill-rule:nonzero;stroke:none"
           d="m 432.5,117.5 h 65 V 221 h -65 z" /><path
           id="path42"
           style="fill:#1a1c20;fill-opacity:1;fill-rule:nonzero;stroke:none"
           d="m 368.5,117.5 h 63 V 221 h -63 z" /><g
           transform="translate(161.8354,79)"
           id="g44"><path
             id="path46"
             style="fill:#fdd32f;fill-opacity:1;fill-rule:nonzero;stroke:none"
             d="M 0,0 H -36.835 V -56 H 0.097 C 0.188,-51.877 0.077,-18.398 0,0" /></g><path
           id="path48"
           style="fill:#fdd32f;fill-opacity:1;fill-rule:nonzero;stroke:none"
           d="m 274.5,117.5 h 36 V 221 h -36 z" /><path
           id="path50"
           style="fill:#fdd32f;fill-opacity:1;fill-rule:nonzero;stroke:none"
           d="m 311.5,117.5 h 56 V 221 h -56 z" /><path
           id="path52"
           style="fill:#fdd32f;fill-opacity:1;fill-rule:nonzero;stroke:none"
           d="M 237.833,117.5 H 273.5 V 221 h -35.667 z" /><g
           transform="translate(560.8335,117.5)"
           id="g54"><path
             id="path56"
             style="fill:#fdd32f;fill-opacity:1;fill-rule:nonzero;stroke:none"
             d="m 0,0 h 24.955 l 32,33 h 10.212 v 70.5 H 0 Z" /></g><g
           transform="translate(147.5005,117.5)"
           id="g58"><path
             id="path60"
             style="fill:#ffffff;fill-opacity:1;fill-rule:nonzero;stroke:none"
             d="M 0,0 V 103.5 H -101 V 72.717 L -23.303,0 Z" /></g><g
           transform="translate(138.0005,17.167)"
           id="g62"><path
             id="path64"
             style="fill:#ffffff;fill-opacity:1;fill-rule:nonzero;stroke:none"
             d="m 0,0 h -1 v 4.833 h -12.5 -0.5 -3.084 v -21 H -1 v 4.875 h 1 v -5.375 h 26 v 21.5 H 0 Z" /></g><path
           id="path66"
           style="fill:#ffffff;fill-opacity:1;fill-rule:nonzero;stroke:none"
           d="m 57.083,1 h 62.833 V 22 H 57.083 Z" /><g
           transform="translate(609.5005,22)"
           id="g68"><path
             id="path70"
             style="fill:#ffffff;fill-opacity:1;fill-rule:nonzero;stroke:none"
             d="M 0,0 V -21 H 53.625 V 0 H 29 Z" /></g><g
           transform="translate(565.0005,29)"
           id="g72"><path
             id="path74"
             style="fill:#ffffff;fill-opacity:1;fill-rule:nonzero;stroke:none"
             d="M 0,0 H -107 V 32.707 L -88.707,51 H 0 Z m 170,118 v 35 h -37 v -5.5 h -1 V 192 H 106.5 106 97.5 v 1 h 8.5 v 43 H 64 v -43 h 9.5 v -1 H 64 v -70.5 h 45.5 V 11.5 H 26 V 78.707 L 59.293,112 H 108.5 v 8.5 H 53.212 l -32,-33 h -462.409 l -0.145,0.135 -78.158,73.148 V 192 H -564 v -23 h 28 v -7.279 l 80,-73 V 14 h -68 V -6 h 5 v -1 h -5 -0.5 -39.5 v -21 h 22.5 32.583 v 22 h 63.833 0.5 3.584 v 57 h 169 V 26 h 17.623 l 0.109,-0.057 L -233,14.803 V -28.5 H 26 v 5 h 1 V -28 H 43.5 V -7 H 27 v -3.5 H 26 V -6 H 73.5 99.125 V -28 H 130.5 156 v 21 h -23 -1 -25.625 v 1 H 132 v 132.5 h 1 V 118 Z" /></g><g
           transform="translate(40,23)"
           id="g76"><path
             id="path78"
             style="fill:#fdd32f;fill-opacity:1;fill-rule:nonzero;stroke:none"
             d="m 0,0 v 21 h 68 v 73.279 l -80,73 V 174 H -39 V 0 Z" /></g><path
           id="path80"
           style="fill:#fdd32f;fill-opacity:1;fill-rule:nonzero;stroke:none"
           d="m 498.5,117.5 h 61.333 V 221 H 498.5 Z" /><path
           id="path82"
           style="fill:#fdd32f;fill-opacity:1;fill-rule:nonzero;stroke:none"
           d="M 564,79 H 512 V 30 h 52 z" /><g
           transform="translate(592.0005,107.293)"
           id="g84"><path
             id="path86"
             style="fill:#fdd32f;fill-opacity:1;fill-rule:nonzero;stroke:none"
             d="m 0,0 v -65.793 h 81.5 v 98.5 H 32.707 Z" /></g><g
           transform="translate(459.0005,61.293)"
           id="g88"><path
             id="path90"
             style="fill:#fdd32f;fill-opacity:1;fill-rule:nonzero;stroke:none"
             d="m 0,0 v -31.293 h 52 v 49 H 17.707 Z" /></g><g
           transform="translate(628.0005,150)"
           id="g92"><path
             id="path94"
             style="fill:#000000;fill-opacity:1;fill-rule:nonzero;stroke:none"
             d="m 0,0 v 0.5 h -10.212 l -32,-33 H -67.167 V -33 h -1 v 0.5 H -129.5 V -33 h -1 v 0.5 h -65 V -33 h -1 v 0.5 h -63 V -33 h -1 v 0.5 h -56 V -33 h -1 v 0.5 h -36 V -33 h -1 v 0.5 h -35.667 V -33 h -1 v 0.5 H -428.5 V -33 h -1 v 0.5 h -26 V -33 h -1 v 0.5 h -23 V -33 h -1 v 0.5 h -23.303 L -581.5,40.217 V 71 h -1 V 39.783 l 78.158,-73.148 0.145,-0.135 h 462.409 l 32,33 H 45.5 V -9 -10 -108.5 H -36 v 65.793 L -3.293,-10 H 45.5 v 1 H -3.707 L -37,-42.293 V -109.5 H 46.5 V 0.5 L 1,0.5 V 0 Z" /></g><g
           transform="translate(0.5,0.5)"
           id="g96"><path
             id="path98"
             style="fill:#000000;fill-opacity:1;fill-rule:nonzero;stroke:none"
             d="m 0,0 v 21.5 1 174 1 23.5 h 147 1 23 1 26 1 37.333 1 35.667 1 36 1 56 1 63 1 65 1 61.333 1 67.167 v 0.5 H -0.5 V -0.5 H 23 V 0 Z" /></g><path
           id="path100"
           style="fill:#000000;fill-opacity:1;fill-rule:nonzero;stroke:none"
           d="M 559.833,221.5 H 498.5 V 221 h 61.333 z" /><path
           id="path102"
           style="fill:#000000;fill-opacity:1;fill-rule:nonzero;stroke:none"
           d="m 171.5,221.5 h -23 V 221 h 23 z" /><path
           id="path104"
           style="fill:#000000;fill-opacity:1;fill-rule:nonzero;stroke:none"
           d="M 628,221.5 H 560.833 V 221 H 628 Z" /><path
           id="path106"
           style="fill:#000000;fill-opacity:1;fill-rule:nonzero;stroke:none"
           d="M 236.833,221.5 H 199.5 V 221 h 37.333 z" /><path
           id="path108"
           style="fill:#000000;fill-opacity:1;fill-rule:nonzero;stroke:none"
           d="M 273.5,221.5 H 237.833 V 221 H 273.5 Z" /><path
           id="path110"
           style="fill:#000000;fill-opacity:1;fill-rule:nonzero;stroke:none"
           d="m 198.5,221.5 h -26 V 221 h 26 z" /><path
           id="path112"
           style="fill:#000000;fill-opacity:1;fill-rule:nonzero;stroke:none"
           d="m 497.5,221.5 h -65 V 221 h 65 z" /><path
           id="path114"
           style="fill:#000000;fill-opacity:1;fill-rule:nonzero;stroke:none"
           d="m 431.5,221.5 h -63 V 221 h 63 z" /><path
           id="path116"
           style="fill:#000000;fill-opacity:1;fill-rule:nonzero;stroke:none"
           d="m 367.5,221.5 h -56 V 221 h 56 z" /><g
           transform="translate(147.5005,221)"
           id="g118"><path
             id="path120"
             style="fill:#000000;fill-opacity:1;fill-rule:nonzero;stroke:none"
             d="M 0,0 V 0.5 H -147 V -23 h 0.5 V 0 h 44.5 1 z" /></g><path
           id="path122"
           style="fill:#000000;fill-opacity:1;fill-rule:nonzero;stroke:none"
           d="m 310.5,221.5 h -36 V 221 h 36 z" /><g
           transform="translate(0.5,0.5)"
           id="g124"><path
             id="path126"
             style="fill:#000000;fill-opacity:1;fill-rule:nonzero;stroke:none"
             d="M 0,0 H 23 V 0.5 H 0.5 v 21 H 0 Z" /></g><path
           id="path128"
           style="fill:#000000;fill-opacity:1;fill-rule:nonzero;stroke:none"
           d="M 638.5,222 H 629 v -1 h 9.5 z" /><path
           id="path130"
           style="fill:#000000;fill-opacity:1;fill-rule:nonzero;stroke:none"
           d="M 1,197 H 0.5 V 23 H 1 Z" /><g
           transform="translate(628.5005,265.5)"
           id="g132"><path
             id="path134"
             style="fill:#000000;fill-opacity:1;fill-rule:nonzero;stroke:none"
             d="M 0,0 H 43 V -43.5 -44 h 26 v -39 0.5 h 0.5 v 39 h -26 v 44 h -44 v -44 H 0 Z" /></g><path
           id="path136"
           style="fill:#000000;fill-opacity:1;fill-rule:nonzero;stroke:none"
           d="m 628,150.5 h 1 V 221 h -1 z" /><g
           transform="translate(671.5005,265.5)"
           id="g138"><path
             id="path140"
             style="fill:#000000;fill-opacity:1;fill-rule:nonzero;stroke:none"
             d="m 0,0 h -43 v -43.5 h 0.5 v 43 h 42 v -43 H 0 Z" /></g><g
           transform="translate(697.5005,182.5)"
           id="g142"><path
             id="path144"
             style="fill:#000000;fill-opacity:1;fill-rule:nonzero;stroke:none"
             d="M 0,0 V 0 39 H -26 V 38.5 H -0.5 V -6 h 1 v 5.5 H 0 Z" /></g><path
           id="path146"
           style="fill:#000000;fill-opacity:1;fill-rule:nonzero;stroke:none"
           d="m 628,150 h 1 v 0.5 h -1 z" /><path
           id="path148"
           style="fill:#000000;fill-opacity:1;fill-rule:nonzero;stroke:none"
           d="M 628.5,222 H 628 v -0.5 h 0.5 z" /><g
           transform="translate(628.5005,221.5)"
           id="g150"><path
             id="path152"
             style="fill:#000000;fill-opacity:1;fill-rule:nonzero;stroke:none"
             d="M 0,0 H 0.5 0 -0.5 v -0.5 h 1 v 1 H 0 Z" /></g><path
           id="path154"
           style="fill:#000000;fill-opacity:1;fill-rule:nonzero;stroke:none"
           d="m 559.833,117.5 h 1 V 221 h -1 z" /><path
           id="path156"
           style="fill:#000000;fill-opacity:1;fill-rule:nonzero;stroke:none"
           d="m 559.833,117 h 1 v 0.5 h -1 z" /><path
           id="path158"
           style="fill:#000000;fill-opacity:1;fill-rule:nonzero;stroke:none"
           d="m 560.833,221.5 h -1 V 221 h 1 z" /><path
           id="path160"
           style="fill:#000000;fill-opacity:1;fill-rule:nonzero;stroke:none"
           d="m 497.5,117.5 h 1 V 221 h -1 z" /><path
           id="path162"
           style="fill:#000000;fill-opacity:1;fill-rule:nonzero;stroke:none"
           d="m 497.5,117 h 1 v 0.5 h -1 z" /><path
           id="path164"
           style="fill:#000000;fill-opacity:1;fill-rule:nonzero;stroke:none"
           d="m 498.5,221.5 h -1 V 221 h 1 z" /><path
           id="path166"
           style="fill:#000000;fill-opacity:1;fill-rule:nonzero;stroke:none"
           d="m 431.5,117.5 h 1 V 221 h -1 z" /><path
           id="path168"
           style="fill:#000000;fill-opacity:1;fill-rule:nonzero;stroke:none"
           d="m 431.5,117 h 1 v 0.5 h -1 z" /><path
           id="path170"
           style="fill:#000000;fill-opacity:1;fill-rule:nonzero;stroke:none"
           d="m 432.5,221.5 h -1 V 221 h 1 z" /><path
           id="path172"
           style="fill:#000000;fill-opacity:1;fill-rule:nonzero;stroke:none"
           d="m 367.5,117.5 h 1 V 221 h -1 z" /><path
           id="path174"
           style="fill:#000000;fill-opacity:1;fill-rule:nonzero;stroke:none"
           d="m 367.5,117 h 1 v 0.5 h -1 z" /><path
           id="path176"
           style="fill:#000000;fill-opacity:1;fill-rule:nonzero;stroke:none"
           d="m 368.5,221.5 h -1 V 221 h 1 z" /><path
           id="path178"
           style="fill:#000000;fill-opacity:1;fill-rule:nonzero;stroke:none"
           d="m 310.5,117.5 h 1 V 221 h -1 z" /><path
           id="path180"
           style="fill:#000000;fill-opacity:1;fill-rule:nonzero;stroke:none"
           d="m 310.5,117 h 1 v 0.5 h -1 z" /><path
           id="path182"
           style="fill:#000000;fill-opacity:1;fill-rule:nonzero;stroke:none"
           d="m 311.5,221.5 h -1 V 221 h 1 z" /><path
           id="path184"
           style="fill:#000000;fill-opacity:1;fill-rule:nonzero;stroke:none"
           d="m 273.5,117.5 h 1 V 221 h -1 z" /><path
           id="path186"
           style="fill:#000000;fill-opacity:1;fill-rule:nonzero;stroke:none"
           d="m 273.5,117 h 1 v 0.5 h -1 z" /><path
           id="path188"
           style="fill:#000000;fill-opacity:1;fill-rule:nonzero;stroke:none"
           d="m 274.5,221.5 h -1 V 221 h 1 z" /><path
           id="path190"
           style="fill:#000000;fill-opacity:1;fill-rule:nonzero;stroke:none"
           d="m 236.833,117.5 h 1 V 221 h -1 z" /><path
           id="path192"
           style="fill:#000000;fill-opacity:1;fill-rule:nonzero;stroke:none"
           d="m 236.833,117 h 1 v 0.5 h -1 z" /><path
           id="path194"
           style="fill:#000000;fill-opacity:1;fill-rule:nonzero;stroke:none"
           d="m 237.833,221.5 h -1 V 221 h 1 z" /><path
           id="path196"
           style="fill:#000000;fill-opacity:1;fill-rule:nonzero;stroke:none"
           d="m 198.5,117.5 h 1 V 221 h -1 z" /><path
           id="path198"
           style="fill:#000000;fill-opacity:1;fill-rule:nonzero;stroke:none"
           d="m 198.5,117 h 1 v 0.5 h -1 z" /><path
           id="path200"
           style="fill:#000000;fill-opacity:1;fill-rule:nonzero;stroke:none"
           d="m 199.5,221.5 h -1 V 221 h 1 z" /><path
           id="path202"
           style="fill:#000000;fill-opacity:1;fill-rule:nonzero;stroke:none"
           d="m 171.5,117.5 h 1 V 221 h -1 z" /><path
           id="path204"
           style="fill:#000000;fill-opacity:1;fill-rule:nonzero;stroke:none"
           d="m 171.5,117 h 1 v 0.5 h -1 z" /><path
           id="path206"
           style="fill:#000000;fill-opacity:1;fill-rule:nonzero;stroke:none"
           d="m 172.5,221.5 h -1 V 221 h 1 z" /><path
           id="path208"
           style="fill:#000000;fill-opacity:1;fill-rule:nonzero;stroke:none"
           d="m 147.5,117.5 h 1 V 221 h -1 z" /><path
           id="path210"
           style="fill:#000000;fill-opacity:1;fill-rule:nonzero;stroke:none"
           d="m 147.5,117 h 1 v 0.5 h -1 z" /><path
           id="path212"
           style="fill:#000000;fill-opacity:1;fill-rule:nonzero;stroke:none"
           d="m 148.5,221.5 h -1 V 221 h 1 z" /><g
           transform="translate(511.0005,79.5)"
           id="g214"><path
             id="path216"
             style="fill:#000000;fill-opacity:1;fill-rule:nonzero;stroke:none"
             d="m 0,0 h 1 v -0.5 h 52 v -49 H 1 V -50 H 0 v 0.5 h -52 v 31.293 L -34.293,-0.5 H 0 Z M -53,-17.793 V -50.5 H 54 v 51 h -88.707 z" /></g><path
           id="path218"
           style="fill:#000000;fill-opacity:1;fill-rule:nonzero;stroke:none"
           d="m 512,79 h -1 V 30 h 1 z" /><path
           id="path220"
           style="fill:#000000;fill-opacity:1;fill-rule:nonzero;stroke:none"
           d="m 511,29.5 h 1 V 30 h -1 z" /><path
           id="path222"
           style="fill:#000000;fill-opacity:1;fill-rule:nonzero;stroke:none"
           d="m 512,79.5 h -1 V 79 h 1 z" /><g
           transform="translate(28,197)"
           id="g224"><path
             id="path226"
             style="fill:#000000;fill-opacity:1;fill-rule:nonzero;stroke:none"
             d="m 0,0 v -6.721 l 80,-73 V -153 H 12 v -21 h -39 v -1 h 39.5 v 1 H 13 v 20 h 68 v 74.721 l -80,73 V 1 H -27 V 0 Z" /></g><g
           transform="translate(0.5,23)"
           id="g228"><path
             id="path230"
             style="fill:#000000;fill-opacity:1;fill-rule:nonzero;stroke:none"
             d="M 0,0 V -1 Z" /></g><g
           transform="translate(0.5,198)"
           id="g232"><path
             id="path234"
             style="fill:#000000;fill-opacity:1;fill-rule:nonzero;stroke:none"
             d="M 0,0 V -1 Z" /></g><path
           id="path236"
           style="fill:#000000;fill-opacity:1;fill-rule:nonzero;stroke:none"
           d="M 0.5,197 H 1 v 1 H 0.5 Z" /><path
           id="path238"
           style="fill:#000000;fill-opacity:1;fill-rule:nonzero;stroke:none"
           d="M 0.5,22 H 1 v 1 H 0.5 Z" /><g
           transform="translate(721.5005,22.5)"
           id="g240"><path
             id="path242"
             style="fill:#000000;fill-opacity:1;fill-rule:nonzero;stroke:none"
             d="m 0,0 v -22 h -26 v -0.5 H 0.5 v 23 h -24 V 0 Z" /></g><g
           transform="translate(697.5005,146)"
           id="g244"><path
             id="path246"
             style="fill:#000000;fill-opacity:1;fill-rule:nonzero;stroke:none"
             d="M 0,0 V 0.5 -123 H 0.5 V 0 Z" /></g><g
           transform="translate(698.0005,147)"
           id="g248"><path
             id="path250"
             style="fill:#000000;fill-opacity:1;fill-rule:nonzero;stroke:none"
             d="M 0,0 V 8.5 H -1 V -124 h 0.5 V -0.5 0 Z" /></g><g
           transform="translate(721.0005,22)"
           id="g252"><path
             id="path254"
             style="fill:#000000;fill-opacity:1;fill-rule:nonzero;stroke:none"
             d="m 0,0 v -21 h -25.5 v -0.5 h 26 v 22 H -23 V 0 Z" /></g><g
           transform="translate(735.5005,182.5)"
           id="g256"><path
             id="path258"
             style="fill:#000000;fill-opacity:1;fill-rule:nonzero;stroke:none"
             d="m 0,0 v -36 h -37.5 v -0.5 h 38 v 37 h -38 V 0 Z" /></g><g
           transform="translate(735.5005,146.5)"
           id="g260"><path
             id="path262"
             style="fill:#000000;fill-opacity:1;fill-rule:nonzero;stroke:none"
             d="m 0,0 v 36 h -37.5 v -0.5 h 37 v -35 h -37 V 0 Z" /></g><path
           id="path264"
           style="fill:#000000;fill-opacity:1;fill-rule:nonzero;stroke:none"
           d="m 697.5,182.5 h 0.5 v 0.5 h -0.5 z" /><path
           id="path266"
           style="fill:#000000;fill-opacity:1;fill-rule:nonzero;stroke:none"
           d="m 697.5,182 h 0.5 v 0.5 h -0.5 z" /><path
           id="path268"
           style="fill:#000000;fill-opacity:1;fill-rule:nonzero;stroke:none"
           d="m 697.5,146 h 0.5 v 0.5 h -0.5 z" /><path
           id="path270"
           style="fill:#000000;fill-opacity:1;fill-rule:nonzero;stroke:none"
           d="m 698,147 h -0.5 v -0.5 h 0.5 z" /><g
           transform="translate(292.0005,0.5)"
           id="g272"><path
             id="path274"
             style="fill:#000000;fill-opacity:1;fill-rule:nonzero;stroke:none"
             d="m 0,0 h -57.834 -1 -43.166 -1 -25 V -0.5 H 40 V 0 H 1 Z" /></g><path
           id="path276"
           style="fill:#000000;fill-opacity:1;fill-rule:nonzero;stroke:none"
           d="m 190,0.5 h 43.166 V 1 H 190 Z" /><path
           id="path278"
           style="fill:#000000;fill-opacity:1;fill-rule:nonzero;stroke:none"
           d="m 234.167,0.5 h 57.834 V 1 h -57.834 z" /><g
           transform="translate(310.7329,54.9434)"
           id="g280"><path
             id="path282"
             style="fill:#000000;fill-opacity:1;fill-rule:nonzero;stroke:none"
             d="m 0,0 -0.109,0.057 h -17.623 v 25 h -169 v -57 h 0.5 v -1 h 12.5 v 0.5 h 1 v -0.5 h 26 v -21.5 h 25 v 0.5 h -24 v 22 h -2.115 c -0.034,-0.763 -0.076,-0.806 -0.123,-0.853 l -0.354,0.353 -10e-4,0.5 v -0.5 l -0.491,0.082 c 0.005,0.052 0.01,0.21 0.015,0.418 h -36.931 v 56 h 36.835 c -0.001,0.164 -0.001,0.336 -0.002,0.498 l 1,0.004 c 0.001,-0.17 0.001,-0.333 0.002,-0.502 h 26.165 v 0.5 h 1 v -0.5 h 43.166 v 0.5 h 1 v -0.5 h 57.834 v -24.5 h 1 v -0.5 h 17.377 l 20.623,-10.803 v -42.197 h -38 v -0.5 h 39 v 43.302 z" /></g><path
           id="path284"
           style="fill:#000000;fill-opacity:1;fill-rule:nonzero;stroke:none"
           d="m 190,79 h -1 V 1 h 1 z" /><path
           id="path286"
           style="fill:#000000;fill-opacity:1;fill-rule:nonzero;stroke:none"
           d="m 190,1 h -1 V 0.5 h 1 z" /><path
           id="path288"
           style="fill:#000000;fill-opacity:1;fill-rule:nonzero;stroke:none"
           d="m 190,79.5 h -1 V 79 h 1 z" /><path
           id="path290"
           style="fill:#000000;fill-opacity:1;fill-rule:nonzero;stroke:none"
           d="m 234.167,79 h -1 V 1 h 1 z" /><path
           id="path292"
           style="fill:#000000;fill-opacity:1;fill-rule:nonzero;stroke:none"
           d="m 234.167,79.5 h -1 V 79 h 1 z" /><path
           id="path294"
           style="fill:#000000;fill-opacity:1;fill-rule:nonzero;stroke:none"
           d="m 233.167,0.5 h 1 V 1 h -1 z" /><path
           id="path296"
           style="fill:#000000;fill-opacity:1;fill-rule:nonzero;stroke:none"
           d="m 292,1 h 1 v 53 h -1 z" /><path
           id="path298"
           style="fill:#000000;fill-opacity:1;fill-rule:nonzero;stroke:none"
           d="m 293,54.5 h -1 V 54 h 1 z" /><path
           id="path300"
           style="fill:#000000;fill-opacity:1;fill-rule:nonzero;stroke:none"
           d="m 292,0.5 h 1 V 1 h -1 z" /><g
           transform="translate(162.8354,79)"
           id="g302"><path
             id="path304"
             style="fill:#000000;fill-opacity:1;fill-rule:nonzero;stroke:none"
             d="m 0,0 h -1 c 0.077,-18.398 0.188,-51.877 0.097,-56 h 0.475 0.479 C 0.161,-53.506 0.183,-43.297 0,0" /></g><g
           transform="translate(162.8335,79.502)"
           id="g306"><path
             id="path308"
             style="fill:#000000;fill-opacity:1;fill-rule:nonzero;stroke:none"
             d="m 0,0 -1,-0.004 c 0.001,-0.162 0.001,-0.334 0.002,-0.498 h 1 C 0.001,-0.333 0.001,-0.17 0,0" /></g><g
           transform="translate(162.4087,22.5)"
           id="g310"><path
             id="path312"
             style="fill:#000000;fill-opacity:1;fill-rule:nonzero;stroke:none"
             d="m 0,0 0.354,-0.353 c 0.047,0.047 0.089,0.09 0.124,0.853 h -0.479 z" /></g><g
           transform="translate(161.9165,22.582)"
           id="g314"><path
             id="path316"
             style="fill:#000000;fill-opacity:1;fill-rule:nonzero;stroke:none"
             d="m 0,0 0.491,-0.082 v 0.5 H 0.016 C 0.011,0.21 0.006,0.053 0,0" /></g><path
           id="path318"
           style="fill:#000000;fill-opacity:1;fill-rule:nonzero;stroke:none"
           d="m 138,22 h -1 v -4.833 h 1 z" /><path
           id="path320"
           style="fill:#000000;fill-opacity:1;fill-rule:nonzero;stroke:none"
           d="m 138,22.5 h -1 V 22 h 1 z" /><g
           transform="translate(119.9165,0.5)"
           id="g322"><path
             id="path324"
             style="fill:#000000;fill-opacity:1;fill-rule:nonzero;stroke:none"
             d="m 0,0 h -62.833 -1 -32.584 V -0.5 H 18.084 V 0 H 1 Z" /></g><path
           id="path326"
           style="fill:#000000;fill-opacity:1;fill-rule:nonzero;stroke:none"
           d="M 56.083,1 H 23.5 V 0.5 h 32.583 z" /><path
           id="path328"
           style="fill:#000000;fill-opacity:1;fill-rule:nonzero;stroke:none"
           d="m 57.083,0.5 h 62.833 V 1 H 57.083 Z" /><g
           transform="translate(137.0005,5.875)"
           id="g330"><path
             id="path332"
             style="fill:#000000;fill-opacity:1;fill-rule:nonzero;stroke:none"
             d="m 0,0 v -4.875 h -16.084 v -0.5 H 1 V 0 Z" /></g><g
           transform="translate(664.1255,0.5)"
           id="g334"><path
             id="path336"
             style="fill:#000000;fill-opacity:1;fill-rule:nonzero;stroke:none"
             d="m 0,0 h -1 -53.625 -1 -17.5 v -0.5 h 104.5 V 0 Z" /></g><g
           transform="translate(608.5005,1)"
           id="g338"><path
             id="path340"
             style="fill:#000000;fill-opacity:1;fill-rule:nonzero;stroke:none"
             d="m 0,0 h -16.5 v 4.5 h -1 v -5 H 0 Z" /></g><path
           id="path342"
           style="fill:#000000;fill-opacity:1;fill-rule:nonzero;stroke:none"
           d="m 609.5,0.5 h 53.625 V 1 H 609.5 Z" /><path
           id="path344"
           style="fill:#000000;fill-opacity:1;fill-rule:nonzero;stroke:none"
           d="M 664.125,0.5 H 695.5 V 1 h -31.375 z" /><path
           id="path346"
           style="fill:#000000;fill-opacity:1;fill-rule:nonzero;stroke:none"
           d="M 671.375,22 H 697 v 1 h -25.625 z" /><path
           id="path348"
           style="fill:#000000;fill-opacity:1;fill-rule:nonzero;stroke:none"
           d="M 697.5,22.5 H 698 V 23 h -0.5 z" /><g
           transform="translate(697.0005,22)"
           id="g350"><path
             id="path352"
             style="fill:#000000;fill-opacity:1;fill-rule:nonzero;stroke:none"
             d="M 0,0 H 1 V 0.5 H 0.5 V 1 H 0 Z" /></g><g
           transform="translate(609.5005,22.5)"
           id="g354"><path
             id="path356"
             style="fill:#000000;fill-opacity:1;fill-rule:nonzero;stroke:none"
             d="m 0,0 v -0.5 h 29 v 1 H -18.5 V -4 h 1 v 3.5 H -1 V 0 Z" /></g><path
           id="path358"
           style="fill:#000000;fill-opacity:1;fill-rule:nonzero;stroke:none"
           d="m 609.5,22 h -1 V 1 h 1 z" /><path
           id="path360"
           style="fill:#000000;fill-opacity:1;fill-rule:nonzero;stroke:none"
           d="m 608.5,0.5 h 1 V 1 h -1 z" /><path
           id="path362"
           style="fill:#000000;fill-opacity:1;fill-rule:nonzero;stroke:none"
           d="m 609.5,22.5 h -1 V 22 h 1 z" /><g
           transform="translate(663.1255,22)"
           id="g364"><path
             id="path366"
             style="fill:#000000;fill-opacity:1;fill-rule:nonzero;stroke:none"
             d="M 0,0 V -21 H 1 V 1 H -24.625 V 0 Z" /></g><path
           id="path368"
           style="fill:#000000;fill-opacity:1;fill-rule:nonzero;stroke:none"
           d="m 663.125,0.5 h 1 V 1 h -1 z" /><path
           id="path370"
           style="fill:#000000;fill-opacity:1;fill-rule:nonzero;stroke:none"
           d="m 662.5,221 h 8.5 v 1 h -8.5 z" /><g
           transform="translate(671.5005,221.5)"
           id="g372"><path
             id="path374"
             style="fill:#000000;fill-opacity:1;fill-rule:nonzero;stroke:none"
             d="M 0,0 V 0.5 Z" /></g><g
           transform="translate(671.5005,221.5)"
           id="g376"><path
             id="path378"
             style="fill:#000000;fill-opacity:1;fill-rule:nonzero;stroke:none"
             d="m 0,0 v 0.5 h -0.5 v -1 H 0 Z" /></g><path
           id="path380"
           style="fill:#000000;fill-opacity:1;fill-rule:nonzero;stroke:none"
           d="m 46,23 h -5 v -1 h 5 z" /><path
           id="path382"
           style="fill:#000000;fill-opacity:1;fill-rule:nonzero;stroke:none"
           d="M 40.5,22 H 41 v 1 h -0.5 z" /><g
           transform="translate(57.0835,22)"
           id="g384"><path
             id="path386"
             style="fill:#000000;fill-opacity:1;fill-rule:nonzero;stroke:none"
             d="M 0,0 H 62.833 V 1 H -1 v -22 h 1 z" /></g><path
           id="path388"
           style="fill:#000000;fill-opacity:1;fill-rule:nonzero;stroke:none"
           d="m 57.083,1 h -1 V 0.5 h 1 z" /><g
           transform="translate(119.9165,22)"
           id="g390"><path
             id="path392"
             style="fill:#000000;fill-opacity:1;fill-rule:nonzero;stroke:none"
             d="M 0,0 V -21 H 1 V 0 H 4.084 V 1 H 0.5 V 0 Z" /></g><path
           id="path394"
           style="fill:#000000;fill-opacity:1;fill-rule:nonzero;stroke:none"
           d="M 124.5,23 H 124 v -1 h 0.5 z" /><path
           id="path396"
           style="fill:#000000;fill-opacity:1;fill-rule:nonzero;stroke:none"
           d="m 119.917,0.5 h 1 V 1 h -1 z" /><path
           id="path398"
           style="fill:#000000;fill-opacity:1;fill-rule:nonzero;stroke:none"
           d="m 120.417,23 h -0.5 v -1 h 0.5 z" /><g
           id="g400"><g
             id="g402" /><g
             id="g528"><g
               style="opacity:0.30000299"
               id="g526"
               clip-path="url(#clipPath406)"><g
                 id="g410"
                 transform="translate(673.5005,11.5)"><path
                   id="path408"
                   style="fill:none;stroke:#000000;stroke-width:1;stroke-linecap:butt;stroke-linejoin:miter;stroke-miterlimit:10;stroke-dasharray:none;stroke-opacity:1"
                   d="M 0,0 H 35" /></g><path
                 id="path412"
                 style="fill:none;stroke:#000000;stroke-width:1;stroke-linecap:butt;stroke-linejoin:miter;stroke-miterlimit:10;stroke-dasharray:none;stroke-opacity:1"
                 d="m 674,22.5 h 34.5 V 0.5 H 674 Z" /><g
                 id="g416"
                 transform="translate(678.313,0.5)"><path
                   id="path414"
                   style="fill:none;stroke:#000000;stroke-width:1;stroke-linecap:butt;stroke-linejoin:miter;stroke-miterlimit:10;stroke-dasharray:none;stroke-opacity:1"
                   d="M 0,0 V 22" /></g><g
                 id="g420"
                 transform="translate(682.6255,0.5)"><path
                   id="path418"
                   style="fill:none;stroke:#000000;stroke-width:1;stroke-linecap:butt;stroke-linejoin:miter;stroke-miterlimit:10;stroke-dasharray:none;stroke-opacity:1"
                   d="M 0,0 V 22" /></g><g
                 id="g424"
                 transform="translate(686.938,0.5)"><path
                   id="path422"
                   style="fill:none;stroke:#000000;stroke-width:1;stroke-linecap:butt;stroke-linejoin:miter;stroke-miterlimit:10;stroke-dasharray:none;stroke-opacity:1"
                   d="M 0,0 V 22" /></g><g
                 id="g428"
                 transform="translate(691.2505,0.5)"><path
                   id="path426"
                   style="fill:none;stroke:#000000;stroke-width:1;stroke-linecap:butt;stroke-linejoin:miter;stroke-miterlimit:10;stroke-dasharray:none;stroke-opacity:1"
                   d="M 0,0 V 22" /></g><g
                 id="g432"
                 transform="translate(695.563,0.5)"><path
                   id="path430"
                   style="fill:none;stroke:#000000;stroke-width:1;stroke-linecap:butt;stroke-linejoin:miter;stroke-miterlimit:10;stroke-dasharray:none;stroke-opacity:1"
                   d="M 0,0 V 22" /></g><g
                 id="g436"
                 transform="translate(699.8755,0.5)"><path
                   id="path434"
                   style="fill:none;stroke:#000000;stroke-width:1;stroke-linecap:butt;stroke-linejoin:miter;stroke-miterlimit:10;stroke-dasharray:none;stroke-opacity:1"
                   d="M 0,0 V 22" /></g><g
                 id="g440"
                 transform="translate(704.188,0.5)"><path
                   id="path438"
                   style="fill:none;stroke:#000000;stroke-width:1;stroke-linecap:butt;stroke-linejoin:miter;stroke-miterlimit:10;stroke-dasharray:none;stroke-opacity:1"
                   d="M 0,0 V 22" /></g><g
                 id="g444"
                 transform="translate(5.5,11.5)"><path
                   id="path442"
                   style="fill:none;stroke:#000000;stroke-width:1;stroke-linecap:butt;stroke-linejoin:miter;stroke-miterlimit:10;stroke-dasharray:none;stroke-opacity:1"
                   d="M 0,0 H 35" /></g><path
                 id="path446"
                 style="fill:none;stroke:#000000;stroke-width:1;stroke-linecap:butt;stroke-linejoin:miter;stroke-miterlimit:10;stroke-dasharray:none;stroke-opacity:1"
                 d="M 6,22.5 H 40.5 V 0.5 H 6 Z" /><g
                 id="g450"
                 transform="translate(10.3125,0.5)"><path
                   id="path448"
                   style="fill:none;stroke:#000000;stroke-width:1;stroke-linecap:butt;stroke-linejoin:miter;stroke-miterlimit:10;stroke-dasharray:none;stroke-opacity:1"
                   d="M 0,0 V 22" /></g><g
                 id="g454"
                 transform="translate(14.625,0.5)"><path
                   id="path452"
                   style="fill:none;stroke:#000000;stroke-width:1;stroke-linecap:butt;stroke-linejoin:miter;stroke-miterlimit:10;stroke-dasharray:none;stroke-opacity:1"
                   d="M 0,0 V 22" /></g><g
                 id="g458"
                 transform="translate(18.9375,0.5)"><path
                   id="path456"
                   style="fill:none;stroke:#000000;stroke-width:1;stroke-linecap:butt;stroke-linejoin:miter;stroke-miterlimit:10;stroke-dasharray:none;stroke-opacity:1"
                   d="M 0,0 V 22" /></g><g
                 id="g462"
                 transform="translate(23.25,0.5)"><path
                   id="path460"
                   style="fill:none;stroke:#000000;stroke-width:1;stroke-linecap:butt;stroke-linejoin:miter;stroke-miterlimit:10;stroke-dasharray:none;stroke-opacity:1"
                   d="M 0,0 V 22" /></g><g
                 id="g466"
                 transform="translate(27.5625,0.5)"><path
                   id="path464"
                   style="fill:none;stroke:#000000;stroke-width:1;stroke-linecap:butt;stroke-linejoin:miter;stroke-miterlimit:10;stroke-dasharray:none;stroke-opacity:1"
                   d="M 0,0 V 22" /></g><g
                 id="g470"
                 transform="translate(31.875,0.5)"><path
                   id="path468"
                   style="fill:none;stroke:#000000;stroke-width:1;stroke-linecap:butt;stroke-linejoin:miter;stroke-miterlimit:10;stroke-dasharray:none;stroke-opacity:1"
                   d="M 0,0 V 22" /></g><g
                 id="g474"
                 transform="translate(36.1875,0.5)"><path
                   id="path472"
                   style="fill:none;stroke:#000000;stroke-width:1;stroke-linecap:butt;stroke-linejoin:miter;stroke-miterlimit:10;stroke-dasharray:none;stroke-opacity:1"
                   d="M 0,0 V 22" /></g><path
                 id="path476"
                 style="fill:none;stroke:#000000;stroke-width:1;stroke-linecap:butt;stroke-linejoin:miter;stroke-miterlimit:10;stroke-dasharray:none;stroke-opacity:1"
                 d="m 669.5,223.5 h -39 v 40 h 39 z" /><g
                 id="g480"
                 transform="translate(630.5005,263.5)"><path
                   id="path478"
                   style="fill:none;stroke:#000000;stroke-width:1;stroke-linecap:butt;stroke-linejoin:miter;stroke-miterlimit:10;stroke-dasharray:none;stroke-opacity:1"
                   d="M 0,0 39,-40" /></g><g
                 id="g484"
                 transform="translate(669.5005,263.5)"><path
                   id="path482"
                   style="fill:none;stroke:#000000;stroke-width:1;stroke-linecap:butt;stroke-linejoin:miter;stroke-miterlimit:10;stroke-dasharray:none;stroke-opacity:1"
                   d="M 0,0 -39,-40" /></g><path
                 id="path486"
                 style="fill:none;stroke:#000000;stroke-width:1;stroke-linecap:butt;stroke-linejoin:miter;stroke-miterlimit:10;stroke-dasharray:none;stroke-opacity:1"
                 d="m 733.25,148.542 h -33.5 V 180.5 h 33.5 z" /><g
                 id="g490"
                 transform="translate(699.7505,180.5)"><path
                   id="path488"
                   style="fill:none;stroke:#000000;stroke-width:1;stroke-linecap:butt;stroke-linejoin:miter;stroke-miterlimit:10;stroke-dasharray:none;stroke-opacity:1"
                   d="M 0,0 33.5,-31.958" /></g><g
                 id="g494"
                 transform="translate(733.2505,180.5)"><path
                   id="path492"
                   style="fill:none;stroke:#000000;stroke-width:1;stroke-linecap:butt;stroke-linejoin:miter;stroke-miterlimit:10;stroke-dasharray:none;stroke-opacity:1"
                   d="M 0,0 -33.5,-31.958" /></g><path
                 id="path496"
                 style="fill:none;stroke:#000000;stroke-width:1;stroke-linecap:butt;stroke-linejoin:miter;stroke-miterlimit:10;stroke-dasharray:none;stroke-opacity:1"
                 d="m 605.492,3 h -11.304 v 16.875 h 11.304 z" /><g
                 id="g500"
                 transform="translate(594.188,19.875)"><path
                   id="path498"
                   style="fill:none;stroke:#000000;stroke-width:1;stroke-linecap:butt;stroke-linejoin:miter;stroke-miterlimit:10;stroke-dasharray:none;stroke-opacity:1"
                   d="M 0,0 11.304,-16.875" /></g><g
                 id="g504"
                 transform="translate(605.4917,19.875)"><path
                   id="path502"
                   style="fill:none;stroke:#000000;stroke-width:1;stroke-linecap:butt;stroke-linejoin:miter;stroke-miterlimit:10;stroke-dasharray:none;stroke-opacity:1"
                   d="M 0,0 -11.304,-16.875" /></g><path
                 id="path506"
                 style="fill:none;stroke:#000000;stroke-width:1;stroke-linecap:butt;stroke-linejoin:miter;stroke-miterlimit:10;stroke-dasharray:none;stroke-opacity:1"
                 d="m 134.316,3 h -11.304 v 16.875 h 11.304 z" /><g
                 id="g510"
                 transform="translate(123.0122,19.875)"><path
                   id="path508"
                   style="fill:none;stroke:#000000;stroke-width:1;stroke-linecap:butt;stroke-linejoin:miter;stroke-miterlimit:10;stroke-dasharray:none;stroke-opacity:1"
                   d="M 0,0 11.304,-16.875" /></g><g
                 id="g514"
                 transform="translate(134.3159,19.875)"><path
                   id="path512"
                   style="fill:none;stroke:#000000;stroke-width:1;stroke-linecap:butt;stroke-linejoin:miter;stroke-miterlimit:10;stroke-dasharray:none;stroke-opacity:1"
                   d="M 0,0 -11.304,-16.875" /></g><path
                 id="path516"
                 style="fill:none;stroke:#000000;stroke-width:1;stroke-linecap:butt;stroke-linejoin:miter;stroke-miterlimit:10;stroke-dasharray:none;stroke-opacity:1"
                 d="M 28.75,200.25 H 3.036 v 18.766 H 28.75 Z" /><g
                 id="g520"
                 transform="translate(3.0361,219.0161)"><path
                   id="path518"
                   style="fill:none;stroke:#000000;stroke-width:1;stroke-linecap:butt;stroke-linejoin:miter;stroke-miterlimit:10;stroke-dasharray:none;stroke-opacity:1"
                   d="M 0,0 25.714,-18.766" /></g><g
                 id="g524"
                 transform="translate(28.75,219.0161)"><path
                   id="path522"
                   style="fill:none;stroke:#000000;stroke-width:1;stroke-linecap:butt;stroke-linejoin:miter;stroke-miterlimit:10;stroke-dasharray:none;stroke-opacity:1"
                   d="M 0,0 -25.714,-18.766" /></g></g></g></g></g></g></g></svg>