<?xml version="1.0" encoding="UTF-8" standalone="no"?>
<svg
   xmlns:dc="http://purl.org/dc/elements/1.1/"
   xmlns:cc="http://creativecommons.org/ns#"
   xmlns:rdf="http://www.w3.org/1999/02/22-rdf-syntax-ns#"
   xmlns:svg="http://www.w3.org/2000/svg"
   xmlns="http://www.w3.org/2000/svg"
   viewBox="0 0 736 266"
   version="1.1"
   id="svg536">
  

  <defs
     id="defs4">
    <style id="style01">
      .fon {
        fill:#fdd32f;
      }
      .active .fon {
        fill: #000;
      }
      .circle {
        fill:#ffffffff;
        opacity:0;
      }
      .active .circle {
        fill: #ffffff;
        opacity: 1;
      }
    </style>
  </defs>
  <title
     id="title6">Ресурс 1</title>
    <g
       id="gprofidoors">
      <rect
         id="rect12"
         height="103.5"
         width="37.330002"
         y="45"
         x="199.5"
         class="fon" />
      <circle
         style="display:inline;fill-opacity:1;stroke:none;stroke-width:2.5;stroke-miterlimit:4;stroke-dasharray:none;stroke-opacity:1"
         id="path5153-9-1-7-8-6-3-2-7-0-1-6-1-2"
         cx="218.44388"
         cy="96.860054"
         r="18.884211"
         class="circle" />
    </g>
    <g
       id="glegran">
      <rect
         id="rect10"
         height="103.5"
         width="26"
         y="45"
         x="172.5"
         class="fon" />
      <circle
         style="display:inline;fill-opacity:1;stroke:none;stroke-width:2.5;stroke-miterlimit:4;stroke-dasharray:none;stroke-opacity:1"
         id="path5153-9-1-7-8-6-3-2-7-0-1-6-1-2-8"
         cx="185.57458"
         cy="96.860054"
         r="18.884211"
         class="circle" />
    </g>
    <g
       id="glestnicy">
      <rect
         id="rect14"
         height="78"
         width="43.169998"
         y="187"
         x="190"
         class="fon" />
      <circle
         style="display:inline;fill-opacity:1;stroke:none;stroke-width:2.5;stroke-miterlimit:4;stroke-dasharray:none;stroke-opacity:1"
         id="path5153-9-1-7-8-6-3-2-7-0-1-6-1"
         cx="210.91135"
         cy="225.59814"
         r="18.884211"
         class="circle" />
    </g>
    <g
       id="gporogi">
      <rect
         id="rect16"
         height="103.5"
         width="23"
         y="45"
         x="148.5"
         class="fon" />
      <circle
         style="display:inline;fill-opacity:1;stroke:none;stroke-width:2.5;stroke-miterlimit:4;stroke-dasharray:none;stroke-opacity:1"
         id="path5153-9-1-7-8-6-3-2-7-0-1-6"
         cx="159.55305"
         cy="97.544838"
         r="18.884211"
         class="circle" />
    </g>
    <g
       id="godezhda">
      <polygon
         id="polygon18"
         points="234.17,265 292,265 292,212 292,211.5 292,187 234.17,187 "
         class="fon" />
      <circle
         style="display:inline;fill-opacity:1;stroke:none;stroke-width:2.5;stroke-miterlimit:4;stroke-dasharray:none;stroke-opacity:1"
         id="path5153-9-1-7-8-6-3-2-7-0-1"
         cx="262.26962"
         cy="225.59816"
         r="18.884211"
         class="circle" />
    </g>
    <g
       id="gdverfurnitura" >
      <polygon
         id="polygon20"
         points="331,265 331,222.8 310.38,212 293,212 293,265 "
         class="fon" />
      <circle
         style="display:inline;fill-opacity:1;stroke:none;stroke-width:2.5;stroke-miterlimit:4;stroke-dasharray:none;stroke-opacity:1"
         id="path5153-9-1-7-8-6-3-2-7-0"
         cx="312.25836"
         cy="240.66327"
         r="18.884211"
         class="circle" />
    </g>
    <g
       id="gsvet">
      <rect
         id="rect22"
         height="103.5"
         width="65"
         y="45"
         x="432.5"
         class="fon" />
      <circle
         style="display:inline;fill-opacity:1;stroke:none;stroke-width:2.5;stroke-miterlimit:4;stroke-dasharray:none;stroke-opacity:1"
         id="path5153-9-1-7-8-6-3-2-7"
         cx="463.59409"
         cy="96.860054"
         r="18.884211"
         class="circle" />
    </g>
    <g
       id="glepnina">
      <rect
         id="rect24"
         height="103.5"
         width="63"
         y="45"
         x="368.5"
         class="fon" />
      <circle
         style="display:inline;fill-opacity:1;stroke:none;stroke-width:2.5;stroke-miterlimit:4;stroke-dasharray:none;stroke-opacity:1"
         id="path5153-9-1-7-8-6-3-2"
         cx="399.22507"
         cy="96.860054"
         r="18.884211"
         class="circle" />
    </g>
    <g
       id="gabraziv">
      <path
         id="path26"
         d="M 161.84,187 H 125 v 56 h 36.93 c 0.07,-4.12 -0.02,-37.6 -0.09,-56 z"
         class="fon" />
      <circle
         style="display:inline;fill-opacity:1;stroke:none;stroke-width:2.5;stroke-miterlimit:4;stroke-dasharray:none;stroke-opacity:1"
         id="path5153-9-1-7-8-6-3"
         cx="142.43364"
         cy="214.64172"
         r="18.884211"
         class="circle" />
    </g>
    <g
       id="gkozha">
      <path
         id="path8"
         d="m 162.84,187 c 0.18,43.3 0.16,53.51 0,56 H 165 v 22 h 24 v -78 z"
         class="fon" />
      <circle
         style="display:inline;fill-opacity:1;stroke:none;stroke-width:2.5;stroke-miterlimit:4;stroke-dasharray:none;stroke-opacity:1"
         id="path5153-9-1-7-8-6-3-2-7-0-1-6-1-2-2"
         cx="175.98772"
         cy="223.54382"
         r="18.884211"
         class="circle" />
    </g>
    <g
       id="gmalyar">
      <rect
         id="rect28"
         height="103.5"
         width="36"
         y="45"
         x="274.5"
         class="fon" />
      <circle
         style="display:inline;fill-opacity:1;stroke:none;stroke-width:2.5;stroke-miterlimit:4;stroke-dasharray:none;stroke-opacity:1"
         id="path5153-9-1-7-8-6"
         cx="293.08459"
         cy="96.860054"
         r="18.884211"
         class="circle" />
    </g>
    <g
       id="ginzhsanteh">
      <rect
         id="rect30"
         height="103.5"
         width="56"
         y="45"
         x="311.5"
         class="fon" />
      <circle
         style="display:inline;fill-opacity:1;stroke:none;stroke-width:2.5;stroke-miterlimit:4;stroke-dasharray:none;stroke-opacity:1"
         id="path5153-9-1-7-8"
         cx="338.96466"
         cy="96.860054"
         r="18.884211"
         class="circle" />
    </g>
    <g
       id="gservis">
      <rect
         id="rect32"
         height="103.5"
         width="35.669998"
         y="45"
         x="237.83"
         class="fon" />
      <circle
         style="display:inline;fill-opacity:1;stroke:none;stroke-width:2.5;stroke-miterlimit:4;stroke-dasharray:none;stroke-opacity:1"
         id="path5153-9-1-7"
         cx="255.43826"
         cy="96.927444"
         r="18.884211"
         class="circle" />
    </g>
    <g
       id="gcement">
      <polygon
         id="polygon34"
         points="560.83,45 560.83,148.5 585.79,148.5 617.79,115.5 628,115.5 628,45 "
         class="fon" />
      <circle
         style="display:inline;fill-opacity:1;stroke:none;stroke-width:2.5;stroke-miterlimit:4;stroke-dasharray:none;stroke-opacity:1"
         id="path5153-9-1-1"
         cx="591.70526"
         cy="96.809959"
         r="18.884211"
         class="circle" />
    </g>
    <g
       id="gventilyaciya">
      <rect
         id="rect48"
         height="103.5"
         width="61.330002"
         y="45"
         x="498.5"
         class="fon" />
      <circle
         style="display:inline;fill-opacity:1;stroke:none;stroke-width:2.5;stroke-miterlimit:4;stroke-dasharray:none;stroke-opacity:1"
         id="path5153-9-1"
         cx="529.33264"
         cy="96.860054"
         r="18.884211"
         class="circle" />
    </g>
    <g
       id="grezka">
      <rect
         id="rect50"
         height="49"
         width="52"
         y="187"
         x="512"
         class="fon" />
      <circle
         style="display:inline;fill-opacity:1;stroke:none;stroke-width:2.5;stroke-miterlimit:4;stroke-dasharray:none;stroke-opacity:1"
         id="path5153-9-8"
         cx="537.55005"
         cy="210.53305"
         r="18.884211"
         class="circle" />
    </g>
    <g
       id="gsantehnika">
      <polygon
         id="polygon52"
         points="592,224.5 673.5,224.5 673.5,126 624.71,126 592,158.71 "
         class="fon" />
      <circle
         style="display:inline;fill-opacity:1;stroke:none;stroke-width:2.5;stroke-miterlimit:4;stroke-dasharray:none;stroke-opacity:1"
         id="path5153-9"
         cx="631.36444"
         cy="177.66376"
         r="18.884211"
         class="circle" />
    </g>
    <g
       id="gfurnitura" class="active">
      <polygon
         id="polygon54"
         points="459,236 511,236 511,187 476.71,187 459,204.71 "
         class="fon" />
      <circle
         style="fill-opacity:1;stroke:none;stroke-width:2.5;stroke-miterlimit:4;stroke-dasharray:none;stroke-opacity:1"
         id="path5153"
         cx="487.75214"
         cy="211.48094"
         r="18.884211"
         class="circle" />
    </g>
    <g
       id="gelektrika">
      <polygon
         class="fon"
         points="28,69 1,69 1,243 40,243 40,222 108,222 108,148.72 28,75.72 "
         id="polygon46"/>
      <circle
         style="display:inline;fill-opacity:1;stroke:none;stroke-width:2.5;stroke-miterlimit:4;stroke-dasharray:none;stroke-opacity:1"
         id="path5153-7"
         cx="47.934399"
         cy="172.18553"
         r="18.884211"
         class="circle" />
    </g>
    <g
       id="g5294">
      <polygon
         id="polygon56"
         points="273.5,148.5 237.83,148.5 237.83,149 236.83,149 236.83,148.5 199.5,148.5 199.5,149 198.5,149 198.5,148.5 172.5,148.5 172.5,149 171.5,149 171.5,148.5 148.5,148.5 148.5,149 147.5,149 147.5,148.5 124.2,148.5 46.5,75.78 46.5,45 45.5,45 45.5,76.22 123.66,149.37 123.8,149.5 586.21,149.5 618.21,116.5 673.5,116.5 673.5,125 673.5,126 673.5,224.5 592,224.5 592,158.71 624.71,126 673.5,126 673.5,125 624.29,125 591,158.29 591,225.5 674.5,225.5 674.5,115.5 629,115.5 629,116 628,116 628,115.5 617.79,115.5 585.79,148.5 560.83,148.5 560.83,149 559.83,149 559.83,148.5 498.5,148.5 498.5,149 497.5,149 497.5,148.5 432.5,148.5 432.5,149 431.5,149 431.5,148.5 368.5,148.5 368.5,149 367.5,149 367.5,148.5 311.5,148.5 311.5,149 310.5,149 310.5,148.5 274.5,148.5 274.5,149 273.5,149 " />
      <polygon
         id="polygon58"
         points="23.5,265.5 0.5,265.5 0.5,244 0.5,243 0.5,69 0.5,68 0.5,44.5 147.5,44.5 148.5,44.5 171.5,44.5 172.5,44.5 198.5,44.5 199.5,44.5 236.83,44.5 237.83,44.5 273.5,44.5 274.5,44.5 310.5,44.5 311.5,44.5 367.5,44.5 368.5,44.5 431.5,44.5 432.5,44.5 497.5,44.5 498.5,44.5 559.83,44.5 560.83,44.5 628,44.5 628,44 0,44 0,266 23.5,266 " />
      <rect
         id="rect60"
         height="0.5"
         width="61.330002"
         y="44.5"
         x="498.5" />
      <rect
         id="rect62"
         height="0.5"
         width="23"
         y="44.5"
         x="148.5" />
      <rect
         id="rect64"
         height="0.5"
         width="67.169998"
         y="44.5"
         x="560.83002" />
      <rect
         id="rect66"
         height="0.5"
         width="37.330002"
         y="44.5"
         x="199.5" />
      <rect
         id="rect68"
         height="0.5"
         width="35.669998"
         y="44.5"
         x="237.83" />
      <rect
         id="rect70"
         height="0.5"
         width="26"
         y="44.5"
         x="172.5" />
      <rect
         id="rect72"
         height="0.5"
         width="65"
         y="44.5"
         x="432.5" />
      <rect
         id="rect74"
         height="0.5"
         width="63"
         y="44.5"
         x="368.5" />
      <rect
         id="rect76"
         height="0.5"
         width="56"
         y="44.5"
         x="311.5" />
      <polygon
         id="polygon78"
         points="46.5,45 147.5,45 147.5,44.5 0.5,44.5 0.5,68 1,68 1,45 45.5,45 " />
      <rect
         id="rect80"
         height="0.5"
         width="36"
         y="44.5"
         x="274.5" />
      <polygon
         id="polygon82"
         points="0.5,244 0.5,265.5 23.5,265.5 23.5,265 1,265 1,244 " />
      <rect
         id="rect84"
         height="1"
         width="9.5"
         y="44"
         x="629" />
      <rect
         id="rect86"
         height="174"
         width="0.5"
         y="69"
         x="0.5" />
      <polygon
         id="polygon88"
         points="671.5,0.5 671.5,44 671.5,44.5 697.5,44.5 697.5,83.5 697.5,83 698,83 698,44 672,44 672,0 628,0 628,44 628.5,44 628.5,0.5 " />
      <rect
         id="rect90"
         height="70.5"
         width="1"
         y="45"
         x="628" />
      <polygon
         id="polygon92"
         points="671,1 671,44 671.5,44 671.5,0.5 628.5,0.5 628.5,44 629,44 629,1 " />
      <polygon
         id="polygon94"
         points="697,45 697,89.5 698,89.5 698,84 697.5,84 697.5,83.5 697.5,44.5 671.5,44.5 671.5,45 " />
      <rect
         id="rect96"
         height="0.5"
         width="1"
         y="115.5"
         x="628" />
      <rect
         id="rect98"
         height="0.5"
         width="0.5"
         y="44"
         x="628" />
      <polygon
         id="polygon100"
         points="629,45 629,44 628.5,44 628.5,44.5 629,44.5 628.5,44.5 628,44.5 628,45 " />
      <rect
         id="rect102"
         height="103.5"
         width="1"
         y="45"
         x="559.83002" />
      <rect
         id="rect104"
         height="0.5"
         width="1"
         y="148.5"
         x="559.83002" />
      <rect
         id="rect106"
         height="0.5"
         width="1"
         y="44.5"
         x="559.83002" />
      <rect
         id="rect108"
         height="103.5"
         width="1"
         y="45"
         x="497.5" />
      <rect
         id="rect110"
         height="0.5"
         width="1"
         y="148.5"
         x="497.5" />
      <rect
         id="rect112"
         height="0.5"
         width="1"
         y="44.5"
         x="497.5" />
      <rect
         id="rect114"
         height="103.5"
         width="1"
         y="45"
         x="431.5" />
      <rect
         id="rect116"
         height="0.5"
         width="1"
         y="148.5"
         x="431.5" />
      <rect
         id="rect118"
         height="0.5"
         width="1"
         y="44.5"
         x="431.5" />
      <rect
         id="rect120"
         height="103.5"
         width="1"
         y="45"
         x="367.5" />
      <rect
         id="rect122"
         height="0.5"
         width="1"
         y="148.5"
         x="367.5" />
      <rect
         id="rect124"
         height="0.5"
         width="1"
         y="44.5"
         x="367.5" />
      <rect
         id="rect126"
         height="103.5"
         width="1"
         y="45"
         x="310.5" />
      <rect
         id="rect128"
         height="0.5"
         width="1"
         y="148.5"
         x="310.5" />
      <rect
         id="rect130"
         height="0.5"
         width="1"
         y="44.5"
         x="310.5" />
      <rect
         id="rect132"
         height="103.5"
         width="1"
         y="45"
         x="273.5" />
      <rect
         id="rect134"
         height="0.5"
         width="1"
         y="148.5"
         x="273.5" />
      <rect
         id="rect136"
         height="0.5"
         width="1"
         y="44.5"
         x="273.5" />
      <rect
         id="rect138"
         height="103.5"
         width="1"
         y="45"
         x="236.83" />
      <rect
         id="rect140"
         height="0.5"
         width="1"
         y="148.5"
         x="236.83" />
      <rect
         id="rect142"
         height="0.5"
         width="1"
         y="44.5"
         x="236.83" />
      <rect
         id="rect144"
         height="103.5"
         width="1"
         y="45"
         x="198.5" />
      <rect
         id="rect146"
         height="0.5"
         width="1"
         y="148.5"
         x="198.5" />
      <rect
         id="rect148"
         height="0.5"
         width="1"
         y="44.5"
         x="198.5" />
      <rect
         id="rect150"
         height="103.5"
         width="1"
         y="45"
         x="171.5" />
      <rect
         id="rect152"
         height="0.5"
         width="1"
         y="148.5"
         x="171.5" />
      <rect
         id="rect154"
         height="0.5"
         width="1"
         y="44.5"
         x="171.5" />
      <rect
         id="rect156"
         height="103.5"
         width="1"
         y="45"
         x="147.5" />
      <rect
         id="rect158"
         height="0.5"
         width="1"
         y="148.5"
         x="147.5" />
      <rect
         id="rect160"
         height="0.5"
         width="1"
         y="44.5"
         x="147.5" />
      <path
         id="path162"
         d="M 458,204.29 V 237 h 107 v -51 h -88.71 z m 53,-17.79 h 1 v 0.5 h 52 v 49 h -52 v 0.5 h -1 V 236 H 459 V 204.71 L 476.71,187 H 511 Z" />
      <rect
         id="rect164"
         height="49"
         width="1"
         y="187"
         x="511" />
      <rect
         id="rect166"
         height="0.5"
         width="1"
         y="236"
         x="511" />
      <rect
         id="rect168"
         height="0.5"
         width="1"
         y="186.5"
         x="511" />
      <path
         d="M 735,119 V 84 h -37 v 5.5 h -1 V 45 H 662.5 V 44 H 671 V 1 h -42 v 43 h 9.5 v 1 H 629 v 70.5 h 45.5 v 110 H 591 V 158.29 L 624.29,125 h 49.21 v -8.5 h -55.29 l -32,33 H 123.8 L 123.66,149.37 45.5,76.22 V 45 H 1 v 23 h 28 v 7.28 l 80,73 V 223 H 41 v 20 h 5 v 1 H 1 v 21 H 56.08 V 243 H 124 v -57 h 169 v 25 h 17.62 l 0.11,0.06 21.27,11.14 v 43.3 h 259 v -5 h 1 v 4.5 h 16.5 V 244 H 592 v 3.5 h -1 V 243 h 73.13 v 22 H 721 v -21 h -49.62 v -1 H 697 V 110.5 h 1 V 119 Z M 565,237 H 458 V 204.29 L 476.29,186 H 565 Z"
         id="path44"
         style="fill:#ffffff" />
      <polygon
         points="663.13,244 638.5,244 609.5,244 609.5,265 663.13,265 "
         id="polygon42"
         style="fill:#ffffff" />
      <rect
         x="57.080002"
         y="244"
         width="62.830002"
         height="21"
         id="rect40"
         style="fill:#ffffff" />
      <polygon
         points="120.92,244 120.92,265 137,265 137,260.13 138,260.13 138,265.5 164,265.5 164,244 138,244 138,248.83 137,248.83 137,244 124.5,244 124,244 "
         id="polygon38"
         style="fill:#ffffff" />
      <polygon
         points="124.2,148.5 147.5,148.5 147.5,45 46.5,45 46.5,75.78 "
         id="polygon36"
         style="fill:#ffffff" />
    </g>
    <g
       id="g5216">
      <rect
         width="0"
         id="rect172"
         height="1"
         y="243"
         x="0.5" />
      <rect
         width="0"
         id="rect174"
         height="1"
         y="68"
         x="0.5" />
      <rect
         id="rect176"
         height="1"
         width="0.5"
         y="68"
         x="0.5" />
      <rect
         id="rect178"
         height="1"
         width="0.5"
         y="243"
         x="0.5" />
      <polygon
         id="polygon180"
         points="695.5,266 722,266 722,243 698,243 698,243.5 721.5,243.5 721.5,265.5 695.5,265.5 " />
      <polygon
         id="polygon182"
         points="697.5,119.5 697.5,243 698,243 698,120 697.5,120 " />
      <polygon
         id="polygon184"
         points="697.5,243 697.5,119.5 697.5,119 698,119 698,110.5 697,110.5 697,243 " />
      <polygon
         id="polygon186"
         points="721,265 695.5,265 695.5,265.5 721.5,265.5 721.5,243.5 698,243.5 698,244 721,244 " />
      <polygon
         id="polygon188"
         points="698,120 736,120 736,83 698,83 698,83.5 735.5,83.5 735.5,119.5 698,119.5 " />
      <polygon
         id="polygon190"
         points="735,119 698,119 698,119.5 735.5,119.5 735.5,83.5 698,83.5 698,84 735,84 " />
      <rect
         id="rect192"
         height="0.5"
         width="0.5"
         y="83"
         x="697.5" />
      <rect
         id="rect194"
         height="0.5"
         width="0.5"
         y="83.5"
         x="697.5" />
      <rect
         id="rect196"
         height="0.5"
         width="0.5"
         y="119.5"
         x="697.5" />
      <rect
         id="rect198"
         height="0.5"
         width="0.5"
         y="119"
         x="697.5" />
      <polygon
         id="polygon200"
         points="164,265.5 164,266 332,266 332,265.5 293,265.5 292,265.5 234.17,265.5 233.17,265.5 190,265.5 189,265.5 " />
      <rect
         id="rect202"
         height="0.5"
         width="43.169998"
         y="265"
         x="190" />
      <rect
         id="rect204"
         height="0.5"
         width="57.830002"
         y="265"
         x="234.17" />
      <path
         id="path206"
         d="M 310.73,211.06 310.62,211 H 293 V 186 H 124 v 57 h 0.5 v 1 H 137 v -0.5 h 1 v 0.5 h 26 v 21.5 h 25 V 265 h -24 v -22 h -2.11 c 0,0.76 -0.08,0.81 -0.13,0.85 l -0.35,-0.35 v 0 l -0.49,-0.08 c 0,0 0,-0.21 0,-0.42 H 125 v -56 h 36.84 v -0.5 h 1 V 187 H 189 v -0.5 h 1 v 0.5 h 43.17 v -0.5 h 1 V 187 H 292 v 24.5 h 1 v 0.5 h 17.38 L 331,222.8 V 265 h -38 v 0.5 h 39 v -43.3 z" />
      <rect
         id="rect208"
         height="78"
         width="1"
         y="187"
         x="189" />
      <rect
         id="rect210"
         height="0.5"
         width="1"
         y="265"
         x="189" />
      <rect
         id="rect212"
         height="0.5"
         width="1"
         y="186.5"
         x="189" />
      <rect
         id="rect214"
         height="78"
         width="1"
         y="187"
         x="233.17" />
      <rect
         id="rect216"
         height="0.5"
         width="1"
         y="186.5"
         x="233.17" />
      <rect
         id="rect218"
         height="0.5"
         width="1"
         y="265"
         x="233.17" />
      <rect
         id="rect220"
         height="53"
         width="1"
         y="212"
         x="292" />
      <rect
         id="rect222"
         height="0.5"
         width="1"
         y="211.5"
         x="292" />
      <rect
         id="rect224"
         height="0.5"
         width="1"
         y="265"
         x="292" />
      <path
         id="path226"
         d="m 162.84,187 h -1 c 0.07,18.4 0.18,51.88 0.09,56 h 1 c 0.07,-2.49 0.07,-12.7 -0.09,-56 z" />
      <path
         id="path228"
         d="m 162.83,186.5 h -1 v 0.5 h 1 z" />
      <path
         id="path230"
         d="m 162.41,243.5 0.35,0.35 c 0.05,0 0.09,-0.09 0.13,-0.85 h -0.48 z" />
      <path
         id="path232"
         d="m 161.92,243.42 0.49,0.08 V 243 h -0.48 c 0,0.21 -0.01,0.37 -0.01,0.42 z" />
      <rect
         id="rect234"
         height="4.8299999"
         width="1"
         y="244"
         x="137" />
      <rect
         id="rect236"
         height="0.5"
         width="1"
         y="243.5"
         x="137" />
      <polygon
         id="polygon238"
         points="138,266 138,265.5 120.92,265.5 119.92,265.5 57.08,265.5 56.08,265.5 23.5,265.5 23.5,266 " />
      <rect
         id="rect240"
         height="0.5"
         width="32.580002"
         y="265"
         x="23.5" />
      <rect
         id="rect242"
         height="0.5"
         width="62.830002"
         y="265"
         x="57.080002" />
      <polygon
         id="polygon244"
         points="120.92,265.5 138,265.5 138,260.13 137,260.13 137,265 120.92,265 " />
      <polygon
         id="polygon246"
         points="591,266 695.5,266 695.5,265.5 664.13,265.5 663.13,265.5 609.5,265.5 608.5,265.5 591,265.5 " />
      <polygon
         id="polygon248"
         points="592,265 592,260.5 591,260.5 591,265.5 608.5,265.5 608.5,265 " />
      <rect
         id="rect250"
         height="0.5"
         width="53.630001"
         y="265"
         x="609.5" />
      <rect
         id="rect252"
         height="0.5"
         width="31.379999"
         y="265"
         x="664.13" />
      <rect
         id="rect254"
         height="1"
         width="25.629999"
         y="243"
         x="671.38" />
      <rect
         id="rect256"
         height="0.5"
         width="0.5"
         y="243"
         x="697.5" />
      <polygon
         id="polygon258"
         points="697,243 697,244 698,244 698,243.5 697.5,243.5 697.5,243 " />
      <polygon
         id="polygon260"
         points="591,247.5 592,247.5 592,244 608.5,244 608.5,243.5 609.5,243.5 609.5,244 638.5,244 638.5,243 591,243 " />
      <rect
         id="rect262"
         height="21"
         width="1"
         y="244"
         x="608.5" />
      <rect
         id="rect264"
         height="0.5"
         width="1"
         y="265"
         x="608.5" />
      <rect
         id="rect266"
         height="0.5"
         width="1"
         y="243.5"
         x="608.5" />
      <polygon
         id="polygon268"
         points="664.13,243 638.5,243 638.5,244 663.13,244 663.13,265 664.13,265 " />
      <rect
         id="rect270"
         height="0.5"
         width="1"
         y="265"
         x="663.13" />
      <rect
         id="rect272"
         height="1"
         width="8.5"
         y="44"
         x="662.5" />
      <rect
         width="0"
         id="rect274"
         height="0.5"
         y="44"
         x="671.5" />
      <polygon
         id="polygon276"
         points="671.5,44 671,44 671,45 671.5,45 671.5,44.5 " />
      <rect
         id="rect278"
         height="1"
         width="5"
         y="243"
         x="41" />
      <rect
         id="rect280"
         height="1"
         width="0.5"
         y="243"
         x="40.5" />
      <polygon
         id="polygon282"
         points="57.08,265 57.08,244 119.92,244 119.92,243 56.08,243 56.08,265 " />
      <rect
         id="rect284"
         height="0.5"
         width="1"
         y="265"
         x="56.080002" />
      <polygon
         id="polygon286"
         points="124,243 120.42,243 120.42,244 119.92,244 119.92,265 120.92,265 120.92,244 124,244 " />
      <rect
         id="rect288"
         height="1"
         width="0.5"
         y="243"
         x="124" />
      <rect
         id="rect290"
         height="0.5"
         width="1"
         y="265"
         x="119.92" />
      <rect
         id="rect292"
         height="1"
         width="0.5"
         y="243"
         x="119.92" />
      <polygon
         id="polygon170"
         points="1,244 40.5,244 40.5,243 41,243 41,223 109,223 109,148.28 29,75.28 29,68 1,68 1,69 28,69 28,75.72 108,148.72 108,222 40,222 40,243 1,243 "/>
    </g>
    <g
       class="cls-3"
       id="g360"
       style="opacity:0.3">
      <line
         class="cls-4"
         x1="673.5"
         y1="254.5"
         x2="708.5"
         y2="254.5"
         id="line294"
         style="fill:none;stroke:#000000;stroke-miterlimit:10" />
      <rect
         class="cls-4"
         x="674"
         y="243.5"
         width="34.5"
         height="22"
         id="rect296"
         style="fill:none;stroke:#000000;stroke-miterlimit:10" />
      <line
         class="cls-4"
         x1="678.31"
         y1="265.5"
         x2="678.31"
         y2="243.5"
         id="line298"
         style="fill:none;stroke:#000000;stroke-miterlimit:10" />
      <line
         class="cls-4"
         x1="682.63"
         y1="265.5"
         x2="682.63"
         y2="243.5"
         id="line300"
         style="fill:none;stroke:#000000;stroke-miterlimit:10" />
      <line
         class="cls-4"
         x1="686.94"
         y1="265.5"
         x2="686.94"
         y2="243.5"
         id="line302"
         style="fill:none;stroke:#000000;stroke-miterlimit:10" />
      <line
         class="cls-4"
         x1="691.25"
         y1="265.5"
         x2="691.25"
         y2="243.5"
         id="line304"
         style="fill:none;stroke:#000000;stroke-miterlimit:10" />
      <line
         class="cls-4"
         x1="695.56"
         y1="265.5"
         x2="695.56"
         y2="243.5"
         id="line306"
         style="fill:none;stroke:#000000;stroke-miterlimit:10" />
      <line
         class="cls-4"
         x1="699.88"
         y1="265.5"
         x2="699.88"
         y2="243.5"
         id="line308"
         style="fill:none;stroke:#000000;stroke-miterlimit:10" />
      <line
         class="cls-4"
         x1="704.19"
         y1="265.5"
         x2="704.19"
         y2="243.5"
         id="line310"
         style="fill:none;stroke:#000000;stroke-miterlimit:10" />
      <line
         class="cls-4"
         x1="5.5"
         y1="254.5"
         x2="40.5"
         y2="254.5"
         id="line312"
         style="fill:none;stroke:#000000;stroke-miterlimit:10" />
      <rect
         class="cls-4"
         x="6"
         y="243.5"
         width="34.5"
         height="22"
         id="rect314"
         style="fill:none;stroke:#000000;stroke-miterlimit:10" />
      <line
         class="cls-4"
         x1="10.31"
         y1="265.5"
         x2="10.31"
         y2="243.5"
         id="line316"
         style="fill:none;stroke:#000000;stroke-miterlimit:10" />
      <line
         class="cls-4"
         x1="14.63"
         y1="265.5"
         x2="14.63"
         y2="243.5"
         id="line318"
         style="fill:none;stroke:#000000;stroke-miterlimit:10" />
      <line
         class="cls-4"
         x1="18.940001"
         y1="265.5"
         x2="18.940001"
         y2="243.5"
         id="line320"
         style="fill:none;stroke:#000000;stroke-miterlimit:10" />
      <line
         class="cls-4"
         x1="23.25"
         y1="265.5"
         x2="23.25"
         y2="243.5"
         id="line322"
         style="fill:none;stroke:#000000;stroke-miterlimit:10" />
      <line
         class="cls-4"
         x1="27.559999"
         y1="265.5"
         x2="27.559999"
         y2="243.5"
         id="line324"
         style="fill:none;stroke:#000000;stroke-miterlimit:10" />
      <line
         class="cls-4"
         x1="31.879999"
         y1="265.5"
         x2="31.879999"
         y2="243.5"
         id="line326"
         style="fill:none;stroke:#000000;stroke-miterlimit:10" />
      <line
         class="cls-4"
         x1="36.189999"
         y1="265.5"
         x2="36.189999"
         y2="243.5"
         id="line328"
         style="fill:none;stroke:#000000;stroke-miterlimit:10" />
      <rect
         class="cls-4"
         x="630.5"
         y="2.5"
         width="39"
         height="40"
         id="rect330"
         style="fill:none;stroke:#000000;stroke-miterlimit:10" />
      <line
         class="cls-4"
         x1="630.5"
         y1="2.5"
         x2="669.5"
         y2="42.5"
         id="line332"
         style="fill:none;stroke:#000000;stroke-miterlimit:10" />
      <line
         class="cls-4"
         x1="669.5"
         y1="2.5"
         x2="630.5"
         y2="42.5"
         id="line334"
         style="fill:none;stroke:#000000;stroke-miterlimit:10" />
      <rect
         class="cls-4"
         x="699.75"
         y="85.5"
         width="33.5"
         height="31.959999"
         id="rect336"
         style="fill:none;stroke:#000000;stroke-miterlimit:10" />
      <line
         class="cls-4"
         x1="699.75"
         y1="85.5"
         x2="733.25"
         y2="117.46"
         id="line338"
         style="fill:none;stroke:#000000;stroke-miterlimit:10" />
      <line
         class="cls-4"
         x1="733.25"
         y1="85.5"
         x2="699.75"
         y2="117.46"
         id="line340"
         style="fill:none;stroke:#000000;stroke-miterlimit:10" />
      <rect
         class="cls-4"
         x="594.19"
         y="246.13"
         width="11.3"
         height="16.879999"
         id="rect342"
         style="fill:none;stroke:#000000;stroke-miterlimit:10" />
      <line
         class="cls-4"
         x1="594.19"
         y1="246.13"
         x2="605.48999"
         y2="263"
         id="line344"
         style="fill:none;stroke:#000000;stroke-miterlimit:10" />
      <line
         class="cls-4"
         x1="605.48999"
         y1="246.13"
         x2="594.19"
         y2="263"
         id="line346"
         style="fill:none;stroke:#000000;stroke-miterlimit:10" />
      <rect
         class="cls-4"
         x="123.01"
         y="246.13"
         width="11.3"
         height="16.879999"
         id="rect348"
         style="fill:none;stroke:#000000;stroke-miterlimit:10" />
      <line
         class="cls-4"
         x1="123.01"
         y1="246.13"
         x2="134.32001"
         y2="263"
         id="line350"
         style="fill:none;stroke:#000000;stroke-miterlimit:10" />
      <line
         class="cls-4"
         x1="134.32001"
         y1="246.13"
         x2="123.01"
         y2="263"
         id="line352"
         style="fill:none;stroke:#000000;stroke-miterlimit:10" />
      <rect
         class="cls-4"
         x="3.04"
         y="46.98"
         width="25.709999"
         height="18.77"
         id="rect354"
         style="fill:none;stroke:#000000;stroke-miterlimit:10" />
      <line
         class="cls-4"
         x1="3.04"
         y1="46.98"
         x2="28.75"
         y2="65.75"
         id="line356"
         style="fill:none;stroke:#000000;stroke-miterlimit:10" />
      <line
         class="cls-4"
         x1="28.75"
         y1="46.98"
         x2="3.04"
         y2="65.75"
         id="line358"
         style="fill:none;stroke:#000000;stroke-miterlimit:10" />
    </g>
    <g
       id="g5130"
       style="display:inline">
      <path
         d="m 37.4,182.29 h 13.3 a 8.15,8.15 0 0 0 3.21,-0.58 4.06,4.06 0 0 0 1.93,-1.62 3.68,3.68 0 0 0 0.32,-0.74 3.18,3.18 0 0 0 0,-1.62 3.32,3.32 0 0 0 -0.28,-0.78 4,4 0 0 0 -1.66,-1.69 5.81,5.81 0 0 0 -2.62,-0.69 c -1.64,-0.05 -3.31,0 -5,0 h -4.26 a 7.89,7.89 0 0 1 -3.09,-0.54 v 0 a 4.29,4.29 0 0 1 -2,-1.63 3.21,3.21 0 0 1 -0.37,-0.8 3,3 0 0 1 -0.12,-0.84 3.06,3.06 0 0 1 0.12,-0.85 3.11,3.11 0 0 1 0.36,-0.79 4.26,4.26 0 0 1 2,-1.63 7.48,7.48 0 0 1 3,-0.55 v 0 h 4.62 m 5.98,4.68 v -9.29 m -0.54,1 h -1.57 c -1.27,0 -4,1.44 -4,2.35 v 2.67 c 0,0.9 2.68,2.36 4,2.35 h 1.57 m 3.98,-5.53 h -3.07 m 3.07,3.61 h -3.07"
         style="fill:none;stroke:#000000;stroke-linecap:round;stroke-linejoin:round"
         id="path366" />
      <path
         d="m 152.21001,222.09 -0.97,0.29 m -2.30001,0.7 -2.36999,0.76 m -4.24001,0.98001 h 7.45999 m -1,0 h 3.67002 M 137.33,206.7 l 3.72,3.72 m 5.84999,5.85 3.79001,3.79 m -3.36,3.35 -3.78,-3.78 m -5.86,-5.86 -3.71,-3.71 m 13.03,4.94 a 4.7399998,4.7399998 0 0 1 -4.74,4.74 4.7399998,4.7399998 0 0 1 -4.74,-4.74 4.7399998,4.7399998 0 0 1 4.74,-4.74 4.7399998,4.7399998 0 0 1 4.74,4.74 z m -2.37,0 a 2.3699999,2.3699999 0 0 1 -2.37,2.37 2.3699999,2.3699999 0 0 1 -2.37,-2.37 2.3699999,2.3699999 0 0 1 2.37,-2.37 2.3699999,2.3699999 0 0 1 2.37,2.37 z m 7.45,0 a 9.8199997,9.8199997 0 0 1 -9.82,9.82 9.8199997,9.8199997 0 0 1 -9.82,-9.82 9.8199997,9.8199997 0 0 1 9.82,-9.82 9.8199997,9.8199997 0 0 1 9.82,9.82 z"
         style="fill:none;stroke:#000000;stroke-linecap:round;stroke-linejoin:round"
         id="line388" />
      <path
         style="fill:none;stroke:#000000;stroke-linecap:round;stroke-linejoin:round"
         id="path390"
         d="m 167.31,219.83 1.75,-2.77 h 0.07 a 3.1,3.1 0 0 0 5.11,-2.16 c 0.08,-0.13 0.32,-0.1 1.57,-0.1 H 176 c 1.24,0 1.48,0 1.56,0.1 a 3.11,3.11 0 0 0 5.12,2.16 h 0.07 l 1.75,2.77 c -1.81,0.7 -2.95,1.77 -2.95,4.54 a 5,5 0 0 0 3.2,5.14 l -1.83,3 c -2.75,-1.43 -5.6,0.15 -7,2.28 v 0 c -1.43,-2.13 -4.29,-3.71 -7,-2.28 l -1.83,-3 a 5,5 0 0 0 3.21,-5.14 c 0,-2.77 -1.14,-3.84 -2.95,-4.54 z"
         class="cls-5" />
      <path
         d="m 199.49,226.78 15.47,-11.96 h 3.5 m -3.49999,1e-5 V 220.47 M 210.63,223.78999 V 218.17 m -4.38,9.25999 V 221.55 m -4.53,9.14 v -5.64 m 16.21,-4.58 h -4.8 v 3.32 h -4 v 3.64 h -4.79 v 3.26 h -4.11 v 4.13 h 17.7 z"
         style="fill:none;stroke:#000000;stroke-linecap:round;stroke-linejoin:round"
         id="polyline402" />
      <path
         style="fill:none;stroke:#000000;stroke-linecap:round;stroke-linejoin:round"
         id="path404"
         d="m 266.85,221.15 c 0,3 -1.69,5.5 -3.77,5.5 -2.08,0 -3.75,-2.46 -3.76,-5.5"
         class="cls-5" />
      <path
         style="fill:none;stroke:#000000;stroke-linecap:round;stroke-linejoin:round"
         id="path406"
         d="m 268.27,220 v 0 a 0.14,0.14 0 0 1 0,0.06 c -0.2,0.43 -2.29,0.7 -4.9,0.72 h -0.53 c -2.62,0 -4.71,-0.29 -4.91,-0.72 a 0.13,0.13 0 0 1 0,-0.06 v 0 c 0,-0.47 0.39,-0.79 1,-0.77 v -0.6 c 0,-5.08 8.29,-5.06 8.29,0 v 0.6 c 0.65,0 1,0.3 1,0.77 z"
         class="cls-5" />
      <path
         style="fill:none;stroke:#000000;stroke-linecap:round;stroke-linejoin:round"
         id="path408"
         d="m 255.93,228.53 1.11,-0.48 0.24,6.77 h -3.37 l 0.65,-4.92 a 1.75,1.75 0 0 1 0.44,-1 c 0.23,-0.25 0.58,-0.26 0.93,-0.41 z"
         class="cls-5" />
      <path
         style="fill:none;stroke:#000000;stroke-linecap:round;stroke-linejoin:round"
         id="path410"
         d="m 269.06,228.05 1.18,0.48 c 0.69,0.29 1.27,0.63 1.37,1.37 l 0.65,4.92 h -3.44 z"
         class="cls-5" />
      <polyline
         style="fill:none;stroke:#000000;stroke-linecap:round;stroke-linejoin:round"
         id="polyline412"
         points="257.42 227.87 259.38 226.84 259.67 232.04 266.49 232.04 266.79 226.84 268.75 227.87"
         class="cls-5" />
      <line
         style="fill:none;stroke:#000000;stroke-linecap:round;stroke-linejoin:round"
         id="line414"
         y2="234.82001"
         x2="257.48001"
         y1="234.82001"
         x1="268.69"
         class="cls-5" />
      <line
         style="fill:none;stroke:#000000;stroke-linecap:round;stroke-linejoin:round"
         id="line416"
         y2="217.69"
         x2="262.16"
         y1="214.91"
         x1="262.16"
         class="cls-5" />
      <line
         style="fill:none;stroke:#000000;stroke-linecap:round;stroke-linejoin:round"
         id="line418"
         y2="217.69"
         x2="264.07001"
         y1="214.91"
         x1="264.07001"
         class="cls-5" />
      <path
         style="fill:none;stroke:#000000;stroke-linecap:round;stroke-linejoin:round"
         id="path420"
         d="m 315.75,235.81 v -3.2 a 1.18,1.18 0 0 0 -1.17,-1.18 h -7.7 a 1.17,1.17 0 0 0 -1.17,1.18 v 17.65 a 1.17,1.17 0 0 0 1.17,1.17 h 7.7 a 1.17,1.17 0 0 0 1.17,-1.17 v -10.71"
         class="cls-5" />
      <path
         style="fill:none;stroke:#000000;stroke-linecap:round;stroke-linejoin:round"
         id="path422"
         d="m 310.92,239.69 14.79,-0.41 v -3.14 l -14.79,-0.41 a 2,2 0 0 0 -2,2 v 0 a 2,2 0 0 0 2,1.96 z"
         class="cls-5" />
      <path
         style="fill:none;stroke:#000000;stroke-linecap:round;stroke-linejoin:round"
         id="path424"
         d="m 312.52,243.66 a 1.79,1.79 0 1 0 -2.82,1.47 v 2 a 1,1 0 0 0 1,1 v 0 a 1,1 0 0 0 1,-1 v -2 a 1.79,1.79 0 0 0 0.82,-1.47 z"
         class="cls-5" />
      <path
         d="m 154.23,95.660004 7.26001,-6.770005 m -0.48002,13.540001 7.25,-6.769996 M 162.17,107 l 7.34,-6.52 a 1.48,1.48 0 0 0 0.49,-1.1 v -1.11 a 3.47,3.47 0 0 0 -3.48,-3.47 v 0 A 3.48,3.48 0 0 1 163,91.32 v 0 a 3.47,3.47 0 0 0 -3.47,-3.48 h -1.15 a 1.6,1.6 0 0 0 -1,0.39 L 150,94.8 m 5.22,3.47 v 0 A 3.47,3.47 0 0 0 151.74,94.8 H 150 V 107 h 12.17 v -1.74 a 3.47,3.47 0 0 0 -3.47,-3.48 v 0 a 3.48,3.48 0 0 1 -3.48,-3.51 z"
         style="fill:none;stroke:#000000;stroke-linecap:round;stroke-linejoin:round"
         id="line432" />
      <path
         d="m 184.82,97.88 a 0.5,0.5 0 1 1 -0.49,0.49 0.49,0.49 0 0 1 0.49,-0.49 z m -5.39,-10.28 7.47,2.49 a 0.43,0.43 0 0 1 0.27,0.39 v 16.7 a 0.2,0.2 0 0 1 -0.27,0.21 l -7.47,-2.49 a 0.43,0.43 0 0 1 -0.27,-0.39 v -16.7 a 0.2,0.2 0 0 1 0.27,-0.21 z m 0.01,0.22 a 0.42,0.42 0 0 1 0.42,-0.42 h 11.56 a 0.42,0.42 0 0 1 0.42,0.42 v 16.47 a 0.41,0.41 0 0 1 -0.42,0.41 h -4.21"
         style="fill:none;stroke:#000000;stroke-linecap:round;stroke-linejoin:round"
         id="path438" />
      <path
         d="m 217.25,97.88 a 0.5,0.5 0 1 1 -0.49,0.49 0.49,0.49 0 0 1 0.49,-0.49 z m -5.39,-10.28 7.47,2.49 a 0.44,0.44 0 0 1 0.27,0.39 v 16.7 a 0.2,0.2 0 0 1 -0.27,0.21 l -7.47,-2.49 a 0.43,0.43 0 0 1 -0.27,-0.39 v -16.7 a 0.2,0.2 0 0 1 0.27,-0.21 z m 0.01,0.22 a 0.42,0.42 0 0 1 0.42,-0.42 h 11.56 a 0.42,0.42 0 0 1 0.42,0.42 v 16.47 a 0.41,0.41 0 0 1 -0.42,0.41 h -4.21"
         style="fill:none;stroke:#000000;stroke-linecap:round;stroke-linejoin:round"
         id="path444" />
      <path
         style="fill:none;stroke:#000000;stroke-linecap:round;stroke-linejoin:round"
         id="path446"
         d="m 256.54,95.38 c -0.35,0.78 0.2,1.9 0.33,2.26 h -2.08 m -7.12,5.16 h 8.88 a 0.38,0.38 0 0 1 0.39,0.37 v 2.46 a 0.38,0.38 0 0 1 -0.39,0.37 h -8.88 a 0.39,0.39 0 0 1 -0.39,-0.37 v -2.46 a 0.39,0.39 0 0 1 0.39,-0.37 z m 14,-13.15 h 1 c 0,0 1.23,1.14 1.23,1.45 v 1.56 c 0,0.32 -1.19,1.45 -1.23,1.45 h -1 m -13.1,8.57 a 0.68,0.68 0 0 1 -0.56,-0.94 l 1.55,-4.8 a 1.87,1.87 0 0 0 -0.83,-1.92 c -0.63,-0.38 -1.36,-0.58 -1.36,-1.3 v -3.61 a 1.33,1.33 0 0 1 1.36,-1.3 h 11.17 a 1.33,1.33 0 0 1 1.35,1.3 v 3.61 a 1.33,1.33 0 0 1 -1.35,1.3 h -3.57 a 1.88,1.88 0 0 0 -1.52,1.33 26.75,26.75 0 0 0 -1.29,3.85 2.86,2.86 0 0 0 1.2,2.33 h -0.16 m 9.35,-10.66 h 3.35 m -17.43,0.77 1.31,-1.8 m 0.89,1.8 1.32,-1.8"
         class="cls-5" />
      <path
         d="m 302.26,96.68 -9.13,-9.13 a 0.51,0.51 0 0 0 -0.72,0 l -3,3 a 0.53,0.53 0 0 0 0,0.73 l 9.13,9.13 a 0.52,0.52 0 0 0 0.73,0 l 3,-3 a 0.52,0.52 0 0 0 0,-0.73 z m -12.26,4.53 0.61,0.62 a 0.56,0.56 0 0 1 0,0.81 l -4.6,4.6 a 0.58,0.58 0 0 1 -0.81,0 l -2,-2 a 0.57,0.57 0 0 1 0,-0.81 l 4.6,-4.6 a 0.58,0.58 0 0 1 0.81,0 l 0.61,0.62 0.78,0.77 z m 11.57,-2.35 1.2,1.2 a 0.55,0.55 0 0 1 0,0.77 l -2.45,2.45 a 0.55,0.55 0 0 1 -0.61,0.17 l -8.87,-3.87 -1.23,1.24"
         style="fill:none;stroke:#000000;stroke-linecap:round;stroke-linejoin:round"
         id="path450" />
      <path
         style="fill:none;stroke:#000000;stroke-linecap:round;stroke-linejoin:round"
         id="path452"
         d="m 329.5,89.48 h 1.13 a 0.51,0.51 0 0 1 0.49,0.39 V 95 a 0.51,0.51 0 0 1 -0.49,0.4 h -1.13 z m 18,-1.93 c 0,2.36 0,3.17 0,5.52 m 0,0 h 2 m -8,0 h 2 m 0,0 v -5.52 m 4.6,7.29 c 0,1.62 0,2.45 0,4.08 a 0.51,0.51 0 0 1 -0.5,0.5 h -4.15 a 0.51,0.51 0 0 1 -0.5,-0.5 v -4.07 h -0.17 a 0.5,0.5 0 0 1 -0.51,-0.5 v -0.8 a 0.51,0.51 0 0 1 0.43,-0.47 h 5.65 a 0.52,0.52 0 0 1 0.43,0.47 v 0.8 a 0.51,0.51 0 0 1 -0.51,0.5 z M 331.46,90 h 1 a 0.51,0.51 0 0 1 0.44,0.25 v 4.38 a 0.52,0.52 0 0 1 -0.44,0.25 h -1 m 1.94,-4.24 h 0.6 c 4.2,0 6,2 6,6.18 v 0.6 m -3.54,0 v -0.6 c 0,-1.78 -0.92,-2.65 -2.48,-2.66 h -0.61 m 13.85,5.76 a 6.16,6.16 0 0 1 -3.13,5.54 4.6,4.6 0 0 1 -0.61,0.25 c 0,0 0,0 0,0.06 v 1.48 m -3.61,0 v -1.48 a 0.55,0.55 0 0 1 0,-0.18 l -0.3,-0.13 a 5.82,5.82 0 0 1 -3.14,-5.55 v -0.33 h -0.16 a 0.51,0.51 0 0 1 -0.5,-0.51 v -0.62 a 0.5,0.5 0 0 1 0.5,-0.5 h 0.16 v 0 H 340 v 0 h 0.18 a 0.5,0.5 0 0 1 0.5,0.5 v 0.62 a 0.51,0.51 0 0 1 -0.5,0.51 H 340 v 0.33 a 2.46,2.46 0 0 0 1.13,2.38 1.75,1.75 0 0 0 0.72,0.15 1.71,1.71 0 0 0 0.71,-0.15 2.86,2.86 0 0 0 1.13,-2.37"
         class="cls-5" />
      <path
         d="m 397.12,104.3 h -6.22999 m 11.87,-14.020001 h -11.87 m 11.87,3.559997 h -11.87 M 409.11,87.47 390.89,87.4 v 20 h 6.23 v -3.1 c -4.11,-4.21 -0.59,-10.46 5.64,-10.46 v -3.56 h 3.41 c 0,-0.41 0.17,-0.79 1.06,-0.9 a 2.89,2.89 0 0 0 1.88,-1.91 z"
         style="fill:none;stroke:#000000;stroke-linecap:round;stroke-linejoin:round"
         id="line460" />
      <path
         d="m 472.05,96.08 a 3.28,3.28 0 0 1 0.06,0.63 3.14,3.14 0 0 1 -0.24,1.23 3.29,3.29 0 0 1 -1.67,1.67 3.14,3.14 0 0 1 -1.23,0.24 3.28,3.28 0 0 1 -0.63,-0.06 3.09,3.09 0 0 1 -0.59,-0.18 l -0.27,-0.14 a 2.2,2.2 0 0 1 -0.26,-0.15 l -0.25,-0.18 m -9.45001,-2.059998 3.18002,8.449998 M 463.25,90.959999 457.84,94.220001 M 456.63,93.72 a 1.71,1.71 0 1 0 1.71,1.71 1.71,1.71 0 0 0 -1.71,-1.71 z m 8.1,-6.21 -1.26,0.72 c -0.81,0.48 -0.61,2.37 0.45,4.21 l 0.14,0.23 4.22,-2.43 -0.14,-0.24 c -1.06,-1.84 -2.6,-3 -3.41,-2.49 z m 2.89,3.11 -2.91,1.68 c -1.89,1.09 -2,4.39 -0.36,7.33 l 0.22,0.37 9.8,-5.66 -0.22,-0.37 c -1.7,-2.94 -4.63,-4.45 -6.53,-3.35 z m -1.83,15.02 a 0.8,0.8 0 0 1 0.68,0.88 v 0 a 0.8,0.8 0 0 1 -0.68,0.88 h -10.18 a 0.79,0.79 0 0 1 -0.68,-0.88 v 0 a 0.8,0.8 0 0 1 0.68,-0.88 z"
         style="fill:none;stroke:#000000;stroke-linecap:round;stroke-linejoin:round"
         id="path474" />
      <path
         d="m 529.17,95.25 a 2.16,2.16 0 1 1 -2.17,2.15 2.15,2.15 0 0 1 2.16,-2.15 z m 0,1.63 a 0.53,0.53 0 0 1 0.52,0.52 0.52,0.52 0 0 1 -0.52,0.52 0.52,0.52 0 0 1 -0.52,-0.52 0.52,0.52 0 0 1 0.52,-0.52 z m 0,-9.48 a 10,10 0 1 1 -7.07,2.93 10,10 0 0 1 7.07,-2.93 z M 527,97.11 a 7.48,7.48 0 0 1 -3.93,-2.69 c -1.69,-2.48 2.14,-4.69 4.29,-5 1.85,-0.28 4.48,-0.25 5.17,0.81 a 1.56,1.56 0 0 1 -0.67,2.35 3.51,3.51 0 0 0 -2.12,2.78 m 0.01,4.12 a 7.47,7.47 0 0 1 -0.35,4.81 c -1.3,2.71 -5.13,0.49 -6.49,-1.21 -1.17,-1.46 -2.45,-3.75 -1.88,-4.87 a 1.56,1.56 0 0 1 2.37,-0.6 3.63,3.63 0 0 0 3.69,0.37 m 3.55,-2.14 a 7.42,7.42 0 0 1 4.16,-1.94 c 3,-0.22 3,4.2 2.2,6.22 -0.68,1.75 -2,4 -3.28,4.07 a 1.56,1.56 0 0 1 -1.71,-1.75 3.58,3.58 0 0 0 -1.49,-3.36"
         style="fill:none;stroke:#000000;stroke-linecap:round;stroke-linejoin:round"
         id="path486" />
      <path
         d="m 586.67999,89.800003 h 5.37 M 587.79,104.15 h -2.85 v -8.84 l 1.74,-5.51 v -2.4 h 10.73 v 2.4 l 1.75,5.51 v 6.98 m -8.3,-1.16 h -1.71 A 1.17,1.17 0 0 1 588,100 v -2.72 a 1.17,1.17 0 0 1 1.17,-1.17 h 5.78 a 1.17,1.17 0 0 1 1.17,1.17 v 3.85 m 4.1,1.79 a 1.64,1.64 0 0 0 -2.29,0 v 0 l -3.42,3.38 v 0 a 0.64,0.64 0 0 0 0.46,1.1 h 7.55 a 0.91,0.91 0 0 0 0.64,-1.57 z m -2.29,0 -3.59,-3.54 a 1.23,1.23 0 0 0 -1.72,0 l -6.77,6.69 a 0.13,0.13 0 0 0 0.09,0.23 h 8.57"
         style="fill:none;stroke:#000000;stroke-linecap:round;stroke-linejoin:round"
         id="line496" />
      <path
         d="m 627.58,177.36 -1.45,-2.51 1.86,-1.08 2,3.41 m 4.45,0.2 1.46,-2.53 -1.9,-1.08 -2,3.41 m -1,-0.38 v -7.25 a 2.81,2.81 0 0 1 2.85,-2.75 v 0 a 2.81,2.81 0 0 1 2.85,2.75 m 3.3,8.27 a 9.58,9.58 0 0 1 -18,0 m 19,-0.44 h -20 m 11.79,7 v 1.93 a 0.45,0.45 0 0 1 -0.46,0.43 h -2.66 a 0.45,0.45 0 0 1 -0.46,-0.43 v -1.93"
         style="fill:none;stroke:#000000;stroke-linecap:round;stroke-linejoin:round"
         id="path502" />
      <path
         d="m 535.34,205.3 v 0 a 1.81,1.81 0 0 1 1.81,1.81 v 1 h -3.63 v -1 a 1.81,1.81 0 0 1 1.82,-1.81 z M 529.9,217 v -10.5 a 2.79,2.79 0 0 1 2.8,-2.79 v 0 a 2.78,2.78 0 0 1 2.41,1.39 m 4.91002,-3.6 v 15.07001 M 546.95,217 h -6.17 -12.83 m 16.5,4.5 h -14 a 3,3 0 0 1 -3,-3 v -14 a 3,3 0 0 1 3,-3 h 14 a 3,3 0 0 1 3,3 v 14 a 3,3 0 0 1 -3,3 z"
         style="fill:none;stroke:#000000;stroke-linecap:round;stroke-linejoin:round"
         id="path512" />
      <path
         d="m 494.63999,211.5 a 1.15,1.15 0 0 1 -1.15,1.15 1.15,1.15 0 0 1 -1.15,-1.15 1.15,1.15 0 0 1 1.15,-1.15 1.15,1.15 0 0 1 1.15,1.15 z m 1.15002,-4.81 a 1.15,1.15 0 0 1 -1.15,1.15 1.15,1.15 0 0 1 -1.15,-1.15 1.15,1.15 0 0 1 1.15,-1.15 1.15,1.15 0 0 1 1.15,1.15 z m 0,9.62 a 1.15,1.15 0 0 1 -1.15,1.15 1.15,1.15 0 0 1 -1.15,-1.15 1.15,1.15 0 0 1 1.15,-1.15 1.15,1.15 0 0 1 1.15,1.15 z m -6.04001,4.3 h 6.47 a 1.78,1.78 0 0 0 1.78,-1.78 v -14.66 a 1.78,1.78 0 0 0 -1.78,-1.78 h -6.47 m -6.67001,9.11 a 1.15,1.15 0 0 1 -1.15,1.15 1.15,1.15 0 0 1 -1.15,-1.15 1.15,1.15 0 0 1 1.15,-1.15 1.15,1.15 0 0 1 1.15,1.15 z m -0.97998,4.81 a 1.15,1.15 0 0 1 -1.15,1.15 1.15,1.15 0 0 1 -1.15,-1.15 1.15,1.15 0 0 1 1.15,-1.15 1.15,1.15 0 0 1 1.15,1.15 z m 0,-9.62 a 1.15,1.15 0 0 1 -1.15,1.15 1.15,1.15 0 0 1 -1.15,-1.15 1.15,1.15 0 0 1 1.15,-1.15 1.15,1.15 0 0 1 1.15,1.15 z m 3.73999,-4.3 h -6.47 a 1.77,1.77 0 0 0 -1.78,1.78 v 14.66 a 1.77,1.77 0 0 0 1.78,1.78 h 6.47 m 0,-9.11 h 3.91 m -3.91,-9.11 h 3.91 v 18.23 h -3.91 z"
         style="fill:none;stroke:#000000;stroke-linecap:round;stroke-linejoin:round"
         id="circle532" />
    </g>
</svg>
