<?xml version="1.0" encoding="UTF-8" standalone="no"?>
<svg
   xmlns:dc="http://purl.org/dc/elements/1.1/"
   xmlns:cc="http://creativecommons.org/ns#"
   xmlns:rdf="http://www.w3.org/1999/02/22-rdf-syntax-ns#"
   xmlns:svg="http://www.w3.org/2000/svg"
   xmlns="http://www.w3.org/2000/svg"
   viewBox="0 0 484.82401 682.66669"
   height="682.66669"
   width="484.82401"
   xml:space="preserve"
   id="svg2"
   version="1.1"><metadata
     id="metadata8"><rdf:RDF><cc:Work
         rdf:about=""><dc:format>image/svg+xml</dc:format><dc:type
           rdf:resource="http://purl.org/dc/dcmitype/StillImage" /></cc:Work></rdf:RDF></metadata><defs
     id="defs6"><clipPath
       id="clipPath18"
       clipPathUnits="userSpaceOnUse"><path
         id="path16"
         d="M 0,512 H 363.618 V 0 H 0 Z" /></clipPath></defs><g
     transform="matrix(1.3333333,0,0,-1.3333333,0,682.66667)"
     id="g10"><g
       id="g12"><g
         clip-path="url(#clipPath18)"
         id="g14"><g
           transform="translate(183.5028,379.2588)"
           id="g20"><path
             id="path22"
             style="fill:#fdd32f;fill-opacity:1;fill-rule:nonzero;stroke:none"
             d="m 0,0 c -26.182,0 -47.407,-21.225 -47.407,-47.407 0,-26.182 21.225,-47.407 47.407,-47.407 26.182,0 47.406,21.225 47.406,47.407 C 47.376,-21.238 26.169,-0.03 0,0 m 0,-113.778 c -36.655,0 -66.37,29.715 -66.37,66.37 0,36.655 29.715,66.37 66.37,66.37 36.654,0 66.37,-29.715 66.37,-66.37 C 66.325,-84.044 36.637,-113.733 0,-113.778" /></g><g
           transform="translate(181.8265,493.0371)"
           id="g24"><path
             id="path26"
             style="fill:#fdd32f;fill-opacity:1;fill-rule:nonzero;stroke:none"
             d="m 0,0 c -43.216,0.116 -84.683,-17.061 -115.157,-47.704 -57.361,-57.352 -64.426,-165.324 -15.13,-231.056 L 0,-466.899 130.074,-279.047 c 49.509,66.019 42.444,173.991 -14.917,231.343 C 84.683,-17.061 43.216,0.116 0,0 m 0,-493.037 c -3.111,0 -6.025,1.526 -7.796,4.083 l -137.87,199.111 c -54.352,72.444 -46.454,192 17.102,255.546 34.095,34.102 80.342,53.26 128.564,53.26 48.222,0 94.469,-19.158 128.565,-53.259 63.556,-63.546 71.454,-183.102 16.889,-255.833 L 7.796,-488.954 C 6.024,-491.511 3.111,-493.037 0,-493.037" /></g></g></g></g></svg>