<svg id="Layer" enable-background="new 0 0 64 64" height="512" viewBox="0 0 64 64" width="512" xmlns="http://www.w3.org/2000/svg"><path d="m54 8h-34c-1.104 0-2 .896-2 2v6h-8c-1.104 0-2 .896-2 2v31c0 3.859 3.141 7 7 7h33c4.411 0 8-3.589 8-8v-38c0-1.104-.896-2-2-2zm-36 41c0 1.654-1.346 3-3 3s-3-1.346-3-3v-29h6zm34-1c0 2.206-1.794 4-4 4h-26.676c.433-.91.676-1.927.676-3v-37h30z"/><path d="m31 33h12c3.309 0 6-2.691 6-6v-6c0-3.309-2.691-6-6-6h-12c-3.309 0-6 2.691-6 6v6c0 3.309 2.691 6 6 6zm-2-12c0-1.103.897-2 2-2h12c1.103 0 2 .897 2 2v6c0 1.103-.897 2-2 2h-12c-1.103 0-2-.897-2-2z"/><path d="m27 40h20c1.104 0 2-.896 2-2s-.896-2-2-2h-20c-1.104 0-2 .896-2 2s.896 2 2 2z"/><path d="m27 47h11c1.104 0 2-.896 2-2s-.896-2-2-2h-11c-1.104 0-2 .896-2 2s.896 2 2 2z"/></svg>