<?xml version="1.0" encoding="UTF-8" standalone="no"?>
<svg
   xmlns:dc="http://purl.org/dc/elements/1.1/"
   xmlns:cc="http://creativecommons.org/ns#"
   xmlns:rdf="http://www.w3.org/1999/02/22-rdf-syntax-ns#"
   xmlns:svg="http://www.w3.org/2000/svg"
   xmlns="http://www.w3.org/2000/svg"
   viewBox="0 0 462.61734 462.65201"
   height="462.65201"
   width="462.61734"
   xml:space="preserve"
   id="svg2"
   version="1.1"><metadata
     id="metadata8"><rdf:RDF><cc:Work
         rdf:about=""><dc:format>image/svg+xml</dc:format><dc:type
           rdf:resource="http://purl.org/dc/dcmitype/StillImage" /></cc:Work></rdf:RDF></metadata><defs
     id="defs6"><clipPath
       id="clipPath18"
       clipPathUnits="userSpaceOnUse"><path
         id="path16"
         d="M 0,346.989 H 346.963 V 0 H 0 Z" /></clipPath></defs><g
     transform="matrix(1.3333333,0,0,-1.3333333,0,462.652)"
     id="g10"><g
       id="g12"><g
         clip-path="url(#clipPath18)"
         id="g14"><g
           transform="translate(185.3882,103.7319)"
           id="g20"><path
             id="path22"
             style="fill:#ffc000;fill-opacity:1;fill-rule:nonzero;stroke:none"
             d="m 0,0 c -4.358,-6.951 -13.254,-9.505 -20.635,-5.92 -14.398,7.232 -27.676,16.495 -39.43,27.516 -11.016,11.75 -20.283,25.031 -27.511,39.425 -3.585,7.381 -1.035,16.277 5.92,20.635 l 24.423,15.356 -66.806,128.588 c -23.977,-14.567 -53.352,-39.013 -53.352,-65.408 v -7.997 c 2.41,-135.919 112.011,-245.52 247.93,-247.929 h 7.997 c 26.391,0 50.841,29.379 65.407,53.355 L 13.625,21.643 Z" /></g><g
           transform="translate(263.9238,15.9956)"
           id="g24"><path
             id="path26"
             style="fill:#000000;fill-opacity:1;fill-rule:nonzero;stroke:none"
             d="m 0,0 h -7.997 c -131.502,2.405 -237.526,108.43 -239.931,239.931 v 7.998 c 0,20.131 21.435,40.062 42.109,53.867 l 56.784,-115.904 -15.46,-9.74 c -10.439,-6.552 -14.234,-19.927 -8.798,-30.983 7.649,-15.233 17.479,-29.269 29.175,-41.668 12.336,-11.563 26.277,-21.282 41.386,-28.866 11.048,-5.413 24.399,-1.59 30.913,8.844 L -62.087,98.925 53.817,42.14 C 40.06,21.443 20.124,0 0,0 m -184.817,314.054 c 1.979,1.023 4.287,1.195 6.396,0.481 2.004,-0.664 3.655,-2.105 4.585,-3.999 l 49.001,-100.89 c 1.769,-3.682 0.531,-8.106 -2.897,-10.333 l -7.643,-4.798 -56.745,115.653 c 2.573,1.415 5.014,2.742 7.303,3.886 M -38.387,123.094 62.541,74.068 c 1.91,-0.922 3.366,-2.573 4.042,-4.585 0.699,-2.112 0.52,-4.416 -0.496,-6.396 -1.137,-2.273 -2.456,-4.725 -3.866,-7.264 l -115.694,56.715 4.8,7.596 c 2.202,3.425 6.6,4.689 10.286,2.96 M 69.582,88.455 -31.424,137.499 c -11.001,5.249 -24.196,1.477 -30.757,-8.798 L -85.303,91.974 c -2.14,-3.495 -6.58,-4.808 -10.279,-3.038 -13.562,6.794 -26.086,15.495 -37.188,25.832 -10.474,11.169 -19.284,23.794 -26.153,37.477 -1.8,3.706 -0.507,8.174 2.992,10.349 l 36.79,23.145 c 10.259,6.592 14,19.791 8.716,30.784 l -49.048,100.987 c -2.781,5.772 -7.776,10.173 -13.852,12.204 -6.151,2.089 -12.883,1.605 -18.666,-1.343 -7.358,-3.663 -71.933,-37.119 -71.933,-80.442 v -7.998 c 1.199,-67.473 28.504,-131.857 76.177,-179.62 l 0.129,-0.125 C -139.854,12.508 -75.47,-14.797 -7.997,-15.995 H 0 c 43.309,0 76.779,64.567 80.403,71.892 2.96,5.796 3.449,12.544 1.359,18.707 -2.027,6.072 -6.42,11.067 -12.18,13.851" /></g></g></g></g></svg>