<?xml version="1.0" encoding="UTF-8" standalone="no"?>
<svg
   xmlns:dc="http://purl.org/dc/elements/1.1/"
   xmlns:cc="http://creativecommons.org/ns#"
   xmlns:rdf="http://www.w3.org/1999/02/22-rdf-syntax-ns#"
   xmlns:svg="http://www.w3.org/2000/svg"
   xmlns="http://www.w3.org/2000/svg"
   viewBox="0 0 530.40668 540.81335"
   height="540.81335"
   width="530.40668"
   xml:space="preserve"
   id="svg2"
   version="1.1"><metadata
     id="metadata8"><rdf:RDF><cc:Work
         rdf:about=""><dc:format>image/svg+xml</dc:format><dc:type
           rdf:resource="http://purl.org/dc/dcmitype/StillImage" /></cc:Work></rdf:RDF></metadata><defs
     id="defs6"><clipPath
       id="clipPath22"
       clipPathUnits="userSpaceOnUse"><path
         id="path20"
         d="M 0,405.61 H 397.805 V 0 H 0 Z" /></clipPath></defs><g
     transform="matrix(1.3333333,0,0,-1.3333333,0,540.81333)"
     id="g10"><g
       transform="translate(368.7912,381.6757)"
       id="g12"><path
         id="path14"
         style="fill:#ffffff;fill-opacity:1;fill-rule:nonzero;stroke:none"
         d="M 0,0 -339.777,-357.741" /></g><g
       id="g16"><g
         clip-path="url(#clipPath22)"
         id="g18"><g
           transform="translate(368.7912,381.6757)"
           id="g24"><path
             id="path26"
             style="fill:none;stroke:#000000;stroke-width:44;stroke-linecap:round;stroke-linejoin:miter;stroke-miterlimit:10;stroke-dasharray:none;stroke-opacity:1"
             d="M 0,0 -339.777,-357.741" /></g><g
           transform="translate(153.61,317.8051)"
           id="g28"><path
             id="path30"
             style="fill:none;stroke:#000000;stroke-width:44;stroke-linecap:round;stroke-linejoin:miter;stroke-miterlimit:10;stroke-dasharray:none;stroke-opacity:1"
             d="m 0,0 c 0,-36.343 -29.462,-65.805 -65.805,-65.805 -36.343,0 -65.805,29.462 -65.805,65.805 0,36.343 29.462,65.805 65.805,65.805 C -29.462,65.805 0,36.343 0,0 Z" /></g><g
           transform="translate(375.8049,87.8051)"
           id="g32"><path
             id="path34"
             style="fill:none;stroke:#000000;stroke-width:44;stroke-linecap:round;stroke-linejoin:miter;stroke-miterlimit:10;stroke-dasharray:none;stroke-opacity:1"
             d="m 0,0 c 0,-36.343 -29.462,-65.805 -65.805,-65.805 -36.343,0 -65.805,29.462 -65.805,65.805 0,36.343 29.462,65.805 65.805,65.805 C -29.462,65.805 0,36.343 0,0 Z" /></g></g></g></g></svg>