<?xml version="1.0" encoding="UTF-8" standalone="no"?>
<svg
   xmlns:dc="http://purl.org/dc/elements/1.1/"
   xmlns:cc="http://creativecommons.org/ns#"
   xmlns:rdf="http://www.w3.org/1999/02/22-rdf-syntax-ns#"
   xmlns:svg="http://www.w3.org/2000/svg"
   xmlns="http://www.w3.org/2000/svg"
   xmlns:sodipodi="http://sodipodi.sourceforge.net/DTD/sodipodi-0.dtd"
   xmlns:inkscape="http://www.inkscape.org/namespaces/inkscape"
   viewBox="0 0 48.5424 48.5424"
   version="1.1"
   id="svg8"
   sodipodi:docname="zoom-in.svg"
   width="48.5424"
   height="48.5424"
   inkscape:version="0.92.4 (5da689c313, 2019-01-14)">
  <metadata
     id="metadata14">
    <rdf:RDF>
      <cc:Work
         rdf:about="">
        <dc:format>image/svg+xml</dc:format>
        <dc:type
           rdf:resource="http://purl.org/dc/dcmitype/StillImage" />
        <dc:title></dc:title>
      </cc:Work>
    </rdf:RDF>
  </metadata>
  <defs
     id="defs12" />
  <sodipodi:namedview
     pagecolor="#ffffff"
     bordercolor="#666666"
     borderopacity="1"
     objecttolerance="10"
     gridtolerance="10"
     guidetolerance="10"
     inkscape:pageopacity="0"
     inkscape:pageshadow="2"
     inkscape:window-width="1366"
     inkscape:window-height="715"
     id="namedview10"
     showgrid="false"
     fit-margin-top="0"
     fit-margin-left="0"
     fit-margin-right="0"
     fit-margin-bottom="0"
     inkscape:zoom="3.6875"
     inkscape:cx="8.7203931"
     inkscape:cy="49.912368"
     inkscape:window-x="-8"
     inkscape:window-y="-8"
     inkscape:window-maximized="1"
     inkscape:current-layer="svg8" />
  <circle
     style="opacity:0.92000002;fill:#efbf2d;fill-opacity:1;stroke:none;stroke-width:0.0506222;stroke-miterlimit:4;stroke-dasharray:none;stroke-opacity:1"
     id="path827"
     cx="24.2712"
     cy="24.2712"
     r="24.2712" />
  <path
     id="path6"
     d="m 29.731851,20.154444 h -1.34393 v -1.34391 c 0,-0.36828 -0.29866,-0.66696 -0.66694,-0.66696 -0.36828,0 -0.66695,0.29868 -0.66695,0.66696 v 1.34391 h -1.34397 c -0.368374,0 -0.666943,0.29867 -0.666943,0.66695 0,0.36838 0.298621,0.66695 0.666943,0.66695 h 1.34397 v 1.34396 c 0,0.36838 0.29867,0.66695 0.66695,0.66695 0.36828,0 0.66694,-0.29862 0.66694,-0.66695 v -1.34396 h 1.34393 c 0.36827,0 0.66694,-0.29862 0.66694,-0.66695 0,-0.36833 -0.29857,-0.66695 -0.66694,-0.66695 z m 2.59489,-3.93881 c -1.23022,-1.23022 -2.86597,-1.9078 -4.60581,-1.9078 -1.73979,0 -3.375492,0.67758 -4.605761,1.9078 -1.23027,1.23022 -1.907799,2.86598 -1.907799,4.60581 0,1.73978 0.677581,3.37549 1.907799,4.60576 1.230223,1.23027 2.865971,1.90785 4.605761,1.90785 1.73984,0 3.37554,-0.67758 4.60581,-1.90785 1.23022,-1.23022 1.90785,-2.86598 1.90785,-4.60576 -1e-4,-1.73978 -0.67763,-3.37549 -1.90785,-4.60581 z m -0.9433,8.26832 c -0.97832,0.97838 -2.27901,1.51715 -3.66256,1.51715 -1.38345,0 -2.684192,-0.53877 -3.662467,-1.51715 -0.978373,-0.97832 -1.51715,-2.279 -1.51715,-3.66246 0,-1.38356 0.538777,-2.68424 1.51715,-3.66257 0.978275,-0.97837 2.279017,-1.51714 3.662467,-1.51714 1.38355,0 2.68424,0.53877 3.66256,1.51714 0.97838,0.97833 1.51715,2.27901 1.51715,3.66257 0,1.38346 -0.53877,2.68419 -1.51715,3.66246 z m 2.98727,-10.31224 c -3.66677,-3.66662 -9.632847,-3.66647 -13.299511,0 -3.508019,3.50817 -3.659228,9.12075 -0.454693,12.81096 l -1.120218,1.12022 -1.141375,-1.14138 c -0.260505,-0.26041 -0.682695,-0.26041 -0.943298,0 l -5.347474,5.34742 c -1.149377,1.14943 -1.149377,3.01972 0,4.1693 0.574764,0.57476 1.329794,0.8621 2.084622,0.8621 0.754929,0 1.509908,-0.28739 2.084673,-0.86205 l 5.347479,-5.34748 c 0.260445,-0.26045 0.260445,-0.68279 0,-0.94329 l -1.141435,-1.14138 1.120218,-1.12022 c 1.761709,1.52985 3.961343,2.29526 6.161282,2.29526 2.40815,0 4.8164,-0.91666 6.64973,-2.74994 3.66662,-3.66678 3.66662,-9.63285 0,-13.29952 z m -19.080568,21.36328 c -0.629386,0.62933 -1.653372,0.62948 -2.282809,0 -0.629436,-0.62934 -0.629436,-1.65348 0,-2.28281 l 2.984027,-2.98403 2.282805,2.28281 z m 3.927321,-3.92728 -2.28281,-2.2828 0.948562,-0.94856 2.282757,2.28275 z m 14.210007,-5.07978 c -3.14657,3.14647 -8.266456,3.14658 -11.413033,0 -3.146571,-3.14658 -3.146571,-8.26645 0,-11.41303 1.573496,-1.57349 3.63959,-2.35991 5.706593,-2.35991 2.0663,0 4.1334,0.78683 5.70644,2.35991 3.14652,3.14658 3.14652,8.2665 0,11.41303 z"
     inkscape:connector-curvature="0"
     style="stroke-width:0.0506222" />
</svg>
