<svg xmlns="http://www.w3.org/2000/svg" viewbox="0 0 28 27.509"><defs><clipPath id="a"><path d="M0 20.632h21V0H0z"/></clipPath></defs><g clip-path="url(#a)" transform="matrix(1.33333 0 0 -1.33333 0 27.51)" fill="none"><path d="M17.257 17.257c3.833-3.834 3.833-10.049 0-13.883-3.833-3.833-10.048-3.833-13.882 0-3.833 3.834-3.833 10.05 0 13.883 3.834 3.833 10.049 3.833 13.882 0z" stroke-linecap="round" stroke-linejoin="round" stroke-miterlimit="22.926"/><path d="M11.993 11.993a2.372 2.372 0 1 0-3.355-3.354 2.372 2.372 0 0 0 3.355 3.354z" stroke-linecap="round" stroke-linejoin="round" stroke-miterlimit="22.926"/><path d="M13.668 13.668a4.74 4.74 0 1 0-6.703-6.703 4.74 4.74 0 0 0 6.703 6.703zM5.736 11.541L2.02 15.26M15.374 1.904l-3.786 3.785M14.942 9.043l3.786-3.785M5.373 18.613l3.717-3.718M16.835.5H20.5M10.37.5h7.462M16.984 2.238l-2.376-.766M20.255 3.23l-.97-.295" stroke-linecap="round" stroke-linejoin="round" stroke-miterlimit="22.926"/></g></svg>