<svg xmlns="http://www.w3.org/2000/svg" viewbox="0 0 26.002 28"><defs><clipPath id="a"><path d="M0 21h19.502V0H0z"/></clipPath></defs><g clip-path="url(#a)" transform="matrix(1.33333 0 0 -1.33333 0 28)"><path d="M13.488 4.98L9.902 8.521a1.22 1.22 0 0 1-1.715 0l-6.776-6.69a.13.13 0 0 1 .091-.223h8.572" fill="none" stroke-linecap="round" stroke-linejoin="round" stroke-miterlimit="22.926"/><path d="M15.783 4.98a1.632 1.632 0 0 1-2.294 0l-3.415-3.372A.647.647 0 0 1 10.53.5h7.552c.822 0 1.23.996.646 1.572zM6.423 6.779H4.711c-.644 0-1.17.527-1.17 1.171v2.674c0 .644.526 1.172 1.17 1.172h5.784c.644 0 1.171-.528 1.171-1.172V6.779" fill="none" stroke-linecap="round" stroke-linejoin="round" stroke-miterlimit="22.926"/><path d="M3.357 3.752H.5v8.843l1.74 5.514v2.39h10.737v-2.39l1.751-5.514v-6.98M2.24 18.11h5.374" fill="none" stroke-linecap="round" stroke-linejoin="round" stroke-miterlimit="22.926"/></g></svg>