<svg xmlns="http://www.w3.org/2000/svg" viewbox="0 0 28 28"><defs><clipPath id="a"><path d="M0 21h21V0H0z"/></clipPath></defs><g clip-path="url(#a)" transform="matrix(1.33333 0 0 -1.33333 0 28)"><path d="M10.54 16.127v3.2c0 .648-.526 1.173-1.173 1.173H1.672A1.173 1.173 0 0 1 .5 19.327V1.672C.5 1.024 1.025.5 1.672.5h7.695c.647 0 1.172.524 1.172 1.172v10.706" fill="none" stroke-linecap="round" stroke-linejoin="round" stroke-miterlimit="22.926"/><path d="M5.712 12.243l14.789.413v3.138l-14.79.413a1.983 1.983 0 1 1 0-3.963zM7.313 8.27a1.796 1.796 0 0 1-3.555.344 1.795 1.795 0 0 1 .732-1.812V4.785a1.03 1.03 0 1 1 2.06 0v2.017c.46.325.763.86.763 1.468z" fill="none" stroke-linecap="round" stroke-linejoin="round" stroke-miterlimit="22.926"/></g></svg>