<svg xmlns="http://www.w3.org/2000/svg" viewbox="0 0 18.233 28"><defs><clipPath id="a"><path d="M0 21h13.675V0H0z"/></clipPath></defs><g clip-path="url(#a)" transform="matrix(1.33333 0 0 -1.33333 0 28)"><path d="M.778 20.084c0 .229.187.416.416.416h11.565a.417.417 0 0 0 .416-.416V3.614a.418.418 0 0 0-.416-.415h-4.21" fill="none" stroke-linecap="round" stroke-linejoin="round" stroke-miterlimit="22.926"/><path d="M.77 20.303l7.464-2.488a.432.432 0 0 0 .268-.39V.723c0-.164-.12-.258-.268-.208L.77 3.002a.433.433 0 0 0-.27.388v16.704c0 .164.122.258.27.209z" fill="none" stroke-linecap="round" stroke-linejoin="round" stroke-miterlimit="22.926"/><path d="M6.162 10.022a.493.493 0 1 0-.001-.986.493.493 0 0 0 0 .986z" fill="none" stroke-linecap="round" stroke-linejoin="round" stroke-miterlimit="22.926"/></g></svg>