<svg xmlns="http://www.w3.org/2000/svg" viewbox="0 0 27.41 28"><defs><clipPath id="a"><path d="M0 21h20.558V0H0z"/></clipPath></defs><g clip-path="url(#a)" transform="matrix(1.33333 0 0 -1.33333 0 28)"><path d="M20.058 14.047h-3.072m3.072 3.615h-3.072M16.078 19.538h-1.566c-1.277 0-3.977-1.438-3.977-2.352v-2.665c0-.903 2.68-2.368 3.977-2.35l.038.002v-.002h1.528m.543-.962V20.5" fill="none" stroke-linecap="round" stroke-linejoin="round" stroke-miterlimit="22.926"/><path d="M1.177.537L14.474.5c1.309-.002 2.375.214 3.212.577.912.397 1.55.968 1.93 1.617a3.193 3.193 0 0 1 .44 1.551c.006.268-.023.54-.085.81a3.529 3.529 0 0 1-.281.782c-.333.665-.891 1.262-1.658 1.69-.703.395-1.583.649-2.626.689-1.634.054-3.311.02-4.955.007h-.055c-.671-.007-.86-.013-4.277-.019-1.237-.002-2.268.204-3.092.547h-.001c-.947.395-1.627.973-2.04 1.629a3.187 3.187 0 0 0-.363.794 2.974 2.974 0 0 0-.002 1.692c.079.273.199.539.356.794.405.654 1.067 1.232 1.978 1.627.798.347 1.787.556 2.963.554v.002l4.623.012" fill="none" stroke-linecap="round" stroke-linejoin="round" stroke-miterlimit="22.926"/></g></svg>