<svg xmlns="http://www.w3.org/2000/svg" viewbox="0 0 28.552 25.638"><defs><clipPath id="a"><path d="M0 19.228h21.414V0H0z"/></clipPath><clipPath id="b"><path d="M0 19.228h21.414V0H0z"/></clipPath></defs><g clip-path="url(#a)" transform="matrix(1.33333 0 0 -1.33333 0 25.638)"><path d="M12.664.5H8.75v18.229h3.914z" fill="none" stroke="#324c5e" stroke-linecap="round" stroke-linejoin="round" stroke-miterlimit="22.926"/></g><path d="M11.667 12.819h5.218" fill="none" stroke="#324c5e" stroke-linecap="round" stroke-linejoin="round" stroke-miterlimit="22.926" stroke-width="1.33333"/><g clip-path="url(#b)" transform="matrix(1.33333 0 0 -1.33333 0 25.638)"><path d="M8.75 18.729H2.28a1.78 1.78 0 0 1-1.78-1.78V2.28A1.78 1.78 0 0 1 2.28.5h6.47" fill="none" stroke="#324c5e" stroke-linecap="round" stroke-linejoin="round" stroke-miterlimit="22.926"/><path d="M5.015 14.425a1.153 1.153 0 1 0-2.305 0 1.153 1.153 0 0 0 2.305 0zM5.015 4.804c0-.638-.516-1.153-1.153-1.153a1.152 1.152 0 1 0 0 2.306c.637 0 1.153-.516 1.153-1.153zM6.002 9.614a1.153 1.153 0 1 0-2.306 0 1.153 1.153 0 0 0 2.305 0zM12.664.5h6.47c.983 0 1.78.797 1.78 1.78v14.668a1.78 1.78 0 0 1-1.78 1.781h-6.47" fill="none" stroke="#324c5e" stroke-linecap="round" stroke-linejoin="round" stroke-miterlimit="22.926"/><path d="M16.399 4.804a1.153 1.153 0 1 0 2.307 0 1.153 1.153 0 0 0-2.307 0zM16.399 14.425a1.153 1.153 0 1 0 2.307 0 1.153 1.153 0 0 0-2.307 0zM15.246 9.614a1.153 1.153 0 1 0 2.305 0 1.153 1.153 0 0 0-2.305 0z" fill="none" stroke="#324c5e" stroke-linecap="round" stroke-linejoin="round" stroke-miterlimit="22.926"/></g></svg>