<svg xmlns="http://www.w3.org/2000/svg" viewbox="0 0 28 27.604"><defs><clipPath id="a"><path d="M0 20.703h21V0H0z"/></clipPath></defs><g clip-path="url(#a)" transform="matrix(1.33333 0 0 -1.33333 0 27.604)"><path d="M10.906.5v1.476c0 .06.008.12.023.175-.1.04-.2.084-.297.132-1.762.85-3.138 2.711-3.138 5.554v.333h-.16a.506.506 0 0 0-.505.506v.616c0 .278.227.506.505.506h.16v.013h3.535v-.013h.177a.507.507 0 0 0 .506-.506v-.616a.507.507 0 0 0-.506-.506h-.177v-.333c0-1.288.498-2.07 1.135-2.379.218-.104.462-.157.712-.157.25 0 .494.053.713.157.592.286 1.064 1.235 1.128 2.367m3.537 0c-.083-2.694-1.427-4.72-3.133-5.542a5.204 5.204 0 0 0-.608-.248l.002-.059V.5m-7.021 9.816v.6c-.027 1.775-.93 2.645-2.49 2.66l-.6.013m0 3.52l.615-.012c4.202-.03 6.01-1.992 6.01-6.182v-.599m-8.57 7.433h1.003a.508.508 0 0 0 .436-.25v-4.383a.51.51 0 0 0-.436-.25H2.46m16.635.046c0-1.615-.013-2.45-.013-4.073a.509.509 0 0 0-.506-.506h-.318v-.002h-3.534v.002h-.29a.509.509 0 0 0-.507.506v4.064l-.171.01a.51.51 0 0 0-.507.505v.797c0 .216.228.473.433.473h5.646c.205 0 .432-.26.432-.473v-.797a.51.51 0 0 0-.505-.506zm-4.591 1.774c0 2.353-.004 3.164-.004 5.517m-1.99-5.517h1.994m4.022 0H20.5m-1.965 5.517c0-2.353-.01-3.163-.01-5.517M.5 18.276h1.125a.508.508 0 0 0 .493-.392V12.73a.513.513 0 0 0-.493-.392H.5z" fill="none" stroke-linecap="round" stroke-linejoin="round" stroke-miterlimit="22.926"/></g></svg>