<svg xmlns="http://www.w3.org/2000/svg" viewbox="0 0 24.969 28"><defs><clipPath id="a"><path d="M0 21h18.727V0H0z"/></clipPath></defs><g clip-path="url(#a)" transform="matrix(1.33333 0 0 -1.33333 0 28)" fill="none"><path d="M.753 15.486l1.753 2.771.066-.025a3.114 3.114 0 0 1 5.116 2.159c.078.13.32.108 1.563.107h.224c1.242.001 1.484.023 1.563-.107a3.113 3.113 0 0 1 5.115-2.159l.067.025 1.753-2.77c-1.808-.703-2.95-1.772-2.95-4.542 0-2.769 1.011-4.053 3.204-5.143l-1.83-3.024C13.65 4.208 10.79 2.625 9.365.5l-.003.004L9.36.5C7.936 2.625 5.077 4.208 2.33 2.778L.5 5.802c2.191 1.09 3.204 2.374 3.204 5.143 0 2.77-1.143 3.84-2.95 4.541z" stroke-linecap="round" stroke-linejoin="round" stroke-miterlimit="22.926"/></g></svg>