<svg xmlns="http://www.w3.org/2000/svg" viewbox="0 0 28 24.255"><defs><clipPath id="a"><path d="M0 18.191h21V0H0z"/></clipPath></defs><g clip-path="url(#a)" transform="matrix(1.33333 0 0 -1.33333 0 24.255)"><path d="M5.263 13.848l1.318 1.805m-3.519-1.805l1.318 1.805m12.77-1.036h3.35M1.81 3.818c-.454 0-.71.5-.566.937l1.552 4.808c.212.66-.23 1.537-.835 1.912-.627.39-1.358.586-1.358 1.302v3.613c0 .716.611 1.301 1.358 1.301h11.17c.747 0 1.36-.587 1.36-1.301v-3.613c0-.715-.615-1.302-1.36-1.302H9.565c-.683 0-1.31-.7-1.517-1.323-.174-.525-1.293-3.197-1.293-3.857 0-.824.488-1.966 1.202-2.321A1.014 1.014 0 0 0 7.8 3.96m7.105 12.888h1.013c.04 0 1.231-1.136 1.231-1.452v-1.558c0-.316-1.193-1.452-1.23-1.452h-1.014M.89 3.7H9.77a.384.384 0 0 0 .39-.373V.873A.385.385 0 0 0 9.77.5H.89A.385.385 0 0 0 .5.873v2.454c0 .205.175.373.39.373zm8.872 7.42c-.352-.783.19-1.898.326-2.262H8.003" fill="none" stroke-linecap="round" stroke-linejoin="round" stroke-miterlimit="22.926"/></g></svg>