<svg xmlns="http://www.w3.org/2000/svg" viewbox="0 0 27.868 28"><defs><clipPath id="a"><path d="M0 21h20.901V0H0z"/></clipPath></defs><g clip-path="url(#a)" transform="matrix(1.33333 0 0 -1.33333 0 28)"><path d="M19.041 9.046l1.2-1.2a.55.55 0 0 0 0-.776l-2.453-2.451a.551.551 0 0 0-.606-.165L8.307 8.327 7.081 7.08m.388-.388l.614-.614a.576.576 0 0 0 0-.811L3.483.666a.578.578 0 0 0-.812 0L.666 2.67a.578.578 0 0 0 0 .812l4.601 4.6a.576.576 0 0 0 .812 0l.613-.614z" fill="none" stroke-linecap="round" stroke-linejoin="round" stroke-miterlimit="22.926"/><path d="M19.71 11.223l-9.129 9.129a.518.518 0 0 1-.726 0l-2.97-2.972a.516.516 0 0 1 0-.725l9.127-9.128c.2-.2.526-.2.726 0l2.971 2.97c.2.2.2.528 0 .726z" fill="none" stroke-linecap="round" stroke-linejoin="round" stroke-miterlimit="22.926"/></g></svg>