<svg xmlns="http://www.w3.org/2000/svg" viewbox="0 0 28 26.841"><defs><clipPath id="a"><path d="M0 20.13h21V0H0z"/></clipPath></defs><g clip-path="url(#a)" transform="matrix(1.33333 0 0 -1.33333 0 26.84)"><path d="M5.717 9.196a3.478 3.478 0 0 1-3.478 3.478H.5V.5h12.174v1.74a3.478 3.478 0 0 1-3.478 3.477 3.479 3.479 0 0 0-3.479 3.48z" fill="none" stroke-linecap="round" stroke-linejoin="round" stroke-miterlimit="22.926"/><path d="M12.674.5l7.333 6.519c.314.278.493.677.493 1.097v1.08a3.478 3.478 0 0 1-3.478 3.478 3.478 3.478 0 0 0-3.478 3.478 3.479 3.479 0 0 1-3.478 3.479H8.922c-.384 0-.754-.141-1.04-.396L.5 12.674M11.505 5.038l7.255 6.767M4.731 11.812l7.255 6.766" fill="none" stroke-linecap="round" stroke-linejoin="round" stroke-miterlimit="22.926"/></g></svg>