<svg xmlns="http://www.w3.org/2000/svg" viewbox="0 0 28 28"><defs><clipPath id="a"><path d="M0 21h21V0H0z"/></clipPath></defs><g clip-path="url(#a)" transform="matrix(1.33333 0 0 -1.33333 0 28)"><path d="M17.506.5H3.493A2.993 2.993 0 0 0 .5 3.493V17.507A2.993 2.993 0 0 0 3.493 20.5h14.013a2.994 2.994 0 0 0 2.994-2.993V3.493A2.994 2.994 0 0 0 17.506.5zM20 5H1M13.073 20.5V5.429" fill="none" stroke-linecap="round" stroke-linejoin="round" stroke-miterlimit="22.926"/><path d="M2.958 5v10.5a2.792 2.792 0 0 0 5.208 1.398" fill="none" stroke-linecap="round" stroke-linejoin="round" stroke-miterlimit="22.926"/><path d="M10.209 13.875H6.584v1.015a1.813 1.813 0 0 0 3.625 0z" fill="none" stroke-linecap="round" stroke-linejoin="round" stroke-miterlimit="22.926"/></g></svg>