<svg xmlns="http://www.w3.org/2000/svg" viewbox="0 0 28 27.864"><defs><clipPath id="a"><path d="M0 20.898h21V0H0z"/></clipPath></defs><g clip-path="url(#a)" transform="matrix(1.33333 0 0 -1.33333 0 27.864)"><path d="M12.286 2.858V.925c0-.234-.206-.425-.457-.425H9.17c-.251 0-.457.191-.457.425v1.933M20.5 9.821H.5m18.976-.445C18.33 5.771 14.745 3.141 10.5 3.141c-4.245 0-7.83 2.63-8.976 6.235M10.5 10.394v7.252c0 1.514 1.282 2.751 2.85 2.751 1.567 0 2.85-1.237 2.85-2.75M15.94 17.242h.607M13.913 9.821l1.459 2.527-1.863 1.076-1.964-3.4M7.077 9.84l-1.45 2.507 1.865 1.077 1.963-3.4" fill="none" stroke-linecap="round" stroke-linejoin="round" stroke-miterlimit="22.926"/></g></svg>