<svg xmlns="http://www.w3.org/2000/svg" viewbox="0 0 25.809 28"><defs><clipPath id="a"><path d="M0 21h19.357V0H0z"/></clipPath></defs><g clip-path="url(#a)" transform="matrix(1.33333 0 0 -1.33333 0 28)"><path d="M13.442 14.166c-.007-3.039-1.689-5.498-3.764-5.498-2.075 0-3.757 2.46-3.764 5.498M14.864 15.329v-.01a.127.127 0 0 0-.016-.062c-.2-.428-2.29-.706-4.903-.723a47.526 47.526 0 0 0-.534 0c-2.614.017-4.703.295-4.903.723a.129.129 0 0 0-.017.062l.001.01c-.01.472.392.79 1.04.767v.597c0 5.088 8.292 5.065 8.292 0v-.597c.648.023 1.05-.295 1.04-.767zM2.522 6.783l1.114.483L3.878.5H.5l.655 4.916c.05.373.205.716.439.963s.583.255.928.404zM15.657 7.266l1.178-.483c.695-.284 1.268-.627 1.367-1.367L18.857.5h-3.443zM4.013 7.448l1.962 1.028.293-5.203h6.821l.292 5.203 1.963-1.028M15.281.5H4.075M8.754 20.402v-2.777M10.66 20.402v-2.777" fill="none" stroke-linecap="round" stroke-linejoin="round" stroke-miterlimit="22.926"/></g></svg>