<svg xmlns="http://www.w3.org/2000/svg" viewbox="0 0 27.254 28"><defs><clipPath id="a"><path d="M0 21h20.441V0H0z"/></clipPath></defs><g clip-path="url(#a)" transform="matrix(1.33333 0 0 -1.33333 0 28)"><path d="M11.365 2.264c.375 0 .682-.396.682-.882 0-.485-.308-.883-.682-.883H1.182C.808.5.5.897.5 1.382c0 .486.307.882.682.882zM13.197 17.288l-2.91-1.68c-1.893-1.093-2.055-4.391-.36-7.33l.217-.373 9.797 5.656-.215.373c-1.697 2.939-4.634 4.448-6.53 3.354z" fill="none" stroke-linecap="round" stroke-linejoin="round" stroke-miterlimit="22.926"/><path d="M10.3 20.393l-1.252-.724c-.816-.47-.613-2.363.45-4.205l.136-.234 4.218 2.435-.135.235c-1.064 1.842-2.601 2.963-3.417 2.493zM2.208 14.18a1.708 1.708 0 1 1 0-3.416 1.708 1.708 0 0 1 0 3.416zM8.826 16.944l-5.41-3.264M3.096 10.822l3.18-8.452M17.624 11.824a3.139 3.139 0 0 0-.856-2.854 3.135 3.135 0 0 0-2.854-.856 3.088 3.088 0 0 0-1.123.473 3.046 3.046 0 0 0-.242.18" fill="none" stroke-linecap="round" stroke-linejoin="round" stroke-miterlimit="22.926"/></g></svg>