<svg xmlns="http://www.w3.org/2000/svg" viewbox="0 0 28 28"><defs><clipPath id="a"><path d="M0 21h21V0H0z"/></clipPath></defs><g clip-path="url(#a)" transform="matrix(1.33333 0 0 -1.33333 0 28)"><path d="M11.976 12.068c1.277 1.097 2.707 1.83 4.154 1.937 2.997.223 2.992-4.2 2.202-6.226-.68-1.744-2.02-4-3.283-4.068-.614-.033-1.866.368-1.704 1.753.203 1.738-.693 2.65-1.491 3.361M11.088 8.428c.367-1.743.31-3.44-.351-4.813C9.43.909 5.604 3.125 4.245 4.822 3.074 6.284 1.79 8.572 2.363 9.7c.278.546 1.25 1.431 2.37.6 1.42-1.06 2.67-.718 3.693-.38M8.367 10.791c-1.667.554-3.084 1.445-3.932 2.69-1.69 2.484 2.142 4.69 4.292 5.02 1.85.282 4.474.25 5.165-.81.334-.515.614-1.8-.666-2.352-1.507-.649-1.902-1.77-2.124-2.772" fill="none" stroke-linecap="round" stroke-linejoin="round" stroke-miterlimit="22.926"/><path d="M10.5 20.5a9.97 9.97 0 0 0 7.07-2.929 9.968 9.968 0 0 0 2.93-7.07 9.965 9.965 0 0 0-2.93-7.072A9.965 9.965 0 0 0 10.5.5a9.968 9.968 0 0 0-7.071 2.93 9.97 9.97 0 0 0-2.93 7.07 9.973 9.973 0 0 0 2.93 7.071 9.973 9.973 0 0 0 7.07 2.93z" fill="none" stroke-linecap="round" stroke-linejoin="round" stroke-miterlimit="22.926"/><path d="M10.5 11.02a.52.52 0 1 0 0-1.041.52.52 0 0 0 0 1.041z" fill="none" stroke-linecap="round" stroke-linejoin="round" stroke-miterlimit="22.926"/><path d="M10.5 12.653a2.154 2.154 0 1 0 0-4.308 2.154 2.154 0 0 0 0 4.308z" fill="none" stroke-linecap="round" stroke-linejoin="round" stroke-miterlimit="22.926"/></g></svg>